<svg width="254" height="269" viewBox="0 0 254 269" fill="none" xmlns="http://www.w3.org/2000/svg">
<path d="M252.428 268.096H0.790547C0.353638 268.096 0 267.659 0 267.121V201.037C0 200.499 0.353638 200.062 0.790547 200.062H252.428C252.865 200.062 253.219 200.499 253.219 201.037V267.121C253.219 267.659 252.865 268.096 252.428 268.096ZM1.58109 266.145H251.638V202.013H1.58109V266.145Z" fill="black"/>
<path d="M225.92 202.012H27.2217C26.7848 202.012 26.4312 201.575 26.4312 201.037V184.564C26.4312 184.025 26.7848 183.588 27.2217 183.588H225.92C226.357 183.588 226.711 184.025 226.711 184.564V201.037C226.711 201.575 226.357 202.012 225.92 202.012ZM28.0122 200.061H225.13V185.539H28.0122V200.061Z" fill="black"/>
<path d="M212.703 185.54H40.5155C40.0786 185.54 39.725 185.103 39.725 184.564V167.994C39.725 167.456 40.0786 167.019 40.5155 167.019H212.703C213.14 167.019 213.494 167.456 213.494 167.994V184.564C213.494 185.103 213.14 185.54 212.703 185.54ZM41.3061 183.589H211.913V168.97H41.3061V183.589Z" fill="black"/>
<path d="M186.731 168.969H66.4882C66.0513 168.969 65.6976 168.532 65.6976 167.994V110.29C65.6976 109.751 66.0513 109.314 66.4882 109.314H186.731C187.167 109.314 187.521 109.751 187.521 110.29V167.994C187.521 168.533 187.167 168.969 186.731 168.969ZM67.2787 167.018H185.94V111.266H67.2787V167.018Z" fill="black"/>
<path d="M186.731 111.266H66.4881C66.2194 111.266 65.9695 111.098 65.8235 110.819L52.8386 85.9663C52.682 85.6665 52.6704 85.284 52.809 84.9705C52.9477 84.657 53.2138 84.4619 53.5032 84.4619H199.643C199.932 84.4619 200.198 84.6564 200.336 84.9692C200.475 85.2821 200.464 85.6639 200.308 85.9637L187.396 110.817C187.251 111.096 187 111.266 186.731 111.266ZM66.9187 109.315H186.298L198.196 86.4132H54.9535L66.9187 109.315Z" fill="black"/>
<path d="M186.731 86.4137H66.4882C66.0513 86.4137 65.6976 85.9773 65.6976 85.4381V77.2481C65.6976 76.7089 66.0513 76.2725 66.4882 76.2725H186.731C187.167 76.2725 187.521 76.7089 187.521 77.2481V85.4381C187.521 85.9767 187.167 86.4137 186.731 86.4137ZM67.2787 84.4625H185.94V78.2237H67.2787V84.4625Z" fill="black"/>
<path d="M172.98 78.2231H80.2399C79.803 78.2231 79.4494 77.7866 79.4494 77.2474V60.6787C79.4494 60.1396 79.803 59.7031 80.2399 59.7031H172.98C173.416 59.7031 173.77 60.1396 173.77 60.6787V77.2474C173.77 77.7866 173.416 78.2231 172.98 78.2231ZM81.0305 76.2718H172.189V61.6544H81.0305V76.2718Z" fill="black"/>
<path d="M158.617 45.9432C158.329 45.9432 158.057 45.7474 157.917 45.4209C155.005 38.5701 152.424 37.7778 150.737 37.7778C148.52 37.7778 146.247 39.3675 143.842 41.0507C141.357 42.7886 138.788 44.5864 136.141 44.5864C136.141 44.5864 136.14 44.5864 136.139 44.5864C132.84 44.5857 130.019 41.7441 127.516 35.9007C127.456 35.7603 127.424 35.6035 127.424 35.4448V11.7346C127.424 11.2864 127.672 10.8955 128.024 10.7876C128.377 10.6796 128.744 10.8825 128.914 11.2786C131.085 16.3467 133.3 18.7077 135.884 18.7077H135.885C138.184 18.7064 140.65 16.8202 143.035 14.9951C145.601 13.0308 148.255 11.0002 150.991 11.0002C154.17 11.0002 156.895 13.771 159.318 19.4706C159.378 19.6104 159.409 19.7665 159.409 19.9239V44.9675C159.409 45.4163 159.161 45.8079 158.808 45.9152C158.743 45.9341 158.68 45.9432 158.617 45.9432ZM129.005 35.2009C131.903 41.8579 134.461 42.6351 136.14 42.6351H136.141C138.371 42.6351 140.65 41.041 143.063 39.3531C145.541 37.6191 148.103 35.8266 150.738 35.8266C153.385 35.8266 155.72 37.6692 157.827 41.4384V20.1665C155.729 15.3118 153.491 12.9515 150.99 12.9515C148.706 12.9515 146.355 14.7499 143.867 16.653C141.294 18.6218 138.633 20.6576 135.885 20.6589H135.883C133.326 20.6589 131.061 18.8794 129.005 15.2377V35.2009H129.005Z" fill="black"/>
<path d="M128.215 61.655H124.931C124.494 61.655 124.14 61.2186 124.14 60.6794V8.59412C124.14 8.24549 124.291 7.92353 124.535 7.74922C124.779 7.57491 125.08 7.57426 125.325 7.74858C125.753 8.05297 126.15 8.18891 126.61 8.18891C127.065 8.18891 127.446 8.05687 127.773 7.785C128.015 7.58402 128.328 7.56321 128.586 7.73296C128.844 7.90272 129.005 8.23379 129.005 8.59412V60.6794C129.005 61.2186 128.651 61.655 128.215 61.655ZM125.721 59.7037H127.424V10.04C126.884 10.1785 126.278 10.1753 125.721 10.0198V59.7037Z" fill="black"/>
<path d="M126.61 10.14C124.325 10.14 122.535 7.91295 122.535 5.06999C122.535 2.22702 124.325 0 126.61 0C128.894 0 130.684 2.22702 130.684 5.06999C130.684 7.91295 128.894 10.14 126.61 10.14ZM126.61 1.95125C125.212 1.95125 124.116 3.32102 124.116 5.06999C124.116 6.81895 125.212 8.18873 126.61 8.18873C128.008 8.18873 129.103 6.81895 129.103 5.06999C129.103 3.32102 128.008 1.95125 126.61 1.95125Z" fill="black"/>
<path d="M146.09 34.3256C145.928 34.3256 145.766 34.2645 145.628 34.1416L143.423 32.1799L141.29 34.1331C141.015 34.3861 140.638 34.3894 140.358 34.1429C140.079 33.8957 139.96 33.4541 140.066 33.0508L140.886 29.9087L138.744 27.9444C138.47 27.6934 138.358 27.2543 138.465 26.855C138.572 26.4556 138.875 26.1857 139.216 26.1857H141.844L142.662 22.9648C142.765 22.5577 143.07 22.2812 143.416 22.2812C143.761 22.2812 144.067 22.5583 144.171 22.9648L144.989 26.1857H147.696C148.039 26.1857 148.343 26.4582 148.449 26.8615C148.554 27.2647 148.437 27.7051 148.159 27.9529L145.962 29.9087L146.838 33.0307C146.951 33.4326 146.839 33.8788 146.563 34.1325C146.422 34.2613 146.256 34.3256 146.09 34.3256ZM143.416 29.9952C143.578 29.9952 143.74 30.0563 143.878 30.1792L144.526 30.7555L144.274 29.8605C144.16 29.4534 144.276 29.002 144.559 28.7503L145.248 28.1363H144.408C144.062 28.1363 143.757 27.8592 143.653 27.4527L143.415 26.5174L143.178 27.4527C143.075 27.8599 142.769 28.1363 142.423 28.1363H141.605L142.284 28.7581C142.556 29.0072 142.668 29.4423 142.565 29.8404L142.326 30.7523L142.944 30.187C143.084 30.0596 143.25 29.9952 143.416 29.9952Z" fill="black"/>
<path d="M199.413 185.54H53.7324C53.2955 185.54 52.9419 185.103 52.9419 184.564V167.994C52.9419 167.456 53.2955 167.019 53.7324 167.019H199.413C199.849 167.019 200.203 167.456 200.203 167.994V184.564C200.203 185.103 199.849 185.54 199.413 185.54ZM54.523 183.589H198.622V168.97H54.523V183.589Z" fill="black"/>
<path d="M186.196 202.012H67.0231C66.5862 202.012 66.2325 201.575 66.2325 201.037V184.564C66.2325 184.025 66.5862 183.588 67.0231 183.588H186.196C186.633 183.588 186.987 184.025 186.987 184.564V201.037C186.987 201.575 186.633 202.012 186.196 202.012ZM67.8136 200.061H185.406V185.539H67.8136V200.061Z" fill="black"/>
<path d="M86.8853 168.969H80.2399C79.803 168.969 79.4494 168.532 79.4494 167.994V110.29C79.4494 109.751 79.803 109.314 80.2399 109.314H86.8853C87.3222 109.314 87.6758 109.751 87.6758 110.29V167.994C87.6758 168.533 87.3222 168.969 86.8853 168.969ZM81.0305 167.018H86.0947V111.266H81.0305V167.018Z" fill="black"/>
<path d="M106.748 168.969H93.4569C93.02 168.969 92.6663 168.532 92.6663 167.994V110.29C92.6663 109.751 93.02 109.314 93.4569 109.314H106.748C107.184 109.314 107.538 109.751 107.538 110.29V167.994C107.538 168.533 107.184 168.969 106.748 168.969ZM94.2474 167.018H105.957V111.266H94.2474V167.018Z" fill="black"/>
<path d="M172.98 168.969H166.334C165.898 168.969 165.544 168.532 165.544 167.994V110.29C165.544 109.751 165.898 109.314 166.334 109.314H172.98C173.416 109.314 173.77 109.751 173.77 110.29V167.994C173.77 168.533 173.416 168.969 172.98 168.969ZM167.125 167.018H172.189V111.266H167.125V167.018Z" fill="black"/>
<path d="M119.964 168.969H106.748C106.311 168.969 105.957 168.532 105.957 167.994V110.29C105.957 109.751 106.311 109.314 106.748 109.314H119.964C120.401 109.314 120.755 109.751 120.755 110.29V167.994C120.755 168.533 120.401 168.969 119.964 168.969ZM107.538 167.018H119.174V111.266H107.538V167.018Z" fill="black"/>
<path d="M133.257 168.969H119.964C119.528 168.969 119.174 168.532 119.174 167.994V110.29C119.174 109.751 119.528 109.314 119.964 109.314H133.257C133.694 109.314 134.048 109.751 134.048 110.29V167.994C134.048 168.533 133.694 168.969 133.257 168.969ZM120.755 167.018H132.467V111.266H120.755V167.018Z" fill="black"/>
<path d="M146.471 168.969H133.257C132.821 168.969 132.467 168.532 132.467 167.994V110.29C132.467 109.751 132.821 109.314 133.257 109.314H146.471C146.908 109.314 147.262 109.751 147.262 110.29V167.994C147.262 168.533 146.908 168.969 146.471 168.969ZM134.048 167.018H145.681V111.266H134.048V167.018Z" fill="black"/>
<path d="M159.689 168.969H146.471C146.035 168.969 145.681 168.532 145.681 167.994V110.29C145.681 109.751 146.035 109.314 146.471 109.314H159.689C160.125 109.314 160.479 109.751 160.479 110.29V167.994C160.479 168.533 160.125 168.969 159.689 168.969ZM147.262 167.018H158.898V111.266H147.262V167.018Z" fill="black"/>
<path d="M27.2217 218.581H0.790547C0.353638 218.581 0 218.144 0 217.606V201.037C0 200.499 0.353638 200.062 0.790547 200.062H27.2217C27.6586 200.062 28.0122 200.499 28.0122 201.037V217.606C28.0122 218.144 27.6586 218.581 27.2217 218.581ZM1.58109 216.63H26.4311V202.013H1.58109V216.63Z" fill="black"/>
<path d="M60.3772 218.581H27.2217C26.7848 218.581 26.4312 218.144 26.4312 217.606V201.037C26.4312 200.499 26.7848 200.062 27.2217 200.062H60.3772C60.8141 200.062 61.1678 200.499 61.1678 201.037V217.606C61.1678 218.144 60.8141 218.581 60.3772 218.581ZM28.0122 216.63H59.5867V202.013H28.0122V216.63Z" fill="black"/>
<path d="M80.24 218.581H60.3772C59.9403 218.581 59.5867 218.144 59.5867 217.606V201.037C59.5867 200.499 59.9403 200.062 60.3772 200.062H80.24C80.6769 200.062 81.0305 200.499 81.0305 201.037V217.606C81.0305 218.144 80.6763 218.581 80.24 218.581ZM61.1678 216.63H79.4494V202.013H61.1678V216.63Z" fill="black"/>
<path d="M106.748 218.581H80.2399C79.803 218.581 79.4494 218.144 79.4494 217.606V201.037C79.4494 200.499 79.803 200.062 80.2399 200.062H106.748C107.184 200.062 107.538 200.499 107.538 201.037V217.606C107.538 218.144 107.184 218.581 106.748 218.581ZM81.0305 216.63H105.957V202.013H81.0305V216.63Z" fill="black"/>
<path d="M133.179 218.581H106.747C106.31 218.581 105.956 218.144 105.956 217.606V201.037C105.956 200.499 106.31 200.062 106.747 200.062H133.179C133.615 200.062 133.969 200.499 133.969 201.037V217.606C133.969 218.144 133.616 218.581 133.179 218.581ZM107.538 216.63H132.389V202.013H107.538V216.63Z" fill="black"/>
<path d="M159.689 218.581H133.179C132.742 218.581 132.388 218.144 132.388 217.606V201.037C132.388 200.499 132.742 200.062 133.179 200.062H159.689C160.125 200.062 160.479 200.499 160.479 201.037V217.606C160.479 218.144 160.125 218.581 159.689 218.581ZM133.969 216.63H158.898V202.013H133.969V216.63Z" fill="black"/>
<path d="M186.196 218.581H159.689C159.252 218.581 158.898 218.144 158.898 217.606V201.037C158.898 200.499 159.252 200.062 159.689 200.062H186.196C186.633 200.062 186.987 200.499 186.987 201.037V217.606C186.987 218.144 186.633 218.581 186.196 218.581ZM160.479 216.63H185.406V202.013H160.479V216.63Z" fill="black"/>
<path d="M219.351 218.581H186.196C185.76 218.581 185.406 218.144 185.406 217.606V201.037C185.406 200.499 185.76 200.062 186.196 200.062H219.351C219.788 200.062 220.142 200.499 220.142 201.037V217.606C220.142 218.144 219.788 218.581 219.351 218.581ZM186.987 216.63H218.561V202.013H186.987V216.63Z" fill="black"/>
<path d="M252.428 218.581H219.351C218.915 218.581 218.561 218.144 218.561 217.606V201.037C218.561 200.499 218.915 200.062 219.351 200.062H252.428C252.865 200.062 253.219 200.499 253.219 201.037V217.606C253.219 218.144 252.865 218.581 252.428 218.581ZM220.142 216.63H251.638V202.013H220.142V216.63Z" fill="black"/>
<path d="M40.5155 235.055H0.790547C0.353638 235.055 0 234.618 0 234.079V217.606C0 217.067 0.353638 216.63 0.790547 216.63H40.5155C40.9524 216.63 41.3061 217.067 41.3061 217.606V234.079C41.3061 234.618 40.9519 235.055 40.5155 235.055ZM1.58109 233.104H39.725V218.581H1.58109V233.104Z" fill="black"/>
<path d="M67.0231 235.055H40.5155C40.0786 235.055 39.725 234.618 39.725 234.079V217.606C39.725 217.067 40.0786 216.63 40.5155 216.63H67.0231C67.46 216.63 67.8136 217.067 67.8136 217.606V234.079C67.8136 234.618 67.4595 235.055 67.0231 235.055ZM41.3061 233.104H66.2325V218.581H41.3061V233.104Z" fill="black"/>
<path d="M93.4569 235.055H67.0231C66.5862 235.055 66.2325 234.618 66.2325 234.079V217.606C66.2325 217.067 66.5862 216.63 67.0231 216.63H93.4569C93.8938 216.63 94.2474 217.067 94.2474 217.606V234.079C94.2474 234.618 93.8933 235.055 93.4569 235.055ZM67.8136 233.104H92.6663V218.581H67.8136V233.104Z" fill="black"/>
<path d="M119.964 235.055H93.4569C93.02 235.055 92.6663 234.618 92.6663 234.079V217.606C92.6663 217.067 93.02 216.63 93.4569 216.63H119.964C120.401 216.63 120.755 217.067 120.755 217.606V234.079C120.755 234.618 120.401 235.055 119.964 235.055ZM94.2474 233.104H119.174V218.581H94.2474V233.104Z" fill="black"/>
<path d="M146.471 235.055H119.964C119.528 235.055 119.174 234.618 119.174 234.079V217.606C119.174 217.067 119.528 216.63 119.964 216.63H146.471C146.908 216.63 147.262 217.067 147.262 217.606V234.079C147.262 234.618 146.908 235.055 146.471 235.055ZM120.755 233.104H145.681V218.581H120.755V233.104Z" fill="black"/>
<path d="M172.98 235.055H146.471C146.035 235.055 145.681 234.618 145.681 234.079V217.606C145.681 217.067 146.035 216.63 146.471 216.63H172.98C173.416 216.63 173.77 217.067 173.77 217.606V234.079C173.77 234.618 173.416 235.055 172.98 235.055ZM147.262 233.104H172.189V218.581H147.262V233.104Z" fill="black"/>
<path d="M199.413 235.055H172.98C172.543 235.055 172.189 234.618 172.189 234.079V217.606C172.189 217.067 172.543 216.63 172.98 216.63H199.413C199.849 216.63 200.203 217.067 200.203 217.606V234.079C200.203 234.618 199.849 235.055 199.413 235.055ZM173.77 233.104H198.622V218.581H173.77V233.104Z" fill="black"/>
<path d="M225.92 235.055H199.413C198.976 235.055 198.622 234.618 198.622 234.079V217.606C198.622 217.067 198.976 216.63 199.413 216.63H225.92C226.357 216.63 226.711 217.067 226.711 217.606V234.079C226.711 234.618 226.357 235.055 225.92 235.055ZM200.203 233.104H225.13V218.581H200.203V233.104Z" fill="black"/>
<path d="M252.428 235.055H225.92C225.484 235.055 225.13 234.618 225.13 234.079V217.606C225.13 217.067 225.484 216.63 225.92 216.63H252.428C252.865 216.63 253.219 217.067 253.219 217.606V234.079C253.219 234.618 252.865 235.055 252.428 235.055ZM226.711 233.104H251.638V218.581H226.711V233.104Z" fill="black"/>
<path d="M159.689 268.096H93.4569C93.02 268.096 92.6663 267.659 92.6663 267.12V234.079C92.6663 233.541 93.02 233.104 93.4569 233.104H159.689C160.125 233.104 160.479 233.541 160.479 234.079V267.12C160.479 267.659 160.125 268.096 159.689 268.096ZM94.2474 266.145H158.898V235.055H94.2474V266.145Z" fill="black"/>
<path d="M27.2217 251.528H0.790547C0.353638 251.528 0 251.091 0 250.553V234.079C0 233.541 0.353638 233.104 0.790547 233.104H27.2217C27.6586 233.104 28.0122 233.541 28.0122 234.079V250.553C28.0122 251.091 27.6586 251.528 27.2217 251.528ZM1.58109 249.577H26.4311V235.055H1.58109V249.577Z" fill="black"/>
<path d="M53.7324 251.528H27.2217C26.7848 251.528 26.4312 251.091 26.4312 250.553V234.079C26.4312 233.541 26.7848 233.104 27.2217 233.104H53.7324C54.1693 233.104 54.523 233.541 54.523 234.079V250.553C54.523 251.091 54.1693 251.528 53.7324 251.528ZM28.0122 249.577H52.9419V235.055H28.0122V249.577Z" fill="black"/>
<path d="M80.24 251.528H53.7324C53.2955 251.528 52.9419 251.091 52.9419 250.553V234.079C52.9419 233.541 53.2955 233.104 53.7324 233.104H80.24C80.6769 233.104 81.0305 233.541 81.0305 234.079V250.553C81.0305 251.091 80.6764 251.528 80.24 251.528ZM54.523 249.577H79.4494V235.055H54.523V249.577Z" fill="black"/>
<path d="M219.351 251.814H186.196C185.76 251.814 185.406 251.377 185.406 250.838V234.078C185.406 233.54 185.76 233.103 186.196 233.103H219.351C219.788 233.103 220.142 233.54 220.142 234.078V250.838C220.142 251.377 219.788 251.814 219.351 251.814ZM186.987 249.862H218.561V235.054H186.987V249.862Z" fill="black"/>
<path d="M252.428 251.814H219.351C218.915 251.814 218.561 251.377 218.561 250.838V234.078C218.561 233.54 218.915 233.103 219.351 233.103H252.428C252.865 233.103 253.219 233.54 253.219 234.078V250.838C253.219 251.377 252.865 251.814 252.428 251.814ZM220.142 249.862H251.638V235.054H220.142V249.862Z" fill="black"/>
<path d="M186.196 251.814H172.98C172.543 251.814 172.189 251.377 172.189 250.838V234.078C172.189 233.54 172.543 233.103 172.98 233.103H186.196C186.633 233.103 186.987 233.54 186.987 234.078V250.838C186.987 251.377 186.633 251.814 186.196 251.814ZM173.77 249.862H185.406V235.054H173.77V249.862Z" fill="black"/>
<path d="M40.5155 268.096H0.790547C0.353638 268.096 0 267.659 0 267.12V250.553C0 250.014 0.353638 249.577 0.790547 249.577H40.5155C40.9524 249.577 41.3061 250.014 41.3061 250.553V267.12C41.3061 267.659 40.9519 268.096 40.5155 268.096ZM1.58109 266.145H39.725V251.528H1.58109V266.145Z" fill="black"/>
<path d="M67.0231 268.096H40.5155C40.0786 268.096 39.725 267.659 39.725 267.12V250.553C39.725 250.014 40.0786 249.577 40.5155 249.577H67.0231C67.46 249.577 67.8136 250.014 67.8136 250.553V267.12C67.8136 267.659 67.4595 268.096 67.0231 268.096ZM41.3061 266.145H66.2325V251.528H41.3061V266.145Z" fill="black"/>
<path d="M199.413 268.096H166.334C165.897 268.096 165.543 267.659 165.543 267.12V250.839C165.543 250.3 165.897 249.863 166.334 249.863H199.413C199.849 249.863 200.203 250.3 200.203 250.839V267.12C200.203 267.659 199.849 268.096 199.413 268.096ZM167.125 266.144H198.623V251.815H167.125V266.144Z" fill="black"/>
<path d="M225.92 268.096H199.413C198.976 268.096 198.622 267.659 198.622 267.12V250.839C198.622 250.3 198.976 249.863 199.413 249.863H225.92C226.357 249.863 226.711 250.3 226.711 250.839V267.12C226.711 267.659 226.357 268.096 225.92 268.096ZM200.203 266.144H225.13V251.815H200.203V266.144Z" fill="black"/>
<path d="M252.428 268.096H225.92C225.484 268.096 225.13 267.659 225.13 267.12V250.839C225.13 250.3 225.484 249.863 225.92 249.863H252.428C252.865 249.863 253.219 250.3 253.219 250.839V267.12C253.219 267.659 252.865 268.096 252.428 268.096ZM226.711 266.144H251.638V251.815H226.711V266.144Z" fill="black"/>
<path d="M106.747 69.9395H80.2395C79.8026 69.9395 79.4489 69.5031 79.4489 68.9639C79.4489 68.4247 79.8026 67.9883 80.2395 67.9883H106.747C107.184 67.9883 107.538 68.4247 107.538 68.9639C107.538 69.5031 107.184 69.9395 106.747 69.9395Z" fill="black"/>
<path d="M191.01 102.981H159.689C159.252 102.981 158.898 102.544 158.898 102.005C158.898 101.466 159.252 101.029 159.689 101.029H191.01C191.446 101.029 191.8 101.466 191.8 102.005C191.8 102.544 191.446 102.981 191.01 102.981Z" fill="black"/>
<path d="M93.4563 94.6964H57.9318C57.4949 94.6964 57.1412 94.2599 57.1412 93.7207C57.1412 93.1815 57.4949 92.7451 57.9318 92.7451H93.4563C93.8932 92.7451 94.2469 93.1815 94.2469 93.7207C94.2469 94.2599 93.8932 94.6964 93.4563 94.6964Z" fill="black"/>
</svg>
