<svg width="372" height="386" viewBox="0 0 372 386" fill="none" xmlns="http://www.w3.org/2000/svg">
<path opacity="0.2" d="M227.361 365.84C307.205 365.84 371.93 363.225 371.93 359.998C371.93 356.772 307.205 354.156 227.361 354.156C147.518 354.156 82.7923 356.772 82.7923 359.998C82.7923 363.225 147.518 365.84 227.361 365.84Z" fill="black"/>
<path opacity="0.1" d="M137.52 385.242C166.406 385.242 189.822 382.704 189.822 379.572C189.822 376.441 166.406 373.902 137.52 373.902C108.635 373.902 85.2183 376.441 85.2183 379.572C85.2183 382.704 108.635 385.242 137.52 385.242Z" fill="black"/>
<path d="M340.889 32.1318H114.429C108.485 32.1318 103.667 36.9498 103.667 42.8938V349.606C103.667 355.549 108.485 360.368 114.429 360.368H340.889C346.833 360.368 351.651 355.55 351.651 349.606V42.8938C351.65 36.9498 346.832 32.1318 340.889 32.1318Z" fill="black"/>
<path d="M331.645 51.9307H128.899C123.578 51.9307 119.264 56.2447 119.264 61.5657V336.161C119.264 341.482 123.578 345.796 128.899 345.796H331.645C336.966 345.796 341.28 341.482 341.28 336.161V61.5657C341.28 56.2447 336.967 51.9307 331.645 51.9307Z" fill="black"/>
<path d="M329.032 49.3174H126.285C120.964 49.3174 116.65 53.6314 116.65 58.9524V333.547C116.65 338.868 120.964 343.182 126.285 343.182H329.031C334.352 343.182 338.666 338.868 338.666 333.547V58.9524C338.667 53.6314 334.353 49.3174 329.032 49.3174Z" fill="#FFFDF1"/>
<path d="M279.683 27.054C279.683 27.054 242.148 27.054 240.602 27.054C239.056 27.054 237.179 24.719 237.091 22.996C236.851 18.299 240.063 15.998 239.378 9.762C238.812 4.601 233.932 0 228.22 0C222.217 0 217.325 4.696 216.983 10.613C216.865 15.902 219.712 20.3 219.58 23.354C219.504 25.114 218.984 27.054 216.055 27.054C213.126 27.054 177.029 27.054 177.029 27.054C174.417 27.054 172.3 29.171 172.3 31.783V50.212C172.3 52.824 174.417 54.941 177.029 54.941H279.683C282.295 54.941 284.412 52.824 284.412 50.212V31.783C284.412 29.171 282.295 27.054 279.683 27.054ZM228.311 13.979C226.505 13.979 225.041 12.515 225.041 10.709C225.041 8.903 226.505 7.439 228.311 7.439C230.117 7.439 231.581 8.903 231.581 10.709C231.581 12.515 230.117 13.979 228.311 13.979Z" fill="black"/>
<path d="M172.3 46.6348V50.2118C172.3 52.8238 174.417 54.9408 177.029 54.9408H279.683C282.295 54.9408 284.412 52.8238 284.412 50.2118V46.6348H172.3Z" fill="#848379"/>
<path d="M293.316 140.94C304.64 140.94 313.82 131.76 313.82 120.436C313.82 109.112 304.64 99.9316 293.316 99.9316C281.992 99.9316 272.812 109.112 272.812 120.436C272.812 131.76 281.992 140.94 293.316 140.94Z" stroke="#1E1E1E" stroke-width="6" stroke-miterlimit="10"/>
<path d="M251.608 104.067H155.737V108.333H251.608V104.067Z" fill="#1E1E1E"/>
<path d="M251.608 117.987H155.737V122.253H251.608V117.987Z" fill="#1E1E1E"/>
<path d="M251.608 131.908H155.737V136.174H251.608V131.908Z" fill="#1E1E1E"/>
<path d="M293.316 212.113C304.64 212.113 313.82 202.934 313.82 191.609C313.82 180.285 304.64 171.105 293.316 171.105C281.992 171.105 272.812 180.285 272.812 191.609C272.812 202.934 281.992 212.113 293.316 212.113Z" stroke="#1E1E1E" stroke-width="6" stroke-miterlimit="10"/>
<path d="M251.608 175.241H155.737V179.507H251.608V175.241Z" fill="#1E1E1E"/>
<path d="M251.608 189.161H155.737V193.427H251.608V189.161Z" fill="#1E1E1E"/>
<path d="M251.608 203.082H155.737V207.348H251.608V203.082Z" fill="#1E1E1E"/>
<path d="M293.316 287.357C304.64 287.357 313.82 278.177 313.82 266.853C313.82 255.529 304.64 246.349 293.316 246.349C281.992 246.349 272.812 255.529 272.812 266.853C272.812 278.177 281.992 287.357 293.316 287.357Z" stroke="#1E1E1E" stroke-width="6" stroke-miterlimit="10"/>
<path d="M251.608 250.484H155.737V254.75H251.608V250.484Z" fill="#1E1E1E"/>
<path d="M251.608 264.405H155.737V268.671H251.608V264.405Z" fill="#1E1E1E"/>
<path d="M251.608 278.325H155.737V282.591H251.608V278.325Z" fill="#1E1E1E"/>
<path d="M141.98 153.358C149.842 160.463 157.12 178.077 171.897 187.739C177.555 191.439 181.521 194.692 184.648 191.755C188.153 191.66 196.291 191.102 196.291 191.102C196.291 191.102 190.964 204.71 178.02 204.525C168.092 204.383 161.083 199.927 154.568 192.951C145.815 183.579 141.017 177.185 141.017 177.185C141.017 177.185 142.075 159.232 141.98 153.358Z" fill="#383737"/>
<path d="M121.162 376.638H102.15C102.15 376.638 101.033 371.58 105.001 364.909L117.811 365.07C117.811 365.07 121.496 370.3 121.162 376.638Z" fill="black"/>
<path d="M121.364 376.639H102.352V379.641H121.364V376.639Z" fill="black"/>
<path d="M141.257 364.244C141.257 364.244 139.784 371.801 140.895 377.137H176.696C176.696 377.137 177.919 369.367 162.353 369.386L152.367 362.636L141.257 364.244Z" fill="black"/>
<path d="M141.208 380.139H152.972L153.118 378.065C153.118 378.065 158.119 380.076 164.909 380.076C168.21 380.076 176.898 380.203 176.898 380.203V377.137H141.208V380.139Z" fill="black"/>
<path d="M151.781 305.121L146.152 242.195C146.154 242.11 146.151 242.06 146.151 242.06L146.054 241.102L144.853 229.24L121.249 226.967L101.082 233.423V245.683C101.082 245.683 101.09 245.699 101.104 245.723L102.537 365.442H119.994V250.593C121.567 250.659 123.258 250.698 125.099 250.698C126.303 250.698 127.426 250.668 128.496 250.617L134.276 305.551L140.756 365.01L158.191 365.873L151.781 305.121Z" fill="#383737"/>
<path d="M112.842 146.664L126.299 148.356L130.784 145.391C130.784 145.391 133.142 156.158 132.36 166.304C131.579 176.45 130.905 182.731 130.905 182.731L128.734 183.034L112.842 146.664Z" fill="#E6EDF4"/>
<path d="M111.6 143.481C111.6 143.481 118.783 154.119 123.784 164.757C128.785 175.395 130.08 181.419 130.08 181.419C130.08 181.419 131.323 165.192 130.966 158.12C130.61 151.048 128.789 143.481 128.789 143.481C128.789 143.481 141.574 151.573 142.908 153.998C144.242 156.423 144.605 179.093 143.999 194.732C143.393 210.371 143.84 211.159 144.283 216.008C144.726 220.858 146.969 231.041 146.424 232.314C145.878 233.587 136.23 240.011 134.78 239.89C133.33 239.769 132.239 232.677 132.239 232.677C132.239 232.677 131.33 240.133 130.057 240.86C128.784 241.587 118.237 241.647 111.599 239.89C104.962 238.133 99.8703 234.553 99.8703 233.797C99.8703 233.041 102.78 213.765 102.416 201.581C102.052 189.397 96.9613 154.744 96.9613 152.976C96.9613 151.21 111.6 143.481 111.6 143.481Z" fill="black"/>
<path d="M128.659 141.533L127.869 136.223H113.636V139.374C117.447 141.533 123.526 142.762 128.659 141.533Z" fill="#CB8C7E"/>
<path d="M113.636 139.374V148.699H129.726L128.66 141.534C123.526 142.762 117.447 141.533 113.636 139.374Z" fill="black"/>
<path d="M113.612 141.077C113.612 141.077 117.44 147.148 124.057 147.391C130.674 147.634 128.79 143.481 128.79 143.481L133.157 149.027L130.785 151.512L128.853 154.368L125.138 149.269L123.571 155.331C123.571 155.331 119.328 153.997 116.54 151.451C113.751 148.905 111.69 143.874 111.69 143.874L113.612 141.077Z" fill="white"/>
<path d="M111.6 142.293C111.6 142.293 118.298 152.908 122.087 160.394C125.876 167.88 129.687 178.693 130.081 181.42C129.05 179.541 114.352 164.212 114.659 163.667C114.965 163.122 118.057 159.394 118.057 159.394C118.057 159.394 112.329 160.849 111.601 160.303C110.874 159.757 103.872 148.028 104.054 147.028C104.235 146.027 111.6 142.293 111.6 142.293Z" fill="#383737"/>
<path d="M128.79 143.481C129.199 147.008 130.568 152.758 130.785 157.544C131.003 162.33 130.081 181.419 130.081 181.419C130.081 181.419 133.423 170.985 134.423 167.621C135.423 164.257 135.969 162.211 135.923 161.756C135.878 161.302 132.559 157.346 132.559 157.346C132.559 157.346 135.787 158.483 136.196 158.119C136.605 157.756 137.105 149.072 136.196 147.799C135.287 146.526 128.736 142.181 128.736 142.181C128.736 142.181 128.752 143.159 128.79 143.481Z" fill="#383737"/>
<path d="M123.824 154.357L125.329 155.529L125.435 168.043L130.08 181.42L130.65 167.323L127.739 155.234L128.392 153.737L125.138 149.27L123.824 154.357Z" fill="#C94949"/>
<path d="M141.073 84.6599C144.012 89.0229 141.214 101.058 141.214 101.058C141.214 101.058 123.923 100.693 118.5 101.623C113.077 102.553 110.941 116.747 108.049 128.889C103.226 134.165 90.4193 122.152 93.3113 105.689C92.1663 108.476 90.6543 108.692 90.6543 108.692C90.6543 108.692 87.8663 103.227 94.0223 97.7169C90.4363 99.6189 89.3563 99.6189 89.3563 99.6189C89.3563 99.6189 91.0193 96.1399 95.2533 95.5349C95.3603 88.7299 95.9863 86.6339 98.1463 84.4729C98.5573 86.2659 98.1253 89.7229 98.1253 89.7229C98.1253 89.7229 100.025 83.5869 110.005 79.9989C119.985 76.4109 121.887 77.8359 121.887 77.8359C121.887 77.8359 119.986 79.6509 116.659 80.1269C126.1 79.2399 133.467 80.0379 141.073 84.6599Z" fill="#F7A600"/>
<path d="M143.26 109.301C142.28 124.564 143.44 129.733 140.708 134.01C138.137 138.036 130.92 143.396 115.229 138.331C107.661 135.888 105.892 125.997 105.892 125.997C105.892 125.997 104.315 126.8 102.349 126.409C100.718 126.085 98.6393 124.32 99.0263 121.438C99.5663 117.422 101.506 116.324 103.083 115.995C105.898 115.407 107.592 118.151 107.592 118.151C107.592 118.151 107.968 112.347 108.895 108.119C109.822 103.892 110.613 98.2755 126.86 99.2865C131.855 99.5975 138.622 99.6115 141.212 101.057C143.61 102.395 143.523 105.197 143.26 109.301Z" fill="black"/>
<path d="M146.897 81.5665C143.707 79.5265 139.683 78.9985 136.149 80.1565C137.518 80.6525 137.852 82.6855 137.149 83.9945C134.004 89.8495 127.725 87.3325 122.68 86.8965C117.486 86.4485 112.107 88.4845 108.564 92.2405C106.114 94.8375 104.613 98.1225 103.85 101.581C104.434 101.29 105.025 101.012 105.631 100.763C109.947 98.9935 114.49 100.175 122.054 103.62C130.189 107.325 140.242 107.874 147.575 102.251C154.711 96.7795 155.318 86.9505 146.897 81.5665Z" fill="#F7A600"/>
<path d="M132.394 117.54C133.095 117.211 133.858 116.987 134.655 116.943C135.439 116.908 136.305 117.052 136.949 117.665C137.246 117.974 137.431 118.48 137.287 118.909C137.261 119.135 137.118 119.303 137.035 119.499C136.904 119.658 136.774 119.82 136.628 119.961C136.029 120.512 135.296 120.822 134.571 121.084C135.221 120.664 135.896 120.281 136.396 119.73C136.913 119.218 137.162 118.42 136.638 117.957C136.175 117.463 135.388 117.295 134.656 117.27C133.906 117.245 133.153 117.376 132.394 117.54Z" fill="black"/>
<path d="M120.015 127.09C119.863 127.974 120.347 128.799 120.895 129.404C121.469 130.016 122.233 130.419 123.056 130.603C123.881 130.79 124.745 130.799 125.612 130.739C126.046 130.709 126.477 130.623 126.915 130.569C127.348 130.486 127.778 130.385 128.223 130.315C127.818 130.502 127.398 130.656 126.98 130.829C126.545 130.939 126.113 131.074 125.667 131.157C124.774 131.321 123.841 131.331 122.927 131.136C122.023 130.922 121.141 130.437 120.575 129.677C120.282 129.308 120.081 128.879 119.943 128.439C119.853 127.991 119.795 127.495 120.015 127.09Z" fill="black"/>
<path d="M129.958 108.201C130.314 110.028 131.669 115.372 126.512 116.113C121.355 116.854 122.213 110.515 122.213 110.515C122.213 110.515 127.605 108.583 129.958 108.201Z" fill="url(#paint0_linear_324_782)"/>
<path d="M128.821 107.937C122.903 108.705 119.784 111.261 123.559 111.006C127.334 110.751 132.724 107.431 128.821 107.937Z" fill="#D37C0E"/>
<path d="M129.19 116.133C128.409 114.034 126.174 114.229 125.365 116.302" stroke="black" stroke-width="0.7115" stroke-miterlimit="10"/>
<path d="M136.778 108.243C136.456 109.678 135.412 114.859 139.467 115.558C143.522 116.257 142.893 109.817 142.893 109.817C142.893 109.817 138.628 108.597 136.778 108.243Z" fill="url(#paint1_linear_324_782)"/>
<path d="M137.75 107.986C142.169 108.249 145.152 110.7 141.107 110.2C137.062 109.701 135.443 107.849 137.75 107.986Z" fill="#D37C0E"/>
<path d="M140.807 115.211C139.825 112.783 137.188 113.456 137.103 115.453" stroke="black" stroke-width="0.7115" stroke-miterlimit="10"/>
<path d="M107.319 113.855C105.615 118.462 106.964 123.449 109.039 125.243C110.845 120.713 107.319 113.855 107.319 113.855Z" fill="#F7A600"/>
<path d="M237.702 161.382L260.865 164.492L242.018 177.582L237.702 161.382Z" fill="#002933"/>
<path d="M0.265261 232.403C-0.737739 228.64 1.19126 224.859 4.57326 223.958L14.4523 221.325L18.0843 234.954L11.4223 236.729L8.20426 237.586C4.82326 238.488 1.26826 236.167 0.265261 232.403Z" fill="#002933"/>
<path d="M225.202 181.925L220.806 165.429L37.7553 213.325L42.1513 229.821L225.202 181.925Z" fill="#002933"/>
<path d="M16.6023 233.033L13.9953 223.25C13.2023 220.272 14.9723 217.218 17.9483 216.424L25.8703 214.313L43.6523 209.575C46.6283 208.782 49.6843 210.551 50.4773 213.528L53.0843 223.311C53.8773 226.287 52.1073 229.343 49.1313 230.136L23.4273 236.986C20.4513 237.78 17.3953 236.01 16.6023 233.033Z" fill="black"/>
<path d="M176.658 192.906L173.235 180.06C172.667 177.929 173.934 175.741 176.065 175.173L234.646 159.563C236.777 158.995 238.965 160.262 239.533 162.393L242.956 175.239C243.524 177.369 242.257 179.556 240.127 180.124L231.508 182.421L181.543 195.735C179.413 196.303 177.226 195.036 176.658 192.906Z" fill="black"/>
<path d="M40.8413 232.347L42.4023 238.205L72.7973 227.851C72.7973 227.851 76.2943 222.757 81.4633 221.38C86.6313 220.003 90.7373 224.414 90.7373 224.414L91.5013 227.283C91.5013 227.283 42.1323 244.935 34.2553 247.546C26.3763 250.158 21.5573 237.155 21.5573 237.155L40.8413 232.347Z" fill="#002933"/>
<path d="M69.4393 229.032C70.9683 235.98 74.5523 237.053 78.9853 235.045C84.8703 232.38 83.4183 229.935 83.4183 229.935L82.0523 230.361L80.3473 224.725L69.4393 229.032Z" fill="black"/>
<path d="M99.3513 150.728C83.9043 159.75 56.0693 190.784 68.0313 230.586C73.2513 228.629 82.6033 224.714 82.6033 224.714C77.3833 211.012 81.3863 179.369 105.484 172.027C105.875 156.855 99.3513 150.728 99.3513 150.728Z" fill="black"/>
<path d="M80.8293 226.935C81.1823 227.352 83.6373 226.804 84.5183 226.678C85.8653 226.485 85.9943 228.057 83.7163 228.635C82.3163 228.99 81.5023 229.886 81.5023 229.886C81.5023 229.886 79.6103 228.507 80.8293 226.935Z" fill="black"/>
<path d="M199.991 190.744C196.828 186.517 190.203 188.838 188.581 193.823C187.132 194.095 185.502 194.729 185.502 194.729C185.502 194.729 185.955 195.906 188.853 195.635C191.75 195.362 203.154 194.971 199.991 190.744Z" fill="black"/>
<path d="M282.444 115.66L278.789 119.315L290.048 130.427L306.131 113.905L302.33 110.103L290.048 122.385L282.444 115.66Z" fill="#002933"/>
<path d="M282.444 188.57L278.789 192.225L290.048 203.337L306.131 186.815L302.33 183.014L290.048 195.296L282.444 188.57Z" fill="#002933"/>
<path d="M282.444 261.48L278.789 265.135L290.048 276.248L306.131 259.725L302.33 255.924L290.048 268.206L282.444 261.48Z" fill="#002933"/>
<defs>
<linearGradient id="paint0_linear_324_782" x1="125.743" y1="108.834" x2="127.079" y2="115.033" gradientUnits="userSpaceOnUse">
<stop stop-color="#C9926A"/>
<stop offset="1" stop-color="#C9926A" stop-opacity="0"/>
</linearGradient>
<linearGradient id="paint1_linear_324_782" x1="139.96" y1="109.251" x2="138.95" y2="115.253" gradientUnits="userSpaceOnUse">
<stop stop-color="#C9926A"/>
<stop offset="1" stop-color="#C9926A" stop-opacity="0"/>
</linearGradient>
</defs>
</svg>
