<svg width="265" height="286" viewBox="0 0 265 286" fill="none" xmlns="http://www.w3.org/2000/svg">
<path d="M132.522 0.00153549C120.089 0.0777806 109.318 1.47082 98.0663 4.43122C89.9204 6.57992 79.9253 10.3558 73.2383 13.7977C61.5763 19.8032 54.0106 24.9396 43.7189 33.8055C40.6227 36.4852 34.7472 42.6098 31.0385 47.0091C20.0589 60.0553 11.8596 74.7422 6.60931 90.7614C1.42953 106.563 -0.703618 122.745 0.20264 139.493C0.929366 153.017 3.77662 166.494 8.64251 179.275C9.60037 181.822 12.7444 188.937 14.0163 191.48C16.0624 195.588 19.2219 201.009 21.9578 205.128C26.5818 212.109 32.9487 219.939 38.0833 224.994C43.7636 230.57 48.5694 234.749 53.2617 238.171C54.1942 238.849 54.9705 239.505 54.9664 239.615C54.9624 239.724 54.5429 240.462 54.0427 241.26C53.1589 242.671 50.0443 248.411 49.2432 250.139C49.0222 250.602 48.7373 251.094 48.6224 251.23C48.5081 251.352 48.4065 251.552 48.4031 251.646C48.399 251.756 48.3289 251.957 48.229 252.111C48.1455 252.249 47.5392 253.372 46.8824 254.588C46.225 255.819 45.4028 257.264 45.0686 257.817C44.7344 258.37 44.3126 259.17 44.1559 259.588C43.9836 260.006 43.7475 260.452 43.6325 260.589C43.502 260.726 43.3494 261.034 43.2775 261.282C43.2055 261.531 42.9694 261.977 42.7384 262.283C42.5237 262.573 42.3375 262.943 42.3317 263.1C42.3265 263.241 42.2575 263.411 42.1617 263.454C42.0816 263.499 41.9279 263.838 41.8206 264.195C41.5346 265.142 40.8321 266.748 40.3789 267.548C40.1451 267.932 39.8051 268.641 39.5992 269.12C39.3236 269.785 39.142 270.029 38.7606 270.156C38.2191 270.372 38.1199 270.509 37.549 271.948C37.2387 272.706 37.0647 273.594 36.8829 275.125C36.7456 276.297 36.5624 277.436 36.4597 277.668C36.3727 277.9 36.2742 278.446 36.2586 278.869C36.2431 279.292 36.1271 279.884 35.9908 280.178L35.7355 280.717L36.6039 281.001C37.3325 281.247 38.1 281.291 41.6444 281.359C44.0599 281.4 46.0858 281.365 46.4498 281.284C46.83 281.188 49.484 281.145 52.9663 281.194C59.0849 281.262 61.9123 281.194 64.4189 280.894C66.1371 280.69 66.4558 280.56 66.6002 280.048C66.6547 279.846 66.8375 279.57 67.0157 279.42C67.1776 279.284 67.3255 279.102 67.3284 279.023C67.3371 278.788 66.1431 276.688 65.7947 276.346C65.5073 276.053 65.1636 276.009 61.4838 275.779L57.4912 275.522L56.7085 275.038C55.9102 274.554 55.7348 274.202 55.7711 273.215C55.7786 273.011 55.616 272.738 55.4018 272.589C55.1876 272.44 55.0238 272.198 55.0284 272.073C55.0336 271.932 54.8257 271.61 54.5685 271.35C54.1748 270.959 54.0906 270.689 53.9574 269.617C53.8579 268.907 53.7097 268.242 53.6192 268.145C53.287 267.787 53.4807 267.214 54.216 266.425C56.2902 264.225 57.2912 263.038 57.5308 262.497C57.8394 261.787 57.9566 261.587 59.8453 258.455C61.2002 256.182 61.9986 254.956 62.775 253.901C62.9561 253.673 63.0907 253.426 63.0941 253.332C63.1114 252.862 65.578 248.527 66.3997 247.521L66.81 247.034L68.9639 248.212C77.8406 253.074 87.7398 257.033 97.625 259.656C99.3346 260.111 101.045 260.551 101.434 260.644L102.134 260.81L102.121 263.305C102.117 264.686 102.056 265.924 101.988 266.063C101.92 266.202 101.767 266.949 101.645 267.698C101.523 268.463 101.401 269.227 101.363 269.398C101.325 269.57 101.227 270.1 101.147 270.568C100.966 271.644 100.676 272.277 100.037 273.007C99.4803 273.645 98.5283 275.635 98.5081 276.183C98.5012 276.371 98.3968 276.65 98.265 276.818C98.149 276.986 97.9674 277.654 97.8968 278.295C97.7004 279.795 97.4366 280.994 97.106 281.876C96.8461 282.541 96.8438 282.604 97.1795 283.291L97.5454 284.011L99.5632 284.195C105.445 284.725 109.22 284.927 116.622 285.089C121.107 285.191 125.531 285.229 126.459 285.169C128.222 285.045 129.268 284.77 129.281 284.409C129.285 284.299 129.436 284.023 129.616 283.825L129.929 283.444L128.913 282.042C128.361 281.268 127.744 280.523 127.561 280.391C127.317 280.194 126.63 280.09 124.846 279.961C122.967 279.83 122.343 279.728 121.897 279.492C121.59 279.308 121.063 279.116 120.736 279.041C120.409 278.982 120.038 278.827 119.916 278.729C119.795 278.614 119.503 278.431 119.272 278.313C118.734 278.01 117.374 276.579 117.112 276.02C116.996 275.78 116.424 275.1 115.834 274.514C115.258 273.943 114.776 273.407 114.778 273.345C114.78 273.282 114.574 272.929 114.336 272.559C114.083 272.174 113.797 271.441 113.691 270.888C113.586 270.35 113.361 269.62 113.201 269.285C112.94 268.71 112.928 268.6 113.146 268.215C113.28 267.985 113.481 267.207 113.603 266.474C113.724 265.741 113.966 264.699 114.128 264.14C114.516 262.961 114.043 263.038 118.2 263.505C121.811 263.92 132.421 264.326 136.067 264.193C147.996 263.737 158.51 262.052 169.377 258.89C191.969 252.297 211.947 239.958 228.75 222.214C234.465 216.177 241.181 207.243 245.614 199.794C246.786 197.813 249.291 193.275 250.004 191.826C256.7 178.308 260.841 165.136 262.891 150.804C264.226 141.389 264.552 131.247 263.791 121.645C262.608 106.44 258.792 91.5627 252.55 77.8047C249.675 71.4681 247.281 67.0173 243.675 61.3442C239.745 55.1261 236.153 50.3795 230.877 44.4884C222.737 35.353 214.556 28.225 204.857 21.8256C190.623 12.4189 174.729 5.88602 157.966 2.55448C149.754 0.934111 139.982 -0.0531406 132.525 0.00221173L132.522 0.00153549ZM145.339 16.3558C146.119 16.4787 147.244 16.6299 147.838 16.6988C151.37 17.1112 157.524 18.3264 161.705 19.4375C162.653 19.6921 163.524 19.9125 163.648 19.9484C163.772 19.9844 164.192 20.1097 164.579 20.2338C164.967 20.3579 165.386 20.4832 165.511 20.5192C165.837 20.5939 168.304 21.3752 169.855 21.8874C171.622 22.4704 175.864 24.0546 176.435 24.3423C176.697 24.4619 177.16 24.6672 177.47 24.7728C177.796 24.879 178.088 25.0466 178.132 25.1267C178.192 25.2074 178.331 25.2753 178.472 25.2805C179.083 25.303 187.977 29.695 189.154 30.5544C189.368 30.7035 189.568 30.8207 189.615 30.8225C189.663 30.8085 190.109 31.0603 190.615 31.3772C191.121 31.694 191.705 32.0294 191.922 32.1158C192.138 32.2022 192.492 32.4036 192.721 32.569C192.934 32.7495 193.149 32.8829 193.196 32.8846C193.384 32.8915 196.617 35.0351 199.248 36.9053C199.477 37.0707 199.769 37.2541 199.892 37.3057C200.015 37.373 200.412 37.6701 200.762 37.9811C201.112 38.2765 201.448 38.5243 201.511 38.5266C201.574 38.5289 201.909 38.7924 202.274 39.104C202.624 39.415 202.959 39.6785 203.022 39.6808C203.085 39.6831 203.466 39.9796 203.861 40.3395C204.256 40.6992 204.637 40.9958 204.7 40.9981C204.763 41.0004 205.174 41.3294 205.599 41.7374C206.039 42.146 206.451 42.475 206.529 42.4778C206.592 42.4802 207.064 42.8742 207.564 43.3478C208.081 43.8062 208.689 44.3465 208.918 44.5276C211.722 46.7965 218.935 54.2187 221.772 57.7443C222.327 58.4395 223.317 59.6688 223.978 60.4934C224.654 61.3031 225.192 62.0291 225.191 62.076C225.188 62.1387 225.592 62.6716 226.088 63.2705C226.584 63.8695 226.988 64.4179 226.985 64.4963C226.983 64.559 227.28 65.0093 227.655 65.4783C228.031 65.9316 228.329 66.3663 228.326 66.4447C228.324 66.5074 228.637 66.9426 229.012 67.4115C229.387 67.8962 229.639 68.2821 229.577 68.2798C229.514 68.2775 229.602 68.4377 229.768 68.6322C229.933 68.8422 230.26 69.3251 230.497 69.7261C230.749 70.1278 231.193 70.8347 231.491 71.285C231.788 71.7511 232.038 72.1841 232.037 72.2311C232.034 72.2938 232.196 72.5823 232.405 72.8725C232.614 73.1626 232.777 73.4355 232.776 73.4668C232.774 73.5138 233.144 74.1395 233.588 74.8621C234.032 75.5847 234.401 76.2103 234.4 76.2574C234.398 76.3044 234.647 76.7844 234.957 77.3293C235.472 78.2587 235.735 78.7705 236.713 80.784C237.457 82.3181 239.794 87.4733 239.791 87.5674C239.789 87.6143 239.932 87.9963 240.089 88.4101C240.564 89.5733 240.896 90.3859 241.124 90.9907C241.239 91.2931 241.44 91.8028 241.569 92.1371C241.698 92.4557 241.796 92.7889 241.792 92.8986C241.788 93.0083 241.872 93.2782 241.989 93.5023C242.34 94.2214 242.639 95.0328 242.917 96.0161C243.055 96.5391 243.433 97.7772 243.741 98.7773C244.05 99.7774 244.465 101.284 244.67 102.107C244.876 102.931 245.152 103.961 245.261 104.405C245.386 104.833 245.51 105.308 245.521 105.434C245.532 105.56 245.719 106.446 245.935 107.412C246.407 109.501 247.283 114.273 247.345 115.154C247.379 115.5 247.454 116.037 247.521 116.337C247.589 116.638 247.677 117.238 247.708 117.678C247.739 118.103 247.821 118.859 247.882 119.332C247.943 119.806 248.026 120.546 248.057 120.987C248.088 121.412 248.148 122.34 248.217 123.033C248.565 127.221 248.672 131.996 248.51 136.384C248.383 139.848 248.24 141.6 247.757 145.773C247.688 146.367 247.592 147.29 247.541 147.805C247.491 148.322 247.348 149.227 247.231 149.834C247.115 150.426 246.99 151.269 246.927 151.706C246.792 152.8 246.039 156.649 245.94 156.787C245.906 156.848 245.81 157.316 245.745 157.815C245.664 158.315 245.566 158.829 245.483 158.951C245.416 159.075 245.27 159.634 245.139 160.194C244.932 161.144 244.604 162.388 244.189 163.848C244.098 164.19 243.988 164.609 243.951 164.781C243.897 164.951 243.699 165.65 243.485 166.333C243.256 167.015 242.936 168.055 242.756 168.66C242.578 169.25 242.35 169.885 242.266 170.055C242.181 170.224 241.954 170.844 241.759 171.449C241.282 172.906 240.189 175.723 239.989 176.045C239.889 176.198 239.82 176.384 239.816 176.478C239.808 176.698 237.856 181.13 237.247 182.316C236.961 182.855 236.739 183.334 236.738 183.38C236.736 183.428 236.515 183.89 236.244 184.414C235.975 184.922 235.704 185.461 235.652 185.585C235.6 185.709 235.483 185.924 235.4 186.046C235.317 186.169 234.762 187.169 234.156 188.276C232.743 190.861 231.837 192.444 231.022 193.685C230.657 194.237 230.357 194.713 230.356 194.744C230.355 194.775 230.022 195.281 229.608 195.878C229.193 196.475 228.861 196.98 228.859 197.027C228.857 197.09 227.515 199.003 226.855 199.889C226.674 200.117 226.54 200.348 226.538 200.411C226.536 200.458 226.321 200.763 226.042 201.083C225.779 201.403 225.548 201.708 225.546 201.771C225.544 201.834 225.246 202.246 224.885 202.673C223.606 204.164 222.915 205.033 222.911 205.143C222.909 205.19 222.516 205.646 222.057 206.163C221.584 206.663 221.125 207.195 221.025 207.349C220.758 207.778 219.334 209.374 217.752 210.995C216.952 211.829 216.119 212.724 215.905 212.999C215.69 213.274 214.648 214.302 213.591 215.299C212.519 216.296 211.638 217.205 211.634 217.315C211.63 217.424 211.5 217.545 211.356 217.603C211.198 217.644 210.194 218.486 209.122 219.467C208.05 220.447 206.948 221.396 206.658 221.589C206.369 221.782 205.415 222.532 204.524 223.284C202.533 224.937 200.529 226.511 200.388 226.506C200.341 226.504 199.841 226.863 199.277 227.281C198.114 228.18 196.777 229.089 196.523 229.173C196.444 229.202 196.186 229.381 195.96 229.561C195.376 230.057 193.899 230.976 193.711 230.969C193.632 230.966 193.551 231.042 193.548 231.12C193.545 231.214 193.383 231.349 193.191 231.436C192.714 231.623 192.297 231.859 191.67 232.259C191.396 232.453 191.124 232.6 191.061 232.598C191.014 232.596 190.726 232.758 190.435 232.967C190.145 233.176 189.825 233.337 189.747 233.334C189.653 233.331 189.493 233.419 189.394 233.541C189.28 233.662 188.974 233.871 188.687 234.002C188.399 234.132 187.919 234.381 187.583 234.557C186.638 235.088 184.478 236.217 183.054 236.933C182.062 237.446 180.323 238.23 178.745 238.894C177.963 239.226 176.624 239.804 175.794 240.166C174.965 240.528 174.2 240.845 174.105 240.857C173.916 240.882 172.865 241.283 172.418 241.502C172.258 241.574 172.068 241.63 171.974 241.627C171.88 241.623 171.515 241.735 171.132 241.894C170.081 242.31 167.968 243.017 167.446 243.108C167.193 243.161 166.828 243.289 166.652 243.377C166.347 243.554 164.904 243.972 162.131 244.67C161.387 244.863 160.388 245.14 159.912 245.279C159.039 245.53 157.25 245.95 156.667 246.023C156.493 246.048 156.067 246.126 155.719 246.208C155.37 246.289 154.88 246.381 154.628 246.403C154.376 246.425 153.949 246.519 153.664 246.603C153.378 246.687 152.951 246.765 152.699 246.803C152.447 246.825 150.995 247.054 149.479 247.297C146.243 247.805 140.397 248.438 139.237 248.411C138.923 248.399 137.76 248.451 135.071 248.587C130.117 248.86 118.17 248.123 117.971 247.55C117.901 247.312 118.27 244.956 118.542 243.977C118.633 243.635 118.878 242.514 119.088 241.486C119.648 238.635 120.217 235.988 120.525 234.869C120.671 234.309 120.908 233.407 121.054 232.848C121.184 232.288 121.503 231.311 121.73 230.676C122.236 229.297 122.484 227.69 122.382 226.603C122.312 225.957 122.035 225.382 120.894 223.535C120.124 222.283 119.385 221.047 119.269 220.791C119.138 220.52 118.736 219.909 118.347 219.392C117.419 218.165 115.695 215.544 114.973 214.277C114.664 213.716 114.117 212.802 113.776 212.24C113.435 211.694 112.994 210.893 112.806 210.462C112.601 210.046 112.306 209.549 112.123 209.385C111.942 209.206 111.808 209.013 111.811 208.919C111.817 208.762 110.842 207.094 110.32 206.353C110.141 206.095 109.876 205.63 109.715 205.31C109.57 204.991 109.273 204.541 109.061 204.313C108.669 203.891 107.069 201.289 107.077 201.086C107.08 201.007 106.738 200.477 106.336 199.897C105.918 199.301 105.386 198.402 105.169 197.908C104.936 197.413 104.43 196.672 104.052 196.282C103.675 195.875 103.362 195.409 103.368 195.236C103.359 195.063 103.28 194.668 103.181 194.366C103.066 194.064 102.84 193.381 102.671 192.857C102.502 192.332 102.272 191.775 102.136 191.628C101.956 191.402 101.948 191.182 102.143 190.138C102.298 189.343 102.37 188.231 102.356 186.913L102.32 184.918L102.958 184.219C103.643 183.507 104.111 182.3 103.963 181.635C103.923 181.43 103.652 181.122 103.36 180.954C103.068 180.786 102.795 180.525 102.753 180.398C102.711 180.255 102.594 180.031 102.49 179.871C102.356 179.662 102.378 179.49 102.616 178.996C102.87 178.503 102.938 177.91 103.037 175.669C103.163 173.1 103.155 172.88 102.801 171.831C101.574 168.066 101.562 167.971 101.585 164.363L101.597 161.036L102.13 161.055C102.428 161.066 103.64 161.394 104.834 161.798C108.68 163.054 108.773 163.073 112.313 163.282C115.508 163.462 120.595 163.414 122.204 163.191C122.645 163.144 124.017 162.975 125.277 162.849C129.436 162.421 134.201 161.733 135.153 161.438C136.186 161.1 137.496 160.473 138.047 160.007C138.645 159.526 139.707 159.236 140.298 159.383C140.516 159.423 141.663 159.402 142.827 159.319C144.889 159.16 145.016 159.133 147.421 158.186C148.775 157.639 150.16 157.109 150.493 157.012L151.096 156.83L163.611 170.301L165.757 168.293L167.917 166.301L153.742 151.042C139.671 135.897 139.566 135.783 139.755 135.335C140.835 132.848 140.466 129.225 138.946 127.458C138.765 127.263 138.557 126.942 138.47 126.75C138.383 126.543 138.126 126.267 137.896 126.133C137.682 125.984 137.209 125.621 136.874 125.326C136.525 125.015 136.249 124.817 136.247 124.879C136.245 124.942 136.151 124.923 136.061 124.825C135.695 124.514 133.943 123.932 133.254 123.906C132.862 123.892 132.489 123.784 132.399 123.671C132.324 123.574 132.217 123.083 132.187 122.611C132.142 122.139 132.019 121.208 131.933 120.562C131.831 119.915 131.722 119.047 131.689 118.654C131.673 118.245 131.547 117.393 131.445 116.761C131.328 116.114 131.216 115.309 131.197 114.963C131.179 114.617 131.108 113.971 131.03 113.544C130.967 113.103 130.885 112.362 130.839 111.89C130.81 111.418 130.708 110.77 130.641 110.454C130.574 110.138 130.502 109.554 130.485 109.146C130.453 108.752 130.344 107.869 130.243 107.191C130.126 106.527 130.016 105.691 129.997 105.345C129.963 104.999 129.853 104.147 129.753 103.453C129.653 102.759 129.466 101.449 129.374 100.536C129.266 99.6213 129.095 98.3124 129.01 97.6187C128.91 96.9244 128.714 95.4263 128.583 94.3071C128.436 93.1717 128.255 91.6898 128.155 90.9956C128.055 90.3013 127.897 89.0556 127.802 88.236C127.69 87.4158 127.521 86.0598 127.409 85.2396C127.298 84.4195 127.191 83.4896 127.171 83.1906C127.135 82.8911 127.037 82.1342 126.934 81.534C126.831 80.9181 126.734 80.1298 126.701 79.7676C126.667 79.4054 126.599 78.6966 126.523 78.1916C126.202 75.8256 126.007 74.2961 125.954 73.6033C125.922 73.1941 125.81 72.3896 125.706 71.805C125.619 71.2054 125.51 70.3225 125.465 69.8344C125.436 69.3311 125.375 68.8737 125.346 68.8099C125.286 68.7292 124.863 65.2922 124.737 64.0321C124.715 63.7645 124.605 62.913 124.508 62.1404C124.396 61.3515 124.213 59.9322 124.075 58.9854C123.953 58.0236 123.778 56.8244 123.718 56.3043C123.643 55.7837 123.536 54.8537 123.465 54.239C123.408 53.6405 123.284 52.757 123.206 52.2991L123.065 51.4621L122.168 51.5233C121.68 51.5681 121.017 51.6536 120.669 51.7349L120.068 51.8698L120.135 52.6099C120.182 53.0196 120.352 54.3756 120.525 55.6376C120.809 57.7511 120.917 58.634 121.365 62.2604C121.463 63.0016 121.622 64.2317 121.734 65.0205C121.831 65.793 121.941 66.6446 121.963 66.9122C121.969 67.1636 122.079 68.0152 122.191 68.804C122.304 69.5772 122.474 70.9332 122.583 71.8004C122.693 72.6676 122.864 73.9766 122.963 74.7178C123.061 75.4591 123.168 76.3734 123.201 76.7669C123.218 77.1599 123.33 77.9645 123.433 78.5803C123.536 79.1804 123.647 80.0007 123.68 80.3943C123.712 80.7878 123.799 81.4188 123.863 81.8135C123.927 82.2082 123.998 82.8229 124.033 83.1695C124.1 83.9095 124.256 85.2022 124.606 87.6478C124.729 88.5626 124.851 89.5087 124.888 89.777C124.911 90.0289 125.104 91.5897 125.31 93.2452C125.517 94.885 125.77 96.9503 125.88 97.8177C125.989 98.6849 126.148 99.915 126.25 100.546C126.353 101.162 126.448 101.982 126.482 102.36C126.515 102.722 126.624 103.621 126.722 104.362C126.82 105.103 126.992 106.412 127.101 107.279C127.21 108.147 127.369 109.392 127.47 110.039C127.572 110.687 127.666 111.538 127.699 111.931C127.732 112.325 127.842 113.176 127.943 113.823C128.029 114.47 128.202 115.748 128.31 116.662C128.485 118.285 128.657 119.594 129.04 122.417C129.137 123.19 129.22 123.915 129.216 124.025C129.213 124.119 128.763 124.401 128.204 124.647C126.721 125.298 125.436 126.507 124.514 128.105L124.08 128.827L117.593 128.541C105.387 127.998 95.7357 127.533 94.9543 127.442C94.5323 127.395 93.5147 127.326 92.731 127.297C91.6815 127.243 91.2757 127.181 91.2815 127.024C91.2849 126.93 91.0503 126.482 90.7681 126.048C90.1589 125.115 90.1274 124.69 90.6451 124.27C91.229 123.758 91.6255 123.647 92.852 123.582C94.1569 123.52 94.6039 123.317 94.974 122.64C95.191 122.287 95.2148 122.068 95.1038 121.672C95.0358 121.387 94.9136 120.44 94.8368 119.543L94.7081 117.922L95.278 117.362C95.603 117.06 95.9645 116.618 96.0992 116.372C96.2175 116.141 96.5739 115.84 96.8774 115.694C97.3719 115.477 97.4387 115.37 97.5076 114.776C97.5742 114.245 97.4499 113.785 96.9149 112.541C96.2661 110.979 96.2661 110.979 96.5254 110.33C96.6641 109.974 96.8485 109.227 96.9157 108.68C97.0443 107.743 97.0327 107.633 96.5204 106.625C96.2277 106.05 95.9977 105.476 96.0017 105.367C96.0064 105.241 95.7194 104.509 95.3564 103.711C94.9928 102.928 94.7064 102.18 94.711 102.055C94.7156 101.929 95.0464 101.471 95.455 101.03C96.73 99.6491 97.0606 98.7667 96.6703 97.8577C96.3084 97.0283 95.9717 96.7962 94.7259 96.5306C94.1035 96.3822 93.1404 96.1114 92.5825 95.9182C90.6 95.2018 88.7789 94.7895 86.7 94.5561C85.543 94.435 84.5434 94.3042 84.4824 94.2548C84.299 94.1225 82.3209 94.9914 81.2448 95.6581C79.6226 96.6656 77.5188 98.3931 76.6339 99.4121C76.1743 99.9603 75.4947 100.94 75.1257 101.585L74.4706 102.754L74.5449 104.577C74.5869 105.568 74.6486 106.449 74.6777 106.513C74.7218 106.593 74.7898 106.878 74.8102 107.177C74.8462 107.476 74.9369 107.997 75.0183 108.346C75.1153 108.695 75.2194 109.279 75.2683 109.658C75.3171 110.036 75.4443 110.417 75.5349 110.515C75.6406 110.629 75.7109 110.851 75.704 111.039C75.6976 111.211 75.7813 111.497 75.9004 111.674C76.0037 111.85 76.2024 112.423 76.3401 112.946C76.4621 113.468 76.6881 114.151 76.8339 114.455C77.5622 115.988 77.7166 118.191 77.2359 120.167C77.0689 120.867 76.8741 121.896 76.7906 122.458C76.7072 123.02 76.4943 123.687 76.2953 123.978C76.1125 124.253 75.7441 124.883 75.4743 125.391C75.0351 126.238 74.9382 126.313 74.4831 126.312C74.2009 126.302 71.0976 126.188 67.5876 126.043L61.1936 125.792L61.0728 128.22C61.0076 129.567 60.9458 130.821 60.9389 131.009L60.91 131.369L64.5114 131.595C66.4996 131.731 68.9429 131.868 69.9611 131.921L71.8257 132.006L71.4097 132.65C71.192 133.018 70.8364 133.727 70.6293 134.237C70.4222 134.748 69.9992 135.58 69.6824 136.086C68.747 137.621 68.4129 138.597 68.1557 140.471C67.965 141.814 67.9316 142.723 68.0202 144.155C68.1514 146.561 68.3496 147.572 69.3954 151.142C70.0072 153.284 70.3795 154.255 70.8528 155.041C71.7269 156.454 72.2954 157.637 72.6737 158.875C72.8567 159.446 73.0855 160.051 73.1733 160.227C73.2766 160.404 73.4712 161.086 73.6043 161.734C74.1745 164.58 74.4022 165.216 75.8698 167.985C76.3536 168.913 76.6976 170.229 76.8431 171.819C76.9223 172.654 77.1319 172.928 78.566 174.048C79.1303 174.493 79.2784 174.734 79.4127 175.351C79.5068 175.778 79.6027 176.158 79.648 176.207C79.6938 176.24 79.6225 176.473 79.5047 176.688C79.3712 176.903 79.1752 177.539 79.0605 178.1C78.8506 179.112 78.7027 179.719 77.9458 182.375C77.7138 183.135 77.4772 184.021 77.3873 184.332C77.2974 184.642 76.9121 185.303 76.5477 185.823C76.1676 186.343 75.7957 187.067 75.7035 187.44C75.6275 187.798 75.5066 191.514 75.431 195.701C75.3555 199.889 75.2416 203.84 75.1552 204.481C75.0005 205.699 74.8619 206.055 73.796 207.726C73.4461 208.279 72.7759 209.431 72.2735 210.291C71.7867 211.152 71.2012 212.135 70.969 212.472C70.7369 212.809 70.5339 213.209 70.5287 213.35C70.5235 213.491 70.3675 213.894 70.1974 214.248C70.0118 214.603 69.7037 215.298 69.5123 215.808C68.7623 217.852 68.0968 219.303 67.0333 221.336C66.4101 222.49 65.7104 224.018 65.45 224.699C65.2052 225.381 64.8774 226.185 64.7254 226.477L64.4387 227.016L63.7984 226.506C63.4471 226.242 63.1104 226.01 63.0477 226.008C62.985 226.005 62.6192 225.709 62.2243 225.35C61.8295 224.99 61.448 224.693 61.3854 224.691C61.3227 224.689 60.9871 224.425 60.6219 224.114C60.2724 223.802 59.9211 223.538 59.8584 223.536C59.7957 223.534 59.3841 223.205 58.944 222.796C58.5195 222.388 58.1078 222.059 58.0452 222.057C57.9825 222.055 57.4646 221.628 56.8874 221.104C56.3254 220.597 55.5648 219.941 55.2135 219.677C54.8628 219.397 54.3159 218.906 53.9989 218.565C53.6812 218.24 53.3619 217.961 53.2992 217.959C53.2209 217.956 52.7203 217.482 52.1926 216.898C51.6648 216.313 51.1486 215.839 51.0545 215.836C50.8664 215.829 42.6676 207.037 42.6748 206.848C42.6777 206.77 42.0023 205.929 41.1737 204.988C40.3457 204.032 39.671 203.175 39.6744 203.081C39.6773 203.003 39.4381 202.68 39.1512 202.371C38.8644 202.063 38.6245 201.756 38.6274 201.677C38.6303 201.599 38.2569 201.083 37.8069 200.517C37.3563 199.967 36.9829 199.451 36.9852 199.388C36.9875 199.325 36.6896 198.891 36.3139 198.438C35.9388 197.969 35.6415 197.518 35.6438 197.455C35.6461 197.393 35.3784 196.991 35.0486 196.57C34.7187 196.15 34.451 195.748 34.4534 195.685C34.4557 195.623 34.2327 195.285 33.9638 194.914C33.6949 194.543 33.2345 193.836 32.9696 193.355C32.6891 192.874 32.3192 192.264 32.1241 192.021C31.9446 191.779 31.6798 191.299 31.5346 190.979C31.4051 190.661 31.1106 190.132 30.9022 189.826C30.678 189.52 30.354 188.943 30.1489 188.543C29.9596 188.144 29.7244 187.711 29.6349 187.582C29.5298 187.453 29.3092 187.052 29.1338 186.701C28.9427 186.348 28.65 185.773 28.4746 185.421C26.8049 182.173 24.7169 177.498 23.4708 174.25C22.9137 172.755 22.3543 171.322 22.2393 171.035C22.1237 170.764 22.0412 170.447 22.0458 170.322C22.0504 170.196 21.9935 170.037 21.918 169.956C21.7531 169.746 21.3865 168.618 20.2559 164.794C19.2659 161.415 18.9794 160.243 18.1123 156.083C17.5648 153.474 17.434 152.763 16.8584 149.21C16.4073 146.541 16.1198 143.69 15.7416 138.183C15.5873 135.98 15.6065 134.176 15.84 127.828C16.1242 120.101 16.2493 118.834 17.0827 113.67C17.2039 112.937 17.347 112.032 17.3928 111.641C17.4542 111.251 17.591 110.519 17.7041 110.005C17.8171 109.491 17.9348 108.852 17.9754 108.602C18.0646 107.884 19.4174 102.252 19.7196 101.29C20.0201 100.375 20.4701 98.8067 20.5472 98.4172C20.6023 98.1995 20.7456 97.7182 20.8854 97.331C21.0942 96.7736 21.5531 95.3937 22.2607 93.2225C22.2955 93.1296 22.4701 92.6495 22.6459 92.1381C22.8216 91.6266 22.9811 91.1303 23.0154 91.0531C23.0345 90.9596 23.1546 90.6815 23.2735 90.4347C23.3774 90.1718 23.4975 89.8937 23.5317 89.8164C23.7631 89.0717 26.1852 83.3854 26.6581 82.4764C26.8101 82.1838 26.9458 81.9063 26.9632 81.8598C27.0201 81.5951 28.7775 78.1912 30.0563 75.8525C31.3183 73.5447 31.5689 73.1302 31.8974 72.7342C32.0279 72.5977 32.0796 72.474 32.0326 72.4723C31.9699 72.47 32.1544 72.1472 32.4207 71.7333C32.7021 71.3356 33.0358 70.7985 33.1704 70.5524C33.3056 70.2906 33.5888 69.8459 33.7884 69.5393C34.0036 69.2333 34.6188 68.2986 35.1514 67.4707C35.7003 66.6277 36.3137 65.7399 36.5272 65.481C36.7251 65.2214 36.9073 64.9614 36.9102 64.883C36.9125 64.8203 37.1435 64.5149 37.4063 64.195C37.6849 63.8756 37.9002 63.5697 37.9025 63.507C37.9048 63.4443 38.1682 63.1087 38.4792 62.7592C38.7909 62.3939 39.0543 62.0583 39.0566 61.9956C39.0589 61.9329 39.323 61.5817 39.634 61.2321C39.9457 60.867 40.2091 60.5314 40.212 60.453C40.2143 60.3903 40.5915 59.949 41.0331 59.463C41.4748 58.9771 41.852 58.5358 41.8549 58.4575C41.8572 58.3948 42.2344 57.9535 42.676 57.4675C43.1333 56.9821 43.4949 56.5402 43.4977 56.4619C43.5006 56.3835 43.6973 56.1554 43.9248 55.944C44.1674 55.7489 44.5278 55.3384 44.7268 55.0475C44.9416 54.7572 45.6286 53.9977 46.2647 53.3463C46.9001 52.7106 47.4242 52.1177 47.4283 52.008C47.4363 51.7886 58.2586 41.7339 58.4784 41.7421C58.5724 41.7455 59.3304 41.1927 60.1719 40.5017C61.0129 39.8264 61.9989 39.0466 62.3855 38.7782C62.772 38.5099 63.5625 37.9269 64.144 37.4774C64.7255 37.028 65.2728 36.6558 65.3355 36.6581C65.3982 36.6604 65.8004 36.3926 66.2368 36.0477C66.6732 35.7028 67.2693 35.2853 67.5584 35.1075C67.8317 34.9293 68.4423 34.5437 68.8764 34.2615C71.0958 32.805 71.8347 32.3457 71.9131 32.3486C71.9601 32.3503 72.4413 32.0698 73.0036 31.7138C73.8871 31.1657 75.7779 30.1052 76.738 29.6069C77.8094 29.0655 78.3695 28.7723 78.5634 28.6225C78.6765 28.5325 79.2849 28.2095 79.9233 27.9192C84.9217 25.5763 86.31 24.9525 87.2819 24.5645C87.903 24.3205 88.8589 23.9319 89.4323 23.7018C91.6629 22.7951 91.9972 22.6662 94.6026 21.8047C95.2219 21.6078 95.8581 21.38 96.0334 21.308C96.3207 21.1773 100.78 19.8347 101.35 19.6987C101.477 19.6719 102.475 19.4261 103.568 19.1525C105.801 18.5912 106.514 18.4133 106.972 18.336C107.145 18.311 107.573 18.2169 107.921 18.1354C108.269 18.0541 108.839 17.9338 109.186 17.8681C109.533 17.8181 110.608 17.6222 111.556 17.4374C112.52 17.2531 113.657 17.0752 114.083 17.0281C114.524 16.9815 115.139 16.8943 115.471 16.828C115.804 16.7461 116.34 16.6716 116.655 16.6362C116.97 16.6163 117.837 16.507 118.578 16.4087C121.496 16.0295 128.166 15.6 130.848 15.6359C134.222 15.6658 143.981 16.1659 145.34 16.3572L145.339 16.3558ZM111.036 133.998C115.438 134.207 120.108 134.41 121.424 134.458L123.822 134.562L123.963 134.991C124.331 136.087 124.804 136.874 125.634 137.783C126.132 138.32 126.678 138.826 126.848 138.911C127.033 138.996 127.447 139.247 127.801 139.448C128.415 139.832 129.716 140.288 130.853 140.533C131.351 140.63 131.427 140.711 131.414 141.072C131.405 141.307 131.452 141.748 131.519 142.049C131.602 142.35 131.674 142.949 131.705 143.39C131.737 143.815 131.905 145.202 132.079 146.464C132.435 149.161 132.435 149.145 132.137 149.134C132.012 149.129 131.9 149.188 131.897 149.282C131.894 149.361 131.701 149.479 131.464 149.517C131.211 149.571 130.94 149.671 130.828 149.745C130.49 149.984 129.74 149.893 129.016 149.506C128.616 149.303 127.731 149.019 127.015 148.867C126.174 148.695 125.352 148.414 124.645 148.011C123.414 147.338 121.357 146.525 119.556 145.988C118.873 145.79 118.131 145.48 117.902 145.299C117.673 145.134 117.086 144.877 116.573 144.732C116.06 144.604 115.472 144.378 115.274 144.229C115.074 144.096 114.423 143.884 113.831 143.768C113.254 143.668 112.65 143.458 112.513 143.327C112.377 143.197 111.885 142.912 111.407 142.675C110.929 142.437 110.499 142.186 110.455 142.106C110.411 142.026 109.92 141.71 109.367 141.391C108.813 141.088 107.881 140.395 107.305 139.84C106.107 138.713 105.482 138.203 103.082 136.452C100.21 134.337 99.218 133.563 99.2069 133.437C99.2098 133.358 100.072 133.374 101.136 133.476C102.184 133.562 106.649 133.805 111.036 133.998ZM140.536 145.676C139.583 146.41 137.866 147.43 136.926 147.819C135.618 148.367 135.382 148.406 135.393 148.108C135.396 148.014 135.315 147.242 135.219 146.422C135.108 145.602 134.976 144.499 134.917 143.979C134.857 143.458 134.721 142.465 134.621 141.786C134.42 140.413 134.477 140.149 134.97 139.978C135.256 139.879 135.666 140.255 137.976 142.726C139.456 144.302 140.6 145.632 140.536 145.676ZM91.1663 212.524C91.4717 212.755 91.7289 213.015 91.7261 213.094C91.7191 213.282 92.1994 213.88 93.5262 215.357C94.1446 216.039 95.0916 217.173 95.6317 217.852C96.1711 218.547 97.4521 219.99 98.4635 221.079C99.4907 222.169 100.684 223.437 101.107 223.892C101.787 224.607 103.335 225.606 103.805 225.623C103.884 225.626 104.021 225.725 104.08 225.837C104.139 225.949 104.366 226.162 104.581 226.295C104.887 226.51 104.987 226.765 105.083 227.569C105.204 228.547 105.218 228.594 105.864 228.948C106.234 229.15 106.633 229.4 106.755 229.498C107.058 229.776 106.967 231.829 106.637 232.256C106.505 232.44 106.273 233.2 106.104 233.963C105.763 235.551 105.58 236.251 105.092 237.991C104.624 239.637 104.375 240.868 104.071 243.132C103.772 245.303 103.869 245.228 102.099 244.692C101.51 244.513 100.996 244.385 100.934 244.382C100.886 244.396 100.544 244.305 100.156 244.181C99.7686 244.057 99.3187 243.915 99.1468 243.893C98.9756 243.855 98.4949 243.696 98.0612 243.539C97.6426 243.398 97.2706 243.275 97.2386 243.289C97.1911 243.303 96.5397 243.091 93.5644 242.055C92.7122 241.757 91.9052 241.508 91.7641 241.503C91.6388 241.498 91.4686 241.429 91.3932 241.348C91.302 241.266 90.2663 240.836 89.0739 240.399C87.882 239.947 86.7366 239.513 86.5206 239.411C86.3047 239.309 85.9349 239.122 85.6724 239.003C85.4257 238.884 84.484 238.457 83.5882 238.063C82.693 237.653 81.5203 237.108 80.9658 236.821C80.4114 236.534 79.9336 236.296 79.8872 236.279C79.3137 236.085 77.5749 235.142 77.486 234.998C77.4569 234.934 77.6466 234.47 77.9159 233.978C78.1851 233.486 78.5877 232.778 78.7903 232.393C78.9922 232.024 79.4935 231.195 79.9089 230.567C80.3244 229.939 80.9459 228.832 81.2864 228.107C82.0169 226.595 83.4459 224.011 83.8742 223.462C84.0227 223.263 84.2275 222.816 84.3342 222.474C84.441 222.133 84.6278 221.747 84.7578 221.627C85.0195 221.338 87.2412 217.261 87.4343 216.703C87.5051 216.486 87.7726 216.04 88.0047 215.704C88.2525 215.368 88.7027 214.646 89.0056 214.093C89.6096 213.032 90.2874 212.099 90.4755 212.106C90.5382 212.109 90.8453 212.293 91.1663 212.524Z" fill="black"/>
<path d="M134.534 23.8378C134.418 24.0219 133.503 47.6086 133.609 47.7067C133.746 47.8216 136.751 48.0576 137.507 47.9913L138.294 47.9261L138.704 35.919L139.099 23.9116L136.874 23.7983C135.48 23.7314 134.6 23.7461 134.534 23.8378Z" fill="black"/>
<path d="M58.8725 52.351L57.1663 53.9361L65.3941 62.792L73.6219 71.6484L75.3606 70.033L77.1156 68.4026L68.933 59.5951C64.4191 54.7364 60.7039 50.7704 60.6569 50.7686C60.6098 50.7668 59.815 51.4754 58.8725 52.351Z" fill="black"/>
<path d="M201.463 65.0491L192.688 73.2014L194.349 74.9888L196.01 76.7763L204.736 68.6693C209.546 64.2007 213.528 60.4863 213.593 60.4257C213.723 60.3049 210.662 56.9122 210.395 56.9023C210.317 56.8995 206.289 60.5655 201.463 65.0491Z" fill="black"/>
<path d="M24.0331 127.407C24.0055 128.583 23.9814 129.665 23.9919 129.806C23.9978 130.073 24.6868 130.114 36.1129 130.535L48.2284 130.98L48.2091 130.226C48.2084 129.818 48.2163 128.751 48.234 127.842L48.2789 126.195L36.1796 125.735L24.0953 125.29L24.0331 127.407Z" fill="black"/>
<path d="M223.32 133.466L216.61 133.251L216.522 135.649L216.435 138.031L228.442 138.442C235.057 138.654 240.497 138.807 240.546 138.761C240.594 138.716 240.68 137.668 240.726 136.414L240.841 134.142L238.396 134.052C237.064 134.003 234.635 133.898 232.991 133.806C231.361 133.731 227.004 133.571 223.32 133.466Z" fill="black"/>
<path d="M59.8809 195.679L51.0246 203.907L52.6556 205.646L54.2704 207.401L72.0641 190.869L70.4789 189.163C69.6033 188.221 68.8624 187.456 68.8154 187.454C68.7684 187.452 64.7559 191.15 59.8809 195.679Z" fill="black"/>
<path d="M190.049 194.033L188.343 195.618L196.617 204.508L204.874 213.412L206.499 211.902C207.393 211.072 208.126 210.33 208.13 210.236C208.133 210.158 204.452 206.114 199.938 201.256L191.756 192.448L190.049 194.033Z" fill="black"/>
<path d="M126.01 228.243L125.563 240.39L130.265 240.563L130.712 228.416L131.158 216.27L126.456 216.097L126.01 228.243Z" fill="black"/>
</svg>
