<svg width="1610" height="1367" viewBox="0 0 1610 1367" fill="none" xmlns="http://www.w3.org/2000/svg">
<path d="M173.045 411.413C151.282 391.094 138.988 362.465 131.961 333.532C124.934 304.599 122.604 274.752 117.377 245.44C112.959 220.664 106.695 193.96 117.639 171.298C123.03 160.134 132.149 151.177 138.142 140.324C145.548 126.913 147.856 111.233 154.628 97.4909C165.029 76.3859 185.474 61.3919 207.733 53.7679C229.992 46.1439 254.024 45.2359 277.502 46.7699C289.818 47.5749 302.448 49.1389 313.282 55.0519C331.578 65.0369 341.605 85.8679 344.995 106.434C350.931 142.446 340.064 178.954 327.901 213.365C315.738 247.776 301.963 282.633 301.869 319.13C301.801 345.454 308.444 373.975 295.024 396.621C287.855 408.72 275.934 417.1 264.372 425.105C255.919 430.957 246.919 437.01 236.664 437.745C211.943 439.516 194.57 410.751 173.045 411.413Z" fill="white"/>
<path d="M327.224 475.805C320.639 492.308 315.845 509.525 312.953 527.056C317.651 538.455 322.441 550.014 330.043 559.72C337.645 569.426 348.554 577.215 360.838 578.272C373.408 579.354 385.423 573.426 396.473 567.335C423.375 552.507 449.157 535.745 474.943 520.265C486.719 523.968 499.278 525.163 512.086 523.984C513.723 506.4 515.36 488.816 516.997 471.231C528.531 468.193 539.486 462.968 549.105 455.915C552.751 453.241 556.554 448.548 554.132 444.73C552.557 442.249 549.177 441.781 546.239 441.73C517.298 441.228 490.123 457.122 469.952 477.882C439.979 482.579 410.323 489.289 381.248 497.953C380.597 497.033 379.946 496.113 379.295 495.192C379.46 496.113 379.625 497.034 379.79 497.955C378.633 492.232 377.433 486.393 374.509 481.339C371.586 476.285 366.581 472.061 360.757 471.641C355.215 471.242 350.082 474.224 344.846 476.084C339.61 477.944 332.873 478.319 327.226 475.803L327.224 475.805Z" fill="white"/>
<path d="M784.731 337.489C730.108 334.186 675.004 338.942 621.755 351.556C607.936 354.829 593.928 358.658 579.768 357.578C565.608 356.498 550.937 349.373 545.194 336.385C544.652 344.67 544.111 352.955 543.569 361.239C538.274 350.508 532.979 339.776 527.685 329.045C522.252 358.583 520.465 388.79 522.377 418.763C522.377 418.763 476.243 939.577 477.785 940.287C475.803 949.205 474.051 959.373 479.382 966.791C482.587 971.252 487.813 973.797 493.021 975.545C504.024 979.237 515.954 980.132 527.385 978.122C527.385 978.122 1484.38 973.877 1484.68 973.79C1494.56 975.047 1504.93 971.657 1512.16 964.808C1519.39 957.959 1523.33 947.786 1522.61 937.854L1563.62 358.254L784.731 337.489Z" fill="white"/>
<path d="M700.381 310.541L696.046 283.817L721.899 125.664L988.797 132.54L1041.86 252.199L1070.97 39.6899L1362.6 16.7429L1471.42 125.854C1471.42 125.854 1454.28 277.01 1452.52 279.388C1416.84 325.358 1360.16 351.242 1302.84 361.252C1245.52 371.262 1186.78 367.044 1128.75 362.796C1063.1 357.989 997.439 353.182 931.784 348.375C886.893 345.088 841.565 341.723 798.5 328.628C771.936 320.551 740.77 309.497 700.381 310.541Z" fill="white"/>
<path d="M167.965 952.526C155.627 934.651 143.289 916.776 130.951 898.901C127.218 893.492 120.052 887.516 115.116 891.856C112.754 893.933 112.455 897.442 112.323 900.584C111.705 915.294 111.088 930.004 110.47 944.715C102.082 940.577 95.6061 932.736 93.1271 923.717C94.7091 937.787 96.2911 951.856 97.8721 965.926C96.7251 959.752 95.5771 953.578 94.4301 947.404C96.8551 1052.08 91.9511 1156.92 79.7671 1260.91C77.9031 1276.82 76.0071 1293.69 82.7291 1308.23C89.7431 1323.41 104.729 1333.03 118.952 1341.81C125.318 1345.74 131.839 1349.74 139.143 1351.36C146.447 1352.98 154.811 1351.82 160.105 1346.53C165.399 1341.24 166.067 1331.35 160.269 1326.62C162.733 1327.56 165.197 1328.5 167.661 1329.45C162.757 1318.55 157.854 1307.65 152.95 1296.76C156.829 1301.42 160.709 1306.08 164.588 1310.75C150.501 1299.86 142.604 1282.46 139.781 1264.88C136.958 1247.3 138.694 1229.33 140.752 1211.65C150.633 1126.71 167.819 1042.64 191.808 960.57C183.939 958.297 176.07 956.025 167.965 952.526Z" fill="white"/>
<path d="M265.816 945.604C247.872 939.366 228.327 937.797 209.618 941.091C217.861 950.435 223.162 962.336 224.595 974.713C218.45 969.278 214.598 961.329 214.14 953.138C218.671 992.269 215.952 1065.21 221.118 1121.2C226.155 1175.79 235.33 1230.6 237.785 1285.54C271.717 1296.12 298.296 1328.77 333.837 1329.14C344.713 1329.26 357.746 1323.64 358.387 1312.78C358.725 1307.05 355.337 1301.73 351.368 1297.58C334.902 1280.35 306.369 1274.67 296.91 1252.79C293.3 1244.44 293.23 1235.04 293.465 1225.94C295.646 1141.57 318.954 1057.18 306.456 973.701C305.1 964.642 303.114 955.192 297.14 948.247C291.166 941.302 279.982 938.026 265.814 945.603L265.816 945.604Z" fill="white"/>
<path d="M78.7163 471.662C62.4433 463.495 48.3533 451.026 38.2693 435.865C40.8853 440.861 41.4483 446.895 39.8033 452.289C35.0433 447.052 33.4004 439.176 35.6684 432.472C33.6514 443.195 31.6343 453.917 29.6183 464.64C29.7453 460.842 29.8714 457.044 29.9984 453.247C2.78535 550.709 21.2363 655.013 7.11534 755.213C5.27234 768.291 2.86834 781.363 2.88534 794.57C2.90234 807.777 5.52734 821.356 14.6393 829.275C15.9533 839.137 23.4873 847.89 33.0443 850.657C31.2063 845.804 29.3683 840.951 27.5303 836.098C30.5653 841.402 30.7353 847.9 33.3033 853.444C35.8713 858.988 43.0483 863.496 47.9413 859.836C53.6673 855.553 49.6203 846.538 45.2473 840.88C45.2723 853.846 54.3174 866.302 66.6404 870.338C78.9634 874.373 93.6244 869.681 101.313 859.24C108.335 849.705 109.333 837.162 110.077 825.344C112.531 786.39 114.986 747.435 117.44 708.481C101.269 727.136 88.9493 749.115 81.4743 772.645C68.4903 756.558 63.6894 735.186 63.4384 714.515C63.1874 693.844 67.0654 673.379 69.5764 652.86C76.5064 596.224 73.6553 536.183 100.084 485.613C87.7034 464.717 69.3713 447.391 47.8103 436.208C66.4173 434.864 83.8083 453.277 78.7163 471.662Z" fill="white"/>
<path d="M155.303 289.12C171.578 268.129 181.533 242.303 183.559 215.819C187.452 221.788 191.345 227.758 195.238 233.727C191.073 215.674 185.251 198.004 177.868 181.011C169.283 183.867 159.406 180.469 153.118 173.964C146.83 167.459 143.789 158.344 143.095 149.323C142.712 144.351 143.025 139.17 145.232 134.698C147.439 130.226 151.851 126.6 156.836 126.443C167.104 126.12 174.045 139.485 184.3 138.868C192.817 138.355 197.275 128.951 202.476 122.187C212.956 108.555 230.754 103.424 246.828 97.3169C262.902 91.2099 280.028 81.3479 283.945 64.6059C287.877 47.8019 276.17 30.6039 261.204 22.0109C236.737 7.96087 204.373 12.0249 181.254 28.1979C158.135 44.3699 143.701 70.9239 137.762 98.5059C134.053 115.733 133.276 133.809 126.247 149.968C117.924 169.102 101.779 183.479 88.6474 199.694C75.5154 215.909 64.7914 236.944 70.3594 257.053C74.9744 273.718 89.5224 285.408 103.25 295.923C101.946 295.94 100.642 295.958 99.3384 295.975C118.847 292.798 138.356 289.622 155.303 289.122V289.12Z" fill="#1C2421"/>
<path d="M93.035 253.593C85.287 256.121 76.818 256.398 68.921 254.382C69.489 259.51 71.467 264.474 74.581 268.587C63.877 255.776 64.451 236.423 71.351 221.222C78.251 206.021 90.364 193.93 101.896 181.859C113.428 169.788 124.639 149.91 129.786 134.03C130.905 145.982 131.726 165.043 129.96 176.916C128.194 188.79 124.014 200.502 116.508 209.87C111.012 216.729 103.889 222.17 98.569 229.167C93.249 236.163 89.874 245.693 93.036 253.594L93.035 253.593Z" fill="#1C2421"/>
<path d="M249.196 281.566C213.676 264.679 186.87 230.526 178.905 192.011C191.5 211.441 204.537 231.343 223.367 244.819C242.197 258.295 268.418 264.058 288.712 252.908C304.078 244.466 313.352 228.173 320.197 212.031C331.964 184.28 338.902 154.489 340.604 124.395C316.175 106.486 299.169 77.5079 270.532 67.6339C265.075 65.7519 259.278 64.6129 254.336 61.6299C246.048 56.6279 241.518 47.3479 237.43 38.5729C233.829 30.8449 230.309 21.4079 234.975 14.2719C238.261 9.24593 244.607 7.22893 250.553 6.39193C281.035 2.09893 311.606 20.4259 328.469 46.1789C345.331 71.9319 350.399 103.772 350.253 134.554C350.107 165.336 345.177 195.901 343.863 226.655C343.139 243.602 343.465 260.91 338.28 277.061C333.096 293.212 320.99 308.407 304.356 311.73C305.557 311.505 306.757 311.28 307.958 311.055C292.391 308.436 276.513 307.672 260.766 308.786C259.274 306.065 257.782 303.344 256.29 300.623C256.618 301.976 256.946 303.329 257.274 304.682C254.537 296.261 251.799 287.84 249.194 281.564L249.196 281.566Z" fill="#1C2421"/>
<path d="M262.907 27.2609C256.603 31.3099 248.553 31.3599 241.124 30.3899C233.695 29.4189 226.266 27.5619 218.808 28.2789C204.869 29.6199 192.38 39.8059 178.421 38.6919C177.316 38.6039 176.015 38.2909 175.63 37.2519C175.292 36.3399 175.854 35.3599 176.413 34.5629C184.308 23.3069 196.26 15.2469 209.226 10.6739C222.192 6.10093 236.151 4.85091 249.886 5.46891C256.561 5.76891 263.26 6.50992 269.662 8.42192C272.459 9.25692 275.263 10.3579 277.409 12.3369C279.555 14.3159 280.936 17.3379 280.29 20.1849C279.582 23.3079 276.612 25.5129 273.502 26.2759C270.392 27.0389 266.499 24.9539 262.908 27.2609H262.907Z" fill="#1C2421"/>
<path d="M276.31 28.7979C256.97 29.3929 237.485 23.6219 221.589 12.5889C220.586 11.8929 219.503 11.0149 219.426 9.79589C219.324 8.17289 221.015 7.07891 222.501 6.41891C240.522 -1.58409 262.604 0.363908 278.946 11.3969C283.097 14.1999 287.104 17.8909 288.169 22.7849C289.234 27.6789 285.946 33.6799 276.31 28.7969V28.7979Z" fill="#1C2421"/>
<path d="M345.009 974.649C252.859 1000.16 153.566 999.308 62.9803 972.932C59.8013 937.76 59.4863 902.33 62.0393 867.107C66.0333 869.031 70.7643 864.922 71.3423 860.527C71.9203 856.132 69.8353 851.887 68.0873 847.813C62.7833 835.455 60.1513 821.958 60.4223 808.513C61.2263 814.068 64.4143 819.56 67.8973 823.961C71.3803 828.362 76.0753 830.885 80.4513 827.372C83.8153 824.671 84.4393 819.86 84.5983 815.549C85.4203 793.251 80.4803 770.764 70.5643 751.146C76.8813 701.361 91.8633 652.687 115.164 607.561C177.116 632.115 247.212 635.572 312.511 616.482C333.566 736.774 343.906 858.94 345.009 974.651V974.649Z" fill="#1C2421"/>
<path d="M77.0913 1285.81C80.8233 1295.25 88.4023 1302.79 97.0513 1308.11C105.7 1313.43 115.426 1316.71 125.158 1319.6C129.745 1320.97 134.474 1322.26 139.244 1321.88C144.014 1321.51 148.901 1319.12 151.007 1314.83C153.418 1309.91 151.677 1304.03 149.59 1298.97C147.503 1293.91 145.039 1288.54 146.141 1283.18C152.022 1291.05 159.843 1297.22 166.773 1304.18C173.704 1311.14 179.993 1319.43 181.494 1329.14C183.443 1341.74 175.998 1355.2 164.286 1360.25C154.34 1364.54 142.969 1362.97 132.265 1361.32C121.21 1359.62 110.065 1357.9 99.5853 1354C89.1053 1350.09 79.2033 1343.79 72.8743 1334.57C72.8043 1335.52 72.7333 1336.46 72.6633 1337.4C68.4633 1321.08 68.8373 1303.61 77.0893 1285.81L77.0913 1285.81Z" fill="#1C2421"/>
<path d="M238.065 1275.22C258.279 1292.35 283.521 1302.87 309.47 1308.24C317.142 1309.83 325.349 1310.94 332.625 1308.04C339.9 1305.13 345.576 1296.85 342.98 1289.46C360.474 1298.43 377.462 1308.39 393.839 1319.27C397.088 1321.42 400.63 1324.13 400.969 1328.02C401.239 1331.1 399.257 1334.05 396.674 1335.77C394.091 1337.48 390.983 1338.19 387.938 1338.77C347.783 1346.46 305.938 1338 268.086 1322.55C269.488 1327.33 265.104 1332.29 260.21 1333.24C255.316 1334.19 250.344 1332.26 245.89 1330.02C241.437 1327.78 237.013 1325.14 232.063 1324.54C233.594 1307.65 235.125 1290.75 238.065 1275.22Z" fill="#1C2421"/>
<path d="M115.838 609.575L113.465 608.636C125.383 571.925 121.424 530.353 102.791 496.551C103.277 497.249 103.763 497.948 104.249 498.646C73.8324 499.941 43.0624 489.732 16.7544 470.736C18.5964 446.466 22.9054 422.383 29.8934 396.334C34.6684 379.15 39.7424 361.915 47.8794 346.045C56.0164 330.175 67.4664 315.594 82.6954 306.31C104.268 293.159 130.783 291.902 156.032 291.008C156.032 291.008 237.76 437.701 237.991 435.638C254.063 395.599 259.549 348.053 260.199 307.749C286.497 303.57 312.559 310.307 330.139 327.661C347.719 345.014 356.717 369.262 362.204 393.347C367.692 417.432 373.593 437.293 373.593 470.512C358.636 479.136 344.173 479.946 327.078 477.525C308.73 521.901 302.592 571.254 309.512 618.772C246.573 635.636 178.516 632.842 115.839 609.575H115.838Z" fill="#E6C2A1"/>
<path d="M186.489 341.298C209.991 350.898 237.776 349.341 260.058 337.176C258.931 354.736 257.798 372.341 254.714 389.665C251.63 406.989 246.536 424.108 237.908 439.444C220.82 407.411 203.732 375.377 186.488 341.297L186.489 341.298Z" fill="#D0D2D2"/>
<path d="M520.744 382.711C520.744 382.711 1558.86 369.189 1560.4 368.645C1562.22 368.96 1563.28 371.402 1562.26 372.948C1563.39 359.305 1565.92 345.767 1566.15 332.079C1566.39 318.391 1564.12 304.191 1556.51 292.81C1548.9 281.429 1535.11 273.513 1521.6 275.765C1521.6 275.765 578.056 285.14 580.008 284.99C562.286 283.643 542.647 288.82 532.573 303.463C525.048 314.401 524.161 328.434 523.522 341.695C522.887 354.879 522.253 368.064 520.743 382.709L520.744 382.711Z" fill="#D0D2D2"/>
<path d="M1361.38 17.5529C1354.51 56.4339 1350.12 95.7559 1348.26 135.198L1470.71 124.493L1361.38 17.5529Z" fill="#D0D2D2"/>
<path d="M262.018 260.813C256.611 260.813 251.119 260.13 245.689 258.742C229.482 254.593 213.862 244.138 201.709 229.301C192.072 217.535 184.267 202.947 177.882 184.757C169.211 186.659 161.395 185.325 155.179 180.841C149.883 177.025 145.557 171.146 142.324 163.365C139.509 156.604 136.901 146.602 140.479 137.364C143.785 128.846 153.744 121.825 163.278 124.923C167.09 126.162 170.07 128.704 172.954 131.166C175.957 133.732 178.791 136.152 182.147 136.654C185.878 137.183 190.27 135.155 193.882 131.139C195.727 129.095 197.268 126.802 198.902 124.374C200.26 122.353 201.663 120.263 203.274 118.303C212.98 106.499 227.81 101.609 242.157 96.8809L246.13 95.5659C259.698 91.0179 276.028 83.9649 281.93 69.6719C282.26 68.8739 282.973 68.2949 283.821 68.1379C284.68 67.9619 285.547 68.2649 286.141 68.8899C303.483 87.1829 322.018 104.736 341.231 121.065C341.81 121.556 342.14 122.281 342.132 123.036C341.806 151.917 334.964 182.966 322.34 212.821C316.994 225.465 309.865 239.678 297.493 249.238C287.683 256.816 275.116 260.812 262.019 260.812L262.018 260.813ZM179.53 179.162C180.6 179.162 181.589 179.837 181.946 180.895C188.27 199.533 196.028 214.306 205.658 226.064C217.129 240.066 231.794 249.918 246.953 253.795C264.019 258.159 281.744 254.953 294.369 245.197C305.805 236.361 312.547 222.866 317.636 210.835C329.831 181.996 336.52 152.06 337.007 124.175C318.921 108.751 301.437 92.2519 284.989 75.0789C277.369 88.9459 261.266 95.8759 247.747 100.405L243.751 101.728C230.098 106.23 215.982 110.882 207.215 121.547C205.765 123.315 204.488 125.209 203.135 127.219C201.474 129.689 199.76 132.243 197.674 134.555C192.846 139.916 186.894 142.52 181.394 141.7C176.593 140.987 173.057 137.969 169.636 135.046C167.021 132.814 164.547 130.701 161.698 129.777C155.002 127.583 147.647 132.998 145.242 139.207C142.274 146.862 144.582 155.502 147.037 161.404C149.902 168.296 153.645 173.442 158.162 176.698C163.707 180.69 170.664 181.553 178.84 179.256C179.07 179.191 179.304 179.16 179.53 179.16V179.162Z" fill="#1C2421"/>
<path d="M306.538 314.135C306.289 314.135 306.036 314.097 305.794 314.024C291.156 309.56 275.175 308.536 260.729 311.14C260.135 311.477 259.448 311.612 258.765 311.508C257.266 311.266 254.489 310.825 246.692 284.513C221.435 270.231 199.913 248.537 185.324 222.796C181.934 246.14 172.665 268.877 158.268 289.015C157.884 289.556 157.305 289.924 156.653 290.043C138.797 293.314 121.053 296.616 103.304 299.918L102.564 300.052C101.828 300.198 101.084 300.002 100.501 299.534C86.8331 288.581 68.1141 273.579 63.7961 252.728C59.1671 230.366 72.3481 208.622 84.2251 194.321C88.1181 189.631 92.3021 185.052 96.3511 180.622C105.939 170.129 115.856 159.284 122.138 146.552C128.002 134.675 130.648 121.237 133.21 108.244C134.863 99.8569 136.573 91.1899 139.135 82.8679C151.599 42.3629 185.289 10.6889 224.963 2.17889C265.886 -6.58411 311.281 11.7169 332.945 45.7139C346.322 66.6989 352.346 93.8359 351.365 128.669C351.001 141.693 349.77 154.854 348.581 167.579C347.185 182.509 345.743 197.948 345.712 213.131C345.7 217.967 345.827 222.814 345.957 227.67C346.325 241.779 346.712 256.375 343.587 270.48C339.71 287.994 328.113 308.638 307.177 314.05C306.966 314.108 306.751 314.134 306.537 314.134L306.538 314.135ZM276.886 304.628C286.834 304.628 296.97 306.078 306.577 308.927C324.878 303.792 335.259 284.494 338.603 269.377C341.594 255.882 341.218 241.608 340.854 227.805C340.724 222.904 340.597 218.003 340.605 213.125C340.64 197.708 342.093 182.15 343.5 167.105C344.681 154.461 345.905 141.387 346.265 128.525C347.212 94.7459 341.448 68.5569 328.643 48.4609C308.08 16.1889 264.913 -1.17209 226.037 7.17291C188.139 15.2989 155.944 45.6039 144.014 84.3719C141.533 92.4369 139.849 100.974 138.219 109.231C135.596 122.55 132.881 136.325 126.718 148.816C120.114 162.193 109.951 173.314 100.118 184.067C96.1101 188.45 91.9691 192.983 88.1531 197.582C76.9931 211.024 64.5751 231.322 68.7981 251.694C72.3801 268.998 86.2471 281.523 102.784 294.823C120.061 291.609 137.337 288.396 154.714 285.209C169.901 263.668 179.047 239.128 181.187 214.169C181.283 213.03 182.127 212.098 183.246 211.879C184.408 211.68 185.501 212.224 186.011 213.244C200.216 241.569 222.973 265.477 250.09 280.564C250.673 280.89 251.106 281.435 251.298 282.075C254.128 291.712 257.99 302.868 259.9 306.101C265.403 305.115 271.114 304.628 276.885 304.628H276.886Z" fill="#1C2421"/>
<path d="M238.195 443.241C237.24 443.241 236.358 442.704 235.921 441.849C209.847 390.832 181.974 339.849 153.085 290.32C152.376 289.104 152.786 287.54 154.005 286.83C155.225 286.124 156.785 286.535 157.495 287.75C185.483 335.73 212.512 385.071 237.888 434.489C253.309 394.156 259.897 351.016 256.96 309.356C256.86 307.949 257.919 306.729 259.326 306.629C260.691 306.556 261.953 307.588 262.053 308.995C265.175 353.236 257.742 399.102 240.562 441.64C240.19 442.568 239.308 443.189 238.311 443.235C238.273 443.235 238.234 443.239 238.196 443.239L238.195 443.241Z" fill="#1C2421"/>
<path d="M220.074 351.178C207.56 351.178 195.047 348.225 183.937 342.277C182.694 341.61 182.227 340.064 182.89 338.822C183.557 337.583 185.103 337.115 186.345 337.775C208.477 349.625 236.572 348.739 257.918 335.509C259.13 334.765 260.695 335.137 261.435 336.334C262.175 337.534 261.807 339.107 260.61 339.851C248.457 347.383 234.263 351.18 220.074 351.18V351.178Z" fill="#1C2421"/>
<path d="M224.293 633.297C186.403 633.297 148.64 626.064 113.354 611.706C112.257 611.257 111.613 610.114 111.793 608.945C112.334 605.49 112.924 602.004 113.523 598.491C116.982 578.07 120.56 556.95 114.992 537.146C113.692 532.525 111.863 527.919 110.095 523.467C108.085 518.416 106.011 513.193 104.615 507.77C99.7602 488.89 103.43 468.914 107.602 450.072L108.231 447.246C112.097 429.881 116.093 411.929 113.45 394.522C113.239 393.126 114.198 391.826 115.59 391.615C116.978 391.381 118.286 392.367 118.497 393.755C121.281 412.106 117.182 430.533 113.212 448.354L112.587 451.177C108.545 469.416 104.986 488.71 109.561 506.497C110.873 511.609 112.886 516.679 114.838 521.58C116.656 526.155 118.535 530.888 119.908 535.766C125.783 556.671 122.109 578.365 118.554 599.347C118.078 602.158 117.603 604.954 117.158 607.734C176.927 631.561 243.805 634.675 305.971 616.543C300.767 585.955 303.248 552.107 313.534 513.166C315.367 506.228 317.415 499.245 319.394 492.488C322.474 481.98 325.657 471.115 328.069 460.289C332.679 439.637 333.637 422.131 331.003 406.764C330.765 405.376 331.697 404.056 333.089 403.819C334.447 403.562 335.793 404.509 336.034 405.905C338.784 421.935 337.81 440.09 333.054 461.401C330.6 472.388 327.394 483.337 324.291 493.926C322.324 500.649 320.287 507.602 318.473 514.47C308.126 553.629 305.81 587.458 311.394 617.881C311.628 619.162 310.861 620.412 309.615 620.784C281.796 629.14 253.006 633.298 224.294 633.298L224.293 633.297Z" fill="#1C2421"/>
<path d="M337.403 480.157C334.067 480.157 330.726 479.984 327.405 479.643C326.001 479.497 324.981 478.243 325.127 476.843C325.273 475.439 326.573 474.458 327.927 474.565C342.489 476.064 357.334 474.078 370.987 468.801C369.959 438.244 364.813 407.928 355.678 378.671C351.931 366.671 346.424 351.258 337.021 338.476C327.533 325.579 315.123 316.962 302.073 314.216C300.692 313.928 299.81 312.575 300.102 311.194C300.393 309.81 301.766 308.924 303.124 309.223C317.402 312.226 330.901 321.541 341.133 335.454C350.985 348.842 356.688 364.769 360.55 377.152C370.003 407.422 375.25 438.807 376.147 470.439C376.178 471.501 375.545 472.472 374.563 472.874C362.786 477.687 350.107 480.157 337.406 480.157H337.403Z" fill="#1C2421"/>
<path d="M369.103 511.408C368.466 511.408 367.83 511.17 367.335 510.695C366.319 509.717 366.284 508.103 367.262 507.086L376.351 497.617C373.44 489.563 370.146 481.847 366.545 474.653C365.912 473.391 366.422 471.857 367.684 471.228C368.957 470.595 370.48 471.109 371.109 472.367C375.025 480.187 378.587 488.608 381.694 497.394C382.016 498.303 381.798 499.315 381.13 500.013L370.944 510.621C370.442 511.143 369.774 511.407 369.103 511.407V511.408Z" fill="#1C2421"/>
<path d="M364.539 581.129C361.897 581.129 359.327 580.887 356.838 580.404C345.878 578.287 335.343 571.073 327.17 560.094C319.987 550.445 315.381 539.343 310.929 528.605C310.388 527.301 311.006 525.809 312.31 525.269C313.599 524.736 315.106 525.35 315.646 526.65C319.98 537.1 324.459 547.904 331.266 557.05C338.675 567.002 348.102 573.518 357.804 575.397C365.029 576.789 373.075 575.865 381.742 572.64C389.573 569.733 396.99 565.311 404.165 561.031L474.925 518.804C475.638 518.382 476.501 518.325 477.261 518.662C484.797 521.972 501.134 523.981 509.767 522.014C510.124 518.306 510.964 508.012 511.719 498.758C513.287 479.563 514.53 469.712 515.45 469.205C516.083 468.848 518.092 467.87 520.857 466.528C526.617 463.732 536.251 459.05 542.939 455.307C544.542 454.41 546.329 453.29 547.445 451.79C548.408 450.494 548.749 448.921 548.312 447.794C547.227 444.987 542.038 444.964 540.454 445.017C521.555 445.726 504.271 455.065 486.752 465.404C480.463 469.12 475.044 472.637 472.47 478.102C472.102 478.888 471.362 479.429 470.506 479.548C439.101 483.824 409.395 490.827 379.693 500.959C378.362 501.412 376.905 500.702 376.452 499.367C375.996 498.032 376.709 496.583 378.044 496.126C407.646 486.028 437.249 479.007 468.497 474.669C471.849 468.629 477.812 464.752 484.159 461.009C502.26 450.321 520.174 440.668 540.261 439.916C546.911 439.613 551.471 441.807 553.074 445.952C554.14 448.717 553.553 452.119 551.54 454.834C549.856 457.104 547.506 458.6 545.431 459.762C538.612 463.578 528.894 468.299 523.088 471.117C521.378 471.949 519.97 472.632 519.023 473.104C518.624 476.889 517.627 489.108 516.806 499.171C515.138 519.608 514.758 523.899 514.555 524.674C514.333 525.51 513.7 526.181 512.879 526.45C503.84 529.388 485.919 527.497 476.443 523.842L406.818 565.394C399.405 569.812 391.785 574.353 383.52 577.424C376.882 579.89 370.523 581.129 364.537 581.129H364.539Z" fill="#1C2421"/>
<path d="M104.288 501.046C104.246 501.046 104.204 501.042 104.165 501.042C73.4352 499.596 43.3762 490.492 17.2442 474.715C16.3892 474.197 15.9132 473.231 16.0282 472.238C19.3992 443.069 24.9562 413.884 32.5422 385.498C37.7772 365.916 44.3192 345.372 56.6412 327.8C69.5532 309.388 88.4682 296.99 108.582 293.734C108.67 293.703 108.758 293.673 108.847 293.65C109.583 293.474 110.439 293.646 111.048 294.08C112.195 294.901 112.459 296.496 111.642 297.643C111.331 298.076 110.91 298.387 110.442 298.556C110.296 298.625 110.143 298.683 109.989 298.721C109.778 298.771 109.548 298.79 109.329 298.786C90.5952 301.839 72.9312 313.466 60.8202 330.732C48.9542 347.652 42.5852 367.69 37.4722 386.819C30.0902 414.435 24.6482 442.81 21.2882 471.189C46.3652 486.011 75.0662 494.567 104.4 495.944C105.807 496.009 106.897 497.206 106.831 498.613C106.766 499.982 105.638 501.048 104.285 501.048L104.288 501.046Z" fill="#1C2421"/>
<path d="M75.1452 832.537C70.8342 832.537 67.0992 829.116 64.5602 822.808C59.9962 811.472 57.3622 799.537 56.7252 787.342C56.6522 785.931 57.7342 784.73 59.1412 784.657C60.5712 784.695 61.7492 785.669 61.8262 787.073C62.4322 798.708 64.9442 810.087 69.2972 820.902C69.9452 822.509 72.3272 827.786 75.4412 827.418C79.3642 827.061 79.7592 819.265 79.8012 817.704C80.1922 802.245 80.5992 786.257 76.0932 771.32C74.5092 766.066 72.2692 760.862 70.1072 755.83C67.6142 750.024 65.0332 744.022 63.3382 737.736C60.8992 728.685 60.1092 718.657 60.8642 706.182C61.6662 692.959 64.0052 679.751 66.2682 666.981C68.4042 654.939 70.6092 642.483 71.4872 630.157C72.1542 620.765 72.0742 611.12 71.9972 601.789C71.8782 588.063 71.7592 573.866 73.9992 559.999C76.6682 543.443 82.6662 527.528 88.4682 512.134C90.0562 507.931 91.6402 503.724 93.1622 499.498C93.0322 498.551 93.4152 497.642 94.3512 497.166C95.2752 496.683 96.6412 496.702 97.4342 497.396C98.2202 498.086 98.7422 499.064 98.3892 500.05C96.7282 504.694 94.9872 509.315 93.2462 513.937C87.5322 529.093 81.6262 544.763 79.0372 560.812C76.8662 574.258 76.9852 588.232 77.1002 601.747C77.1772 611.177 77.2612 620.926 76.5782 630.517C75.6812 643.111 73.4492 655.698 71.2932 667.874C69.0532 680.503 66.7412 693.557 65.9552 706.489C65.2382 718.397 65.9742 727.904 68.2682 736.41C69.8632 742.343 72.3712 748.176 74.7952 753.817C77.0152 758.979 79.3092 764.317 80.9772 769.847C85.7212 785.567 85.3032 801.969 84.9002 817.834C84.6782 826.528 81.3142 832.012 75.8992 832.503C75.6462 832.526 75.3932 832.538 75.1442 832.538L75.1452 832.537Z" fill="#1C2421"/>
<path d="M64.3421 870.074C62.5011 870.074 60.5951 869.614 58.8351 868.667C55.2951 866.761 52.9411 863.417 51.2841 860.717C39.0661 840.802 38.8891 815.617 38.7471 795.38C38.7391 793.969 39.8741 792.818 41.2821 792.807H41.3011C42.7051 792.807 43.8441 793.938 43.8551 795.342C43.9891 814.947 44.1621 839.345 55.6321 858.048C57.0361 860.334 58.8041 862.853 61.2541 864.173C63.0641 865.147 65.8331 865.396 67.3671 863.905C68.3871 862.923 68.8781 861.171 68.6751 859.222C68.4761 857.297 67.7161 855.375 66.9151 853.339L66.7311 852.875C58.6201 832.204 54.9541 809.559 56.1311 787.381C56.2081 785.974 57.4351 784.927 58.8161 784.965C60.2231 785.042 61.3051 786.242 61.2321 787.65C60.0931 809.107 63.6371 831.016 71.4831 851.008L71.6631 851.464C72.5571 853.73 73.4811 856.074 73.7531 858.693C74.1211 862.248 73.0861 865.489 70.9111 867.583C69.2011 869.228 66.8311 870.076 64.3421 870.076V870.074Z" fill="#1C2421"/>
<path d="M45.9694 864.74C44.5544 864.74 43.1354 864.449 41.8584 863.869C38.2494 862.228 35.9374 859.014 33.9734 855.785C22.9634 837.665 17.8934 816.05 19.6954 794.927C19.8144 793.52 20.9994 792.465 22.4564 792.603C23.8604 792.722 24.8994 793.957 24.7804 795.364C23.0704 815.413 27.8834 835.931 38.3374 853.131C39.8754 855.662 41.6204 858.155 43.9714 859.221C45.0794 859.727 46.5294 859.773 47.6604 859.336C48.1624 859.14 48.8304 858.757 49.1334 858.044C49.6934 856.752 51.1964 856.165 52.4894 856.706C53.7814 857.262 54.3834 858.765 53.8274 860.062C53.0414 861.887 51.5074 863.322 49.5054 864.096C48.3894 864.529 47.1814 864.74 45.9694 864.74Z" fill="#1C2421"/>
<path d="M32.8141 854.642C32.5031 854.642 32.1931 854.584 31.8861 854.466C22.9811 850.995 15.7441 842.259 12.5351 831.099C9.72009 821.324 9.9851 811.211 10.2421 801.431C10.2771 800.043 11.4121 798.942 12.7921 798.942C12.8151 798.942 12.8341 798.942 12.8571 798.946C14.2681 798.981 15.3801 800.154 15.3421 801.561C15.0971 810.953 14.8431 820.667 17.4441 829.687C20.2131 839.328 26.3071 846.814 33.7431 849.71C35.0551 850.22 35.7071 851.7 35.1931 853.016C34.8021 854.025 33.8351 854.642 32.8151 854.642H32.8141Z" fill="#1C2421"/>
<path d="M18.5442 841.469C17.8382 841.469 17.1372 841.178 16.6342 840.606C5.64719 828.211 -0.987814 807.959 0.120186 790.214C0.768186 779.829 2.82419 769.528 4.81419 759.568C6.02619 753.513 7.27619 747.25 8.18119 741.079C11.6482 717.57 10.4742 693.233 9.34319 669.694C9.04819 663.562 8.75619 657.43 8.53819 651.309C6.47119 593.082 11.4532 534.629 23.3492 477.575C23.6402 476.194 24.9832 475.335 26.3712 475.596C27.7522 475.884 28.6372 477.237 28.3502 478.618C16.5342 535.269 11.5872 593.312 13.6392 651.124C13.8582 657.226 14.1492 663.339 14.4442 669.452C15.5872 693.229 16.7722 717.823 13.2322 741.823C12.3082 748.124 11.0422 754.448 9.82319 760.569C7.86319 770.364 5.84219 780.492 5.21319 790.536C4.18519 807.011 10.3102 825.776 20.4532 837.223C21.3892 838.278 21.2932 839.888 20.2342 840.824C19.7512 841.254 19.1452 841.468 18.5432 841.468L18.5442 841.469Z" fill="#1C2421"/>
<path d="M69.98 750.452C69.85 750.452 69.723 750.44 69.593 750.421C68.197 750.21 67.242 748.906 67.453 747.514C74.916 698.552 89.911 651.255 112.024 606.934C112.653 605.672 114.183 605.162 115.449 605.787C116.711 606.42 117.225 607.95 116.596 609.212C94.717 653.058 79.883 699.849 72.501 748.281C72.309 749.547 71.22 750.452 69.981 750.452H69.98Z" fill="#1C2421"/>
<path d="M205.302 996.518C156.402 996.522 108.069 989.933 61.7234 976.768C60.6954 976.477 59.9554 975.575 59.8754 974.509C57.2944 940.581 57.1564 905.471 59.4534 867.175C59.5374 865.764 60.7724 864.629 62.1534 864.782C63.5604 864.866 64.6304 866.074 64.5464 867.482C62.3064 904.873 62.3984 939.197 64.8344 972.343C152.863 997.01 248.121 997.769 340.56 974.521C340.598 852.943 330.09 732.839 309.328 617.527C309.079 616.139 309.999 614.812 311.387 614.563C312.787 614.337 314.102 615.238 314.351 616.622C335.282 732.865 345.817 853.948 345.664 976.511C345.66 977.677 344.87 978.693 343.743 978.981C297.903 990.674 251.35 996.519 205.303 996.519L205.302 996.518Z" fill="#1C2421"/>
<path d="M145.054 1366.27C142.136 1366.27 139.098 1366.09 135.961 1365.71C112.644 1362.86 90.5311 1353.71 72.0241 1339.24C71.7211 1339 71.4761 1338.7 71.3031 1338.36C66.9891 1329.56 65.3931 1318.71 66.6931 1306.98C67.5291 1299.43 69.4121 1292.02 71.2341 1284.85C71.8971 1282.25 72.5571 1279.65 73.1711 1277.04C79.2031 1251.35 80.5501 1224.51 81.8501 1198.55L92.6071 984.135C92.6801 982.724 94.0111 981.684 95.2841 981.711C96.6911 981.784 97.7771 982.98 97.7081 984.388L86.9511 1198.8C85.6391 1224.99 84.2821 1252.07 78.1421 1278.2C77.5211 1280.84 76.8531 1283.47 76.1861 1286.11C74.4071 1293.11 72.5661 1300.34 71.7721 1307.54C70.6021 1318.07 71.9411 1327.75 75.6381 1335.59C93.3211 1349.27 114.379 1357.93 136.584 1360.64C143.337 1361.45 166.075 1363.01 174.562 1348.24C181.361 1336.4 174.876 1320.98 166.539 1310.5C163.713 1306.94 160.522 1303.48 157.442 1300.12C150.554 1292.64 143.437 1284.89 139.333 1275.24C133.557 1261.64 134.589 1246.73 136.273 1231.38C144.978 1151.95 162.623 1072.73 179.681 996.112C179.988 994.735 181.349 993.876 182.73 994.175C184.103 994.482 184.973 995.847 184.667 997.224C167.636 1073.7 150.025 1152.78 141.351 1231.94C139.744 1246.59 138.739 1260.78 144.036 1273.25C147.79 1282.09 154.306 1289.17 161.202 1296.67C164.343 1300.09 167.595 1303.62 170.536 1307.32C179.916 1319.12 187.061 1336.72 178.988 1350.78C173.262 1360.74 160.902 1366.27 145.056 1366.27H145.054Z" fill="#1C2421"/>
<path d="M133.859 1325.2C127.585 1325.2 121.449 1323.61 116.279 1321.97C103.957 1318.06 94.9184 1313.31 87.8314 1307C78.8074 1298.96 73.5304 1288.36 73.3544 1277.93C73.3314 1276.52 74.4554 1275.36 75.8664 1275.33C77.2274 1275.21 78.4324 1276.44 78.4624 1277.84C78.6124 1286.86 83.2674 1296.09 91.2294 1303.19C97.7564 1309 106.209 1313.42 117.821 1317.11C125.299 1319.47 134.948 1321.77 143.262 1318.39C146.84 1316.94 150.472 1313.8 150.518 1310.05C150.549 1307.71 149.252 1305.38 147.883 1302.91C147.546 1302.3 147.212 1301.7 146.894 1301.09C143.699 1294.99 142.142 1288.14 142.384 1281.27C142.434 1279.86 143.684 1278.89 145.022 1278.81C146.433 1278.86 147.534 1280.04 147.484 1281.44C147.273 1287.43 148.635 1293.41 151.419 1298.72C151.714 1299.29 152.029 1299.86 152.347 1300.43C153.904 1303.24 155.672 1306.41 155.626 1310.11C155.542 1316.63 149.946 1321.2 145.179 1323.12C141.478 1324.62 137.639 1325.2 133.858 1325.2L133.859 1325.2Z" fill="#1C2421"/>
<path d="M350.714 1344.26C322.991 1344.26 295.248 1338.53 269.883 1327.37C268.591 1331.63 266.175 1334.56 262.907 1335.74C259.847 1336.84 256.664 1336.18 253.918 1335.46C245.7 1333.32 237.631 1330.41 229.93 1326.82C228.91 1326.34 228.319 1325.25 228.48 1324.14C233.331 1290.63 234.585 1258.17 232.208 1227.64C230.781 1209.28 227.97 1190.72 225.255 1172.76C223.199 1159.19 221.075 1145.15 219.552 1131.25C214.616 1086.15 215.74 1040.12 216.825 995.614C216.856 994.226 217.995 993.121 219.375 993.121C219.394 993.121 219.417 993.121 219.436 993.125C220.847 993.16 221.959 994.329 221.925 995.737C220.844 1040.08 219.728 1085.94 224.629 1130.7C226.14 1144.49 228.257 1158.48 230.301 1172C233.032 1190.05 235.854 1208.7 237.3 1227.24C239.659 1257.57 238.485 1289.77 233.802 1322.98C240.705 1326.08 247.896 1328.62 255.205 1330.53C257.291 1331.07 259.473 1331.56 261.172 1330.94C264.136 1329.87 265.191 1325.74 265.555 1323.37C265.678 1322.58 266.165 1321.89 266.87 1321.51C267.575 1321.13 268.419 1321.11 269.144 1321.44C305.692 1338.24 347.574 1343.31 387.078 1335.71C393.072 1334.56 396.305 1332.74 397.248 1329.97C399.093 1324.6 391.166 1319.53 387.672 1317.6L319.654 1279.98C310.78 1275.08 299.739 1268.97 294.013 1258.54C288.395 1248.32 288.958 1236.46 290.105 1224.18C291.846 1205.61 294.017 1186.72 296.114 1168.45C303.013 1108.39 310.146 1046.29 303.086 985.635C302.921 984.235 303.926 982.966 305.326 982.805C306.695 982.644 307.995 983.645 308.156 985.045C315.285 1046.29 308.118 1108.69 301.184 1169.03C299.09 1187.28 296.923 1206.14 295.19 1224.66C294.12 1236.11 293.564 1247.13 298.484 1256.08C303.504 1265.22 313.828 1270.93 322.123 1275.52L390.141 1313.13C400.051 1318.61 404.288 1325.18 402.079 1331.63C399.977 1337.76 393.063 1339.76 388.043 1340.73C375.752 1343.09 363.23 1344.26 350.709 1344.26L350.714 1344.26Z" fill="#1C2421"/>
<path d="M324.544 1312.05C321.173 1312.05 317.829 1311.58 314.63 1311.02C287.459 1306.3 260.568 1294.73 234.705 1276.63C233.551 1275.82 233.271 1274.23 234.08 1273.07C234.882 1271.92 236.469 1271.63 237.635 1272.45C262.877 1290.11 289.078 1301.4 315.505 1305.99C319.908 1306.76 324.586 1307.35 328.92 1306.59C333.372 1305.79 337.112 1303.46 338.922 1300.34C340.851 1297.03 340.368 1292.57 337.844 1290.4C336.774 1289.48 336.655 1287.87 337.572 1286.8C338.496 1285.73 340.103 1285.61 341.173 1286.53C345.545 1290.28 346.496 1297.47 343.336 1302.91C340.744 1307.37 335.816 1310.54 329.818 1311.61C328.065 1311.92 326.301 1312.05 324.545 1312.05L324.544 1312.05Z" fill="#1C2421"/>
<path d="M502.4 981.412C494.013 981.412 485.955 977.88 480.268 971.709C474.546 965.5 471.685 957.113 472.422 948.699L514.139 471.217C514.262 469.813 515.554 468.809 516.904 468.897C518.308 469.02 519.347 470.258 519.224 471.662L477.507 949.144C476.897 956.128 479.271 963.092 484.023 968.25C488.748 973.374 495.436 976.304 502.4 976.307C502.446 976.307 502.492 976.303 502.534 976.303L1487.96 970.961C1504.83 970.873 1518.97 957.619 1520.15 940.783L1563.49 319.975C1564.26 308.953 1560.51 298.457 1552.93 290.415C1545.35 282.377 1535.09 277.936 1524.04 278.135L567.821 288.348C547.35 288.563 530.759 304.125 529.233 324.543L519.987 447.973C519.883 449.377 518.626 450.389 517.249 450.328C515.845 450.221 514.791 448.997 514.894 447.59L524.14 324.16C525.87 301.081 544.623 283.49 567.767 283.24L1523.99 273.027H1524.46C1536.6 273.027 1548.31 278.07 1556.64 286.914C1565.09 295.873 1569.44 308.053 1568.58 320.328L1525.24 941.136C1523.88 960.622 1507.52 975.966 1487.99 976.069L502.564 981.411H502.399L502.4 981.412Z" fill="#1C2421"/>
<path d="M1607.12 1030.62H1607.12L428.982 1029.43C427.575 1029.43 426.432 1028.29 426.432 1026.88C426.436 1025.47 427.579 1024.33 428.986 1024.33H428.99L1607.13 1025.51C1608.53 1025.51 1609.68 1026.66 1609.68 1028.07C1609.67 1029.48 1608.53 1030.62 1607.12 1030.62Z" fill="#1C2421"/>
<path d="M695.884 287.528C695.75 287.528 695.616 287.516 695.481 287.493C694.089 287.274 693.138 285.967 693.36 284.575L718.602 125.364C718.798 124.121 719.868 123.209 721.122 123.209C721.137 123.209 721.153 123.209 721.172 123.213L989.811 128.398C990.812 128.417 991.709 129.019 992.104 129.94L1044.99 252.814C1045.55 254.11 1044.95 255.61 1043.65 256.166C1042.35 256.73 1040.85 256.128 1040.3 254.831L988.065 133.468L723.296 128.36L698.399 285.373C698.2 286.631 697.114 287.528 695.883 287.528H695.884Z" fill="#1C2421"/>
<path d="M1039.07 283.313C1038.96 283.313 1038.85 283.305 1038.73 283.29C1037.33 283.106 1036.35 281.825 1036.53 280.425L1068.28 39.3519C1068.44 38.1589 1069.41 37.2389 1070.61 37.1429L1360.98 13.3809C1361.72 13.2889 1362.49 13.5959 1363.02 14.1519C1363.56 14.7039 1363.81 15.4669 1363.72 16.2269L1349.97 131.243L1471.82 121.989C1472.55 121.924 1473.33 122.219 1473.86 122.771C1474.39 123.323 1474.64 124.083 1474.55 124.842L1456.38 275.604C1456.21 277.004 1454.92 278.005 1453.54 277.832C1452.14 277.663 1451.14 276.39 1451.31 274.99L1469.11 127.315L1347.26 136.569C1346.54 136.619 1345.75 136.343 1345.22 135.787C1344.7 135.239 1344.44 134.479 1344.54 133.72L1358.28 18.7229L1073.08 42.0629L1041.6 281.092C1041.43 282.377 1040.33 283.312 1039.07 283.312L1039.07 283.313Z" fill="#1C2421"/>
<path d="M1104.07 106.807C1100.97 106.807 1098.37 104.379 1098.19 101.242C1098.02 97.9939 1100.5 95.2129 1103.75 95.0329L1299.68 84.234C1302.94 84.15 1305.71 86.547 1305.89 89.791C1306.06 93.039 1303.58 95.8199 1300.33 95.9999L1104.4 106.799C1104.29 106.803 1104.18 106.807 1104.07 106.807Z" fill="#9C9C9C"/>
<path d="M1098.18 172.585C1095.08 172.585 1092.48 170.157 1092.3 167.02C1092.13 163.772 1094.61 160.991 1097.86 160.811L1293.79 150.012C1297.09 149.916 1299.82 152.325 1300 155.569C1300.17 158.817 1297.69 161.598 1294.44 161.778L1098.51 172.577C1098.4 172.581 1098.29 172.585 1098.18 172.585Z" fill="#9C9C9C"/>
<path d="M1090.16 244.357C1087.01 244.357 1084.4 241.864 1084.28 238.693C1084.15 235.441 1086.69 232.707 1089.94 232.58L1223.79 227.464C1227.05 227.318 1229.78 229.876 1229.91 233.124C1230.03 236.376 1227.49 239.11 1224.25 239.237L1090.39 244.353C1090.31 244.357 1090.24 244.357 1090.16 244.357Z" fill="#9C9C9C"/>
<path d="M907.036 178.648H907.028L752.65 178.475C749.398 178.471 746.763 175.833 746.767 172.577C746.771 169.329 749.409 166.694 752.658 166.694H752.666L907.044 166.867C910.296 166.871 912.931 169.509 912.927 172.765C912.923 176.013 910.285 178.648 907.036 178.648Z" fill="#9C9C9C"/>
<path d="M743.369 243.786C740.19 243.786 737.57 241.251 737.486 238.053C737.398 234.801 739.963 232.093 743.216 232.009L854.102 229.083C857.415 228.922 860.058 231.557 860.146 234.813C860.234 238.065 857.669 240.773 854.416 240.857L743.53 243.783C743.476 243.787 743.423 243.786 743.369 243.786Z" fill="#9C9C9C"/>
<path d="M1471.32 126.561C1470.67 126.561 1470.02 126.316 1469.52 125.825L1360.34 18.0339C1359.34 17.0409 1359.33 15.4259 1360.32 14.4209C1361.32 13.4159 1362.93 13.4089 1363.93 14.3979L1473.11 122.189C1474.11 123.182 1474.12 124.797 1473.13 125.802C1472.63 126.308 1471.98 126.561 1471.32 126.561Z" fill="#1C2421"/>
<path d="M616.12 506.994C613.014 506.994 610.414 504.566 610.241 501.429C610.065 498.181 612.55 495.4 615.798 495.22L811.725 484.421C815.031 484.26 817.757 486.73 817.934 489.978C818.11 493.226 815.625 496.007 812.377 496.187L616.45 506.986C616.339 506.99 616.228 506.994 616.12 506.994Z" fill="#9C9C9C"/>
<path d="M610.229 572.772C607.123 572.772 604.523 570.344 604.35 567.207C604.174 563.959 606.659 561.178 609.907 560.998L805.834 550.199C809.174 550.026 811.863 552.508 812.043 555.756C812.219 559.004 809.734 561.785 806.486 561.965L610.559 572.764C610.448 572.768 610.337 572.772 610.229 572.772Z" fill="#9C9C9C"/>
<path d="M602.206 644.545C599.057 644.545 596.446 642.052 596.323 638.881C596.2 635.629 598.735 632.895 601.983 632.768L735.84 627.652C739.069 627.571 741.826 630.064 741.953 633.312C742.076 636.564 739.541 639.298 736.293 639.425L602.436 644.541C602.359 644.545 602.283 644.545 602.206 644.545Z" fill="#9C9C9C"/>
<path d="M593.62 707.209C590.514 707.209 587.914 704.781 587.741 701.644C587.565 698.396 590.05 695.615 593.298 695.435L789.225 684.636C792.535 684.544 795.257 686.949 795.434 690.193C795.61 693.441 793.125 696.222 789.877 696.402L593.95 707.201C593.839 707.205 593.728 707.209 593.62 707.209Z" fill="#9C9C9C"/>
<path d="M587.729 772.987C584.623 772.987 582.023 770.559 581.85 767.422C581.674 764.174 584.159 761.393 587.407 761.213L783.334 750.414C786.678 750.31 789.363 752.727 789.543 755.971C789.719 759.219 787.234 762 783.986 762.18L588.059 772.979C587.948 772.983 587.837 772.987 587.729 772.987Z" fill="#9C9C9C"/>
<path d="M579.706 844.759C576.557 844.759 573.946 842.266 573.823 839.095C573.7 835.843 576.235 833.109 579.483 832.982L713.34 827.866C716.653 827.697 719.33 830.278 719.453 833.526C719.576 836.778 717.041 839.512 713.793 839.639L579.936 844.755C579.859 844.759 579.783 844.759 579.706 844.759Z" fill="#9C9C9C"/>
<path d="M583.59 509.235C588.08 509.235 591.72 505.595 591.72 501.105C591.72 496.615 588.08 492.975 583.59 492.975C579.1 492.975 575.46 496.615 575.46 501.105C575.46 505.595 579.1 509.235 583.59 509.235Z" fill="#9C9C9C"/>
<path d="M579.711 575.013C584.201 575.013 587.841 571.373 587.841 566.883C587.841 562.393 584.201 558.753 579.711 558.753C575.221 558.753 571.581 562.393 571.581 566.883C571.581 571.373 575.221 575.013 579.711 575.013Z" fill="#9C9C9C"/>
<path d="M575.459 646.785C579.949 646.785 583.589 643.145 583.589 638.655C583.589 634.165 579.949 630.525 575.459 630.525C570.969 630.525 567.329 634.165 567.329 638.655C567.329 643.145 570.969 646.785 575.459 646.785Z" fill="#9C9C9C"/>
<path d="M567.329 709.45C571.819 709.45 575.459 705.81 575.459 701.32C575.459 696.83 571.819 693.19 567.329 693.19C562.839 693.19 559.199 696.83 559.199 701.32C559.199 705.81 562.839 709.45 567.329 709.45Z" fill="#9C9C9C"/>
<path d="M559.199 775.228C563.689 775.228 567.329 771.588 567.329 767.098C567.329 762.608 563.689 758.968 559.199 758.968C554.709 758.968 551.069 762.608 551.069 767.098C551.069 771.588 554.709 775.228 559.199 775.228Z" fill="#9C9C9C"/>
<path d="M551.069 847C555.559 847 559.199 843.36 559.199 838.87C559.199 834.38 555.559 830.74 551.069 830.74C546.579 830.74 542.939 834.38 542.939 838.87C542.939 843.36 546.579 847 551.069 847Z" fill="#9C9C9C"/>
<path d="M965.543 494.964C962.333 494.964 959.706 492.391 959.652 489.169C959.602 485.917 962.195 483.236 965.447 483.183L1161.65 480.019H1161.74C1164.95 480.019 1167.58 482.592 1167.63 485.814C1167.68 489.066 1165.09 491.747 1161.84 491.8L965.639 494.964H965.543Z" fill="#9C9C9C"/>
<path d="M957.094 560.462C953.884 560.462 951.257 557.889 951.203 554.667C951.153 551.415 953.746 548.734 956.998 548.681L1153.2 545.517H1153.29C1156.5 545.517 1159.13 548.09 1159.18 551.312C1159.23 554.564 1156.64 557.245 1153.39 557.298L957.19 560.462H957.094Z" fill="#9C9C9C"/>
<path d="M1080.24 631.966H1080.24L946.279 631.866C943.027 631.862 940.388 629.224 940.392 625.972C940.396 622.72 943.03 620.085 946.283 620.085H946.287L1080.24 620.185C1083.5 620.189 1086.14 622.827 1086.13 626.079C1086.13 629.331 1083.49 631.966 1080.24 631.966Z" fill="#9C9C9C"/>
<path d="M935.262 694.151C932.052 694.151 929.425 691.578 929.371 688.356C929.321 685.104 931.914 682.423 935.166 682.37L1131.37 679.206H1131.46C1134.67 679.206 1137.3 681.779 1137.35 685.001C1137.4 688.253 1134.81 690.934 1131.56 690.987L935.358 694.151H935.262Z" fill="#9C9C9C"/>
<path d="M926.817 759.649C923.607 759.649 920.98 757.076 920.926 753.854C920.876 750.602 923.469 747.921 926.721 747.868L1122.92 744.704H1123.02C1126.23 744.704 1128.85 747.277 1128.91 750.499C1128.96 753.751 1126.36 756.432 1123.11 756.485L926.913 759.649H926.817Z" fill="#9C9C9C"/>
<path d="M1049.96 831.153H1049.96L915.998 831.053C912.746 831.049 910.107 828.411 910.111 825.159C910.115 821.907 912.749 819.272 916.002 819.272H916.006L1049.96 819.372C1053.22 819.376 1055.85 822.014 1055.85 825.266C1055.85 828.518 1053.21 831.153 1049.96 831.153Z" fill="#9C9C9C"/>
<path d="M933.032 495.935C937.522 495.935 941.162 492.295 941.162 487.805C941.162 483.315 937.522 479.675 933.032 479.675C928.542 479.675 924.902 483.315 924.902 487.805C924.902 492.295 928.542 495.935 933.032 495.935Z" fill="#9C9C9C"/>
<path d="M926.596 561.512C931.086 561.512 934.726 557.872 934.726 553.382C934.726 548.892 931.086 545.252 926.596 545.252C922.106 545.252 918.466 548.892 918.466 553.382C918.466 557.872 922.106 561.512 926.596 561.512Z" fill="#9C9C9C"/>
<path d="M919.552 633.064C924.042 633.064 927.682 629.424 927.682 624.934C927.682 620.444 924.042 616.804 919.552 616.804C915.062 616.804 911.422 620.444 911.422 624.934C911.422 629.424 915.062 633.064 919.552 633.064Z" fill="#9C9C9C"/>
<path d="M908.988 695.365C913.478 695.365 917.118 691.725 917.118 687.235C917.118 682.745 913.478 679.105 908.988 679.105C904.498 679.105 900.858 682.745 900.858 687.235C900.858 691.725 904.498 695.365 908.988 695.365Z" fill="#9C9C9C"/>
<path d="M898.302 760.776C902.792 760.776 906.432 757.136 906.432 752.646C906.432 748.156 902.792 744.516 898.302 744.516C893.812 744.516 890.172 748.156 890.172 752.646C890.172 757.136 893.812 760.776 898.302 760.776Z" fill="#9C9C9C"/>
<path d="M887.383 832.178C891.873 832.178 895.513 828.538 895.513 824.048C895.513 819.558 891.873 815.918 887.383 815.918C882.893 815.918 879.253 819.558 879.253 824.048C879.253 828.538 882.893 832.178 887.383 832.178Z" fill="#9C9C9C"/>
<path d="M1307.18 492.855C1303.97 492.855 1301.34 490.282 1301.29 487.06C1301.24 483.808 1303.83 481.127 1307.09 481.074L1503.28 477.914H1503.38C1506.59 477.914 1509.22 480.487 1509.27 483.709C1509.32 486.961 1506.73 489.642 1503.48 489.695L1307.28 492.855H1307.18Z" fill="#9C9C9C"/>
<path d="M1298.73 558.357C1295.52 558.357 1292.9 555.784 1292.84 552.562C1292.79 549.31 1295.38 546.629 1298.64 546.576L1494.84 543.412H1494.93C1498.14 543.412 1500.77 545.985 1500.82 549.207C1500.87 552.459 1498.28 555.14 1495.03 555.193L1298.83 558.357H1298.73Z" fill="#9C9C9C"/>
<path d="M1421.88 629.86H1421.87L1287.92 629.76C1284.67 629.756 1282.03 627.118 1282.03 623.866C1282.04 620.614 1284.67 617.979 1287.92 617.979H1287.93L1421.88 618.079C1425.13 618.083 1427.77 620.721 1427.77 623.973C1427.76 627.225 1425.13 629.86 1421.88 629.86Z" fill="#9C9C9C"/>
<path d="M1276.9 692.045C1273.69 692.045 1271.06 689.472 1271.01 686.25C1270.96 682.998 1273.55 680.317 1276.8 680.264L1473 677.1H1473.1C1476.31 677.1 1478.94 679.673 1478.99 682.895C1479.04 686.147 1476.45 688.828 1473.2 688.881L1277 692.045H1276.9Z" fill="#9C9C9C"/>
<path d="M1268.46 757.543C1265.25 757.543 1262.62 754.97 1262.56 751.748C1262.51 748.496 1265.11 745.815 1268.36 745.762L1464.56 742.598H1464.65C1467.86 742.598 1470.49 745.171 1470.55 748.393C1470.6 751.645 1468 754.326 1464.75 754.379L1268.55 757.543H1268.46Z" fill="#9C9C9C"/>
<path d="M1391.6 829.047H1391.59L1257.64 828.947C1254.38 828.943 1251.75 826.305 1251.75 823.053C1251.75 819.801 1254.39 817.166 1257.64 817.166H1257.64L1391.6 817.266C1394.85 817.27 1397.49 819.908 1397.49 823.16C1397.48 826.412 1394.85 829.047 1391.6 829.047Z" fill="#9C9C9C"/>
<path d="M1274.67 493.829C1279.16 493.829 1282.8 490.189 1282.8 485.699C1282.8 481.209 1279.16 477.569 1274.67 477.569C1270.18 477.569 1266.54 481.209 1266.54 485.699C1266.54 490.189 1270.18 493.829 1274.67 493.829Z" fill="#9C9C9C"/>
<path d="M1268.23 559.406C1272.72 559.406 1276.36 555.766 1276.36 551.276C1276.36 546.786 1272.72 543.146 1268.23 543.146C1263.74 543.146 1260.1 546.786 1260.1 551.276C1260.1 555.766 1263.74 559.406 1268.23 559.406Z" fill="#9C9C9C"/>
<path d="M1261.19 630.959C1265.68 630.959 1269.32 627.319 1269.32 622.829C1269.32 618.339 1265.68 614.699 1261.19 614.699C1256.7 614.699 1253.06 618.339 1253.06 622.829C1253.06 627.319 1256.7 630.959 1261.19 630.959Z" fill="#9C9C9C"/>
<path d="M1250.63 693.259C1255.12 693.259 1258.76 689.619 1258.76 685.129C1258.76 680.639 1255.12 676.999 1250.63 676.999C1246.14 676.999 1242.5 680.639 1242.5 685.129C1242.5 689.619 1246.14 693.259 1250.63 693.259Z" fill="#9C9C9C"/>
<path d="M1239.94 758.67C1244.43 758.67 1248.07 755.03 1248.07 750.54C1248.07 746.05 1244.43 742.41 1239.94 742.41C1235.45 742.41 1231.81 746.05 1231.81 750.54C1231.81 755.03 1235.45 758.67 1239.94 758.67Z" fill="#9C9C9C"/>
<path d="M1229.02 830.072C1233.51 830.072 1237.15 826.432 1237.15 821.942C1237.15 817.452 1233.51 813.812 1229.02 813.812C1224.53 813.812 1220.89 817.452 1220.89 821.942C1220.89 826.432 1224.53 830.072 1229.02 830.072Z" fill="#9C9C9C"/>
</svg>
