<svg width="254" height="269" viewBox="0 0 254 269" fill="none" xmlns="http://www.w3.org/2000/svg">
<path d="M252.428 268.096H0.790547C0.353638 268.096 0 267.659 0 267.12V201.037C0 200.498 0.353638 200.061 0.790547 200.061H252.428C252.865 200.061 253.219 200.498 253.219 201.037V267.12C253.219 267.659 252.865 268.096 252.428 268.096ZM1.58109 266.145H251.638V202.012H1.58109V266.145Z" fill="#E6C2A1"/>
<path d="M225.92 202.013H27.2217C26.7848 202.013 26.4312 201.575 26.4312 201.037V184.564C26.4312 184.025 26.7848 183.588 27.2217 183.588H225.92C226.357 183.588 226.711 184.025 226.711 184.564V201.037C226.711 201.575 226.357 202.013 225.92 202.013ZM28.0122 200.061H225.13V185.539H28.0122V200.061Z" fill="#E6C2A1"/>
<path d="M212.703 185.539H40.5155C40.0786 185.539 39.725 185.102 39.725 184.564V167.994C39.725 167.455 40.0786 167.018 40.5155 167.018H212.703C213.14 167.018 213.494 167.455 213.494 167.994V184.564C213.494 185.102 213.14 185.539 212.703 185.539ZM41.3061 183.588H211.913V168.969H41.3061V183.588Z" fill="#E6C2A1"/>
<path d="M186.731 168.969H66.4881C66.0512 168.969 65.6976 168.532 65.6976 167.994V110.29C65.6976 109.751 66.0512 109.315 66.4881 109.315H186.731C187.167 109.315 187.521 109.751 187.521 110.29V167.994C187.521 168.533 187.167 168.969 186.731 168.969ZM67.2787 167.018H185.94V111.266H67.2787V167.018Z" fill="#E6C2A1"/>
<path d="M186.731 111.267H66.4881C66.2194 111.267 65.9695 111.098 65.8235 110.82L52.8386 85.9667C52.682 85.6668 52.6704 85.2844 52.809 84.9709C52.9477 84.6574 53.2138 84.4623 53.5032 84.4623H199.643C199.932 84.4623 200.198 84.6568 200.336 84.9696C200.475 85.2825 200.464 85.6642 200.308 85.9641L187.396 110.817C187.251 111.097 187 111.267 186.731 111.267ZM66.9187 109.315H186.298L198.196 86.4135H54.9535L66.9187 109.315Z" fill="#E6C2A1"/>
<path d="M186.731 86.4135H66.4881C66.0512 86.4135 65.6976 85.9771 65.6976 85.4379V77.2478C65.6976 76.7086 66.0512 76.2722 66.4881 76.2722H186.731C187.167 76.2722 187.521 76.7086 187.521 77.2478V85.4379C187.521 85.9764 187.167 86.4135 186.731 86.4135ZM67.2787 84.4623H185.94V78.2235H67.2787V84.4623Z" fill="#E6C2A1"/>
<path d="M172.98 78.2235H80.24C79.8031 78.2235 79.4494 77.787 79.4494 77.2479V60.6792C79.4494 60.14 79.8031 59.7036 80.24 59.7036H172.98C173.416 59.7036 173.77 60.14 173.77 60.6792V77.2479C173.77 77.787 173.416 78.2235 172.98 78.2235ZM81.0305 76.2722H172.189V61.6548H81.0305V76.2722Z" fill="#E6C2A1"/>
<path d="M158.617 45.9434C158.329 45.9434 158.057 45.7476 157.918 45.4211C155.005 38.5703 152.424 37.7781 150.737 37.7781C148.52 37.7781 146.247 39.3677 143.842 41.051C141.357 42.7889 138.788 44.5866 136.141 44.5866C136.141 44.5866 136.14 44.5866 136.139 44.5866C132.84 44.586 130.019 41.7443 127.516 35.901C127.456 35.7605 127.424 35.6037 127.424 35.445V11.7348C127.424 11.2867 127.672 10.8958 128.024 10.7878C128.377 10.6798 128.744 10.8828 128.914 11.2789C131.085 16.3469 133.3 18.7079 135.884 18.7079H135.886C138.184 18.7066 140.65 16.8204 143.035 14.9953C145.601 13.0311 148.255 11.0005 150.991 11.0005C154.17 11.0005 156.895 13.7713 159.318 19.4708C159.378 19.6107 159.409 19.7668 159.409 19.9242V44.9678C159.409 45.4166 159.161 45.8081 158.808 45.9154C158.743 45.9343 158.68 45.9434 158.617 45.9434ZM129.005 35.2011C131.903 41.8581 134.461 42.6354 136.14 42.6354H136.141C138.371 42.6354 140.65 41.0412 143.063 39.3534C145.541 37.6194 148.103 35.8268 150.738 35.8268C153.385 35.8268 155.72 37.6695 157.827 41.4386V20.1668C155.729 15.3121 153.491 12.9517 150.99 12.9517C148.706 12.9517 146.356 14.7501 143.867 16.6532C141.294 18.6221 138.633 20.6579 135.885 20.6592H135.883C133.326 20.6592 131.061 18.8796 129.005 15.2379V35.2011H129.005Z" fill="#E6C2A1"/>
<path d="M128.215 61.6548H124.931C124.494 61.6548 124.14 61.2184 124.14 60.6792V8.59393C124.14 8.24531 124.291 7.92335 124.535 7.74904C124.779 7.57473 125.08 7.57408 125.325 7.74839C125.753 8.05279 126.15 8.18872 126.61 8.18872C127.065 8.18872 127.446 8.05669 127.773 7.78482C128.015 7.58384 128.328 7.56302 128.586 7.73278C128.844 7.90254 129.005 8.2336 129.005 8.59393V60.6792C129.005 61.2184 128.651 61.6548 128.215 61.6548ZM125.721 59.7036H127.424V10.0398C126.884 10.1783 126.278 10.1751 125.721 10.0196V59.7036Z" fill="#E6C2A1"/>
<path d="M126.61 10.14C124.325 10.14 122.535 7.91295 122.535 5.06999C122.535 2.22702 124.325 0 126.61 0C128.894 0 130.684 2.22702 130.684 5.06999C130.684 7.91295 128.894 10.14 126.61 10.14ZM126.61 1.95125C125.212 1.95125 124.116 3.32102 124.116 5.06999C124.116 6.81895 125.212 8.18873 126.61 8.18873C128.008 8.18873 129.103 6.81895 129.103 5.06999C129.103 3.32102 128.008 1.95125 126.61 1.95125Z" fill="#E6C2A1"/>
<path d="M146.09 34.3257C145.928 34.3257 145.766 34.2646 145.628 34.1416L143.423 32.18L141.29 34.1332C141.015 34.3862 140.638 34.3894 140.358 34.1429C140.079 33.8958 139.961 33.4541 140.066 33.0509L140.886 29.9087L138.744 27.9445C138.47 27.6934 138.358 27.2544 138.465 26.855C138.572 26.4557 138.875 26.1858 139.216 26.1858H141.844L142.662 22.9649C142.765 22.5577 143.071 22.2813 143.416 22.2813C143.761 22.2813 144.067 22.5584 144.171 22.9649L144.989 26.1858H147.696C148.039 26.1858 148.343 26.4583 148.449 26.8615C148.554 27.2648 148.437 27.7051 148.159 27.9529L145.962 29.9087L146.838 33.0307C146.951 33.4327 146.839 33.8789 146.563 34.1325C146.422 34.2613 146.256 34.3257 146.09 34.3257ZM143.416 29.9952C143.578 29.9952 143.74 30.0564 143.878 30.1793L144.526 30.7556L144.274 29.8606C144.16 29.4534 144.276 29.0021 144.559 28.7503L145.248 28.1363H144.408C144.062 28.1363 143.757 27.8593 143.653 27.4528L143.415 26.5175L143.178 27.4528C143.075 27.8599 142.769 28.1363 142.423 28.1363H141.605L142.284 28.7582C142.556 29.0073 142.668 29.4424 142.565 29.8404L142.326 30.7523L142.944 30.1871C143.084 30.0596 143.25 29.9952 143.416 29.9952Z" fill="#E6C2A1"/>
<path d="M199.413 185.539H53.7324C53.2955 185.539 52.9419 185.102 52.9419 184.564V167.994C52.9419 167.455 53.2955 167.018 53.7324 167.018H199.413C199.849 167.018 200.203 167.455 200.203 167.994V184.564C200.203 185.102 199.849 185.539 199.413 185.539ZM54.523 183.588H198.622V168.969H54.523V183.588Z" fill="#E6C2A1"/>
<path d="M186.196 202.013H67.0231C66.5862 202.013 66.2325 201.575 66.2325 201.037V184.564C66.2325 184.025 66.5862 183.588 67.0231 183.588H186.196C186.633 183.588 186.987 184.025 186.987 184.564V201.037C186.987 201.575 186.633 202.013 186.196 202.013ZM67.8136 200.061H185.406V185.539H67.8136V200.061Z" fill="#E6C2A1"/>
<path d="M86.8853 168.969H80.24C79.8031 168.969 79.4494 168.532 79.4494 167.994V110.29C79.4494 109.751 79.8031 109.315 80.24 109.315H86.8853C87.3222 109.315 87.6759 109.751 87.6759 110.29V167.994C87.6759 168.533 87.3222 168.969 86.8853 168.969ZM81.0305 167.018H86.0948V111.266H81.0305V167.018Z" fill="#E6C2A1"/>
<path d="M106.748 168.969H93.4569C93.02 168.969 92.6663 168.532 92.6663 167.994V110.29C92.6663 109.751 93.02 109.315 93.4569 109.315H106.748C107.184 109.315 107.538 109.751 107.538 110.29V167.994C107.538 168.533 107.184 168.969 106.748 168.969ZM94.2474 167.018H105.957V111.266H94.2474V167.018Z" fill="#E6C2A1"/>
<path d="M172.98 168.969H166.334C165.898 168.969 165.544 168.532 165.544 167.994V110.29C165.544 109.751 165.898 109.315 166.334 109.315H172.98C173.416 109.315 173.77 109.751 173.77 110.29V167.994C173.77 168.533 173.416 168.969 172.98 168.969ZM167.125 167.018H172.189V111.266H167.125V167.018Z" fill="#E6C2A1"/>
<path d="M119.964 168.969H106.748C106.311 168.969 105.957 168.532 105.957 167.994V110.29C105.957 109.751 106.311 109.315 106.748 109.315H119.964C120.401 109.315 120.755 109.751 120.755 110.29V167.994C120.755 168.533 120.401 168.969 119.964 168.969ZM107.538 167.018H119.174V111.266H107.538V167.018Z" fill="#E6C2A1"/>
<path d="M133.257 168.969H119.964C119.527 168.969 119.174 168.532 119.174 167.994V110.29C119.174 109.751 119.527 109.315 119.964 109.315H133.257C133.694 109.315 134.048 109.751 134.048 110.29V167.994C134.048 168.533 133.694 168.969 133.257 168.969ZM120.755 167.018H132.467V111.266H120.755V167.018Z" fill="#E6C2A1"/>
<path d="M146.471 168.969H133.257C132.821 168.969 132.467 168.532 132.467 167.994V110.29C132.467 109.751 132.821 109.315 133.257 109.315H146.471C146.908 109.315 147.262 109.751 147.262 110.29V167.994C147.262 168.533 146.908 168.969 146.471 168.969ZM134.048 167.018H145.681V111.266H134.048V167.018Z" fill="#E6C2A1"/>
<path d="M159.689 168.969H146.471C146.035 168.969 145.681 168.532 145.681 167.994V110.29C145.681 109.751 146.035 109.315 146.471 109.315H159.689C160.125 109.315 160.479 109.751 160.479 110.29V167.994C160.479 168.533 160.125 168.969 159.689 168.969ZM147.262 167.018H158.898V111.266H147.262V167.018Z" fill="#E6C2A1"/>
<path d="M27.2217 218.581H0.790547C0.353638 218.581 0 218.144 0 217.606V201.037C0 200.498 0.353638 200.061 0.790547 200.061H27.2217C27.6586 200.061 28.0122 200.498 28.0122 201.037V217.606C28.0122 218.144 27.6586 218.581 27.2217 218.581ZM1.58109 216.63H26.4311V202.012H1.58109V216.63Z" fill="#E6C2A1"/>
<path d="M60.3772 218.581H27.2217C26.7848 218.581 26.4312 218.144 26.4312 217.606V201.037C26.4312 200.498 26.7848 200.061 27.2217 200.061H60.3772C60.8141 200.061 61.1678 200.498 61.1678 201.037V217.606C61.1678 218.144 60.8141 218.581 60.3772 218.581ZM28.0122 216.63H59.5867V202.012H28.0122V216.63Z" fill="#E6C2A1"/>
<path d="M80.24 218.581H60.3772C59.9403 218.581 59.5867 218.144 59.5867 217.606V201.037C59.5867 200.498 59.9403 200.061 60.3772 200.061H80.24C80.6769 200.061 81.0305 200.498 81.0305 201.037V217.606C81.0305 218.144 80.6763 218.581 80.24 218.581ZM61.1678 216.63H79.4494V202.012H61.1678V216.63Z" fill="#E6C2A1"/>
<path d="M106.748 218.581H80.24C79.8031 218.581 79.4494 218.144 79.4494 217.606V201.037C79.4494 200.498 79.8031 200.061 80.24 200.061H106.748C107.184 200.061 107.538 200.498 107.538 201.037V217.606C107.538 218.144 107.184 218.581 106.748 218.581ZM81.0305 216.63H105.957V202.012H81.0305V216.63Z" fill="#E6C2A1"/>
<path d="M133.179 218.581H106.747C106.31 218.581 105.956 218.144 105.956 217.606V201.037C105.956 200.498 106.31 200.061 106.747 200.061H133.179C133.615 200.061 133.969 200.498 133.969 201.037V217.606C133.969 218.144 133.616 218.581 133.179 218.581ZM107.538 216.63H132.389V202.012H107.538V216.63Z" fill="#E6C2A1"/>
<path d="M159.689 218.581H133.179C132.742 218.581 132.388 218.144 132.388 217.606V201.037C132.388 200.498 132.742 200.061 133.179 200.061H159.689C160.125 200.061 160.479 200.498 160.479 201.037V217.606C160.479 218.144 160.125 218.581 159.689 218.581ZM133.969 216.63H158.898V202.012H133.969V216.63Z" fill="#E6C2A1"/>
<path d="M186.196 218.581H159.689C159.252 218.581 158.898 218.144 158.898 217.606V201.037C158.898 200.498 159.252 200.061 159.689 200.061H186.196C186.633 200.061 186.987 200.498 186.987 201.037V217.606C186.987 218.144 186.633 218.581 186.196 218.581ZM160.479 216.63H185.406V202.012H160.479V216.63Z" fill="#E6C2A1"/>
<path d="M219.351 218.581H186.196C185.76 218.581 185.406 218.144 185.406 217.606V201.037C185.406 200.498 185.76 200.061 186.196 200.061H219.351C219.788 200.061 220.142 200.498 220.142 201.037V217.606C220.142 218.144 219.788 218.581 219.351 218.581ZM186.987 216.63H218.561V202.012H186.987V216.63Z" fill="#E6C2A1"/>
<path d="M252.428 218.581H219.351C218.915 218.581 218.561 218.144 218.561 217.606V201.037C218.561 200.498 218.915 200.061 219.351 200.061H252.428C252.865 200.061 253.219 200.498 253.219 201.037V217.606C253.219 218.144 252.865 218.581 252.428 218.581ZM220.142 216.63H251.638V202.012H220.142V216.63Z" fill="#E6C2A1"/>
<path d="M40.5155 235.055H0.790547C0.353638 235.055 0 234.618 0 234.079V217.606C0 217.067 0.353638 216.63 0.790547 216.63H40.5155C40.9524 216.63 41.3061 217.067 41.3061 217.606V234.079C41.3061 234.618 40.9519 235.055 40.5155 235.055ZM1.58109 233.104H39.725V218.581H1.58109V233.104Z" fill="#E6C2A1"/>
<path d="M67.0231 235.055H40.5155C40.0786 235.055 39.725 234.618 39.725 234.079V217.606C39.725 217.067 40.0786 216.63 40.5155 216.63H67.0231C67.46 216.63 67.8136 217.067 67.8136 217.606V234.079C67.8136 234.618 67.4595 235.055 67.0231 235.055ZM41.3061 233.104H66.2325V218.581H41.3061V233.104Z" fill="#E6C2A1"/>
<path d="M93.4569 235.055H67.0231C66.5862 235.055 66.2325 234.618 66.2325 234.079V217.606C66.2325 217.067 66.5862 216.63 67.0231 216.63H93.4569C93.8938 216.63 94.2474 217.067 94.2474 217.606V234.079C94.2474 234.618 93.8932 235.055 93.4569 235.055ZM67.8136 233.104H92.6663V218.581H67.8136V233.104Z" fill="#E6C2A1"/>
<path d="M119.964 235.055H93.4569C93.02 235.055 92.6663 234.618 92.6663 234.079V217.606C92.6663 217.067 93.02 216.63 93.4569 216.63H119.964C120.401 216.63 120.755 217.067 120.755 217.606V234.079C120.755 234.618 120.401 235.055 119.964 235.055ZM94.2474 233.104H119.174V218.581H94.2474V233.104Z" fill="#E6C2A1"/>
<path d="M146.471 235.055H119.964C119.527 235.055 119.174 234.618 119.174 234.079V217.606C119.174 217.067 119.527 216.63 119.964 216.63H146.471C146.908 216.63 147.262 217.067 147.262 217.606V234.079C147.262 234.618 146.908 235.055 146.471 235.055ZM120.755 233.104H145.681V218.581H120.755V233.104Z" fill="#E6C2A1"/>
<path d="M172.98 235.055H146.471C146.035 235.055 145.681 234.618 145.681 234.079V217.606C145.681 217.067 146.035 216.63 146.471 216.63H172.98C173.416 216.63 173.77 217.067 173.77 217.606V234.079C173.77 234.618 173.416 235.055 172.98 235.055ZM147.262 233.104H172.189V218.581H147.262V233.104Z" fill="#E6C2A1"/>
<path d="M199.413 235.055H172.98C172.543 235.055 172.189 234.618 172.189 234.079V217.606C172.189 217.067 172.543 216.63 172.98 216.63H199.413C199.849 216.63 200.203 217.067 200.203 217.606V234.079C200.203 234.618 199.849 235.055 199.413 235.055ZM173.77 233.104H198.622V218.581H173.77V233.104Z" fill="#E6C2A1"/>
<path d="M225.92 235.055H199.413C198.976 235.055 198.622 234.618 198.622 234.079V217.606C198.622 217.067 198.976 216.63 199.413 216.63H225.92C226.357 216.63 226.711 217.067 226.711 217.606V234.079C226.711 234.618 226.357 235.055 225.92 235.055ZM200.203 233.104H225.13V218.581H200.203V233.104Z" fill="#E6C2A1"/>
<path d="M252.428 235.055H225.92C225.484 235.055 225.13 234.618 225.13 234.079V217.606C225.13 217.067 225.484 216.63 225.92 216.63H252.428C252.865 216.63 253.219 217.067 253.219 217.606V234.079C253.219 234.618 252.865 235.055 252.428 235.055ZM226.711 233.104H251.638V218.581H226.711V233.104Z" fill="#E6C2A1"/>
<path d="M159.689 268.096H93.4569C93.02 268.096 92.6663 267.659 92.6663 267.12V234.079C92.6663 233.541 93.02 233.104 93.4569 233.104H159.689C160.125 233.104 160.479 233.541 160.479 234.079V267.12C160.479 267.659 160.125 268.096 159.689 268.096ZM94.2474 266.145H158.898V235.055H94.2474V266.145Z" fill="#E6C2A1"/>
<path d="M27.2217 251.529H0.790547C0.353638 251.529 0 251.092 0 250.553V234.079C0 233.541 0.353638 233.104 0.790547 233.104H27.2217C27.6586 233.104 28.0122 233.541 28.0122 234.079V250.553C28.0122 251.092 27.6586 251.529 27.2217 251.529ZM1.58109 249.577H26.4311V235.055H1.58109V249.577Z" fill="#E6C2A1"/>
<path d="M53.7324 251.529H27.2217C26.7848 251.529 26.4312 251.092 26.4312 250.553V234.079C26.4312 233.541 26.7848 233.104 27.2217 233.104H53.7324C54.1693 233.104 54.523 233.541 54.523 234.079V250.553C54.523 251.092 54.1693 251.529 53.7324 251.529ZM28.0122 249.577H52.9419V235.055H28.0122V249.577Z" fill="#E6C2A1"/>
<path d="M80.24 251.529H53.7324C53.2955 251.529 52.9419 251.092 52.9419 250.553V234.079C52.9419 233.541 53.2955 233.104 53.7324 233.104H80.24C80.6769 233.104 81.0305 233.541 81.0305 234.079V250.553C81.0305 251.092 80.6763 251.529 80.24 251.529ZM54.523 249.577H79.4494V235.055H54.523V249.577Z" fill="#E6C2A1"/>
<path d="M219.351 251.814H186.196C185.76 251.814 185.406 251.377 185.406 250.838V234.079C185.406 233.54 185.76 233.103 186.196 233.103H219.351C219.788 233.103 220.142 233.54 220.142 234.079V250.838C220.142 251.378 219.788 251.814 219.351 251.814ZM186.987 249.863H218.561V235.054H186.987V249.863Z" fill="#E6C2A1"/>
<path d="M252.428 251.814H219.351C218.915 251.814 218.561 251.377 218.561 250.838V234.079C218.561 233.54 218.915 233.103 219.351 233.103H252.428C252.865 233.103 253.219 233.54 253.219 234.079V250.838C253.219 251.378 252.865 251.814 252.428 251.814ZM220.142 249.863H251.638V235.054H220.142V249.863Z" fill="#E6C2A1"/>
<path d="M186.196 251.814H172.98C172.543 251.814 172.189 251.377 172.189 250.838V234.079C172.189 233.54 172.543 233.103 172.98 233.103H186.196C186.633 233.103 186.987 233.54 186.987 234.079V250.838C186.987 251.378 186.633 251.814 186.196 251.814ZM173.77 249.863H185.406V235.054H173.77V249.863Z" fill="#E6C2A1"/>
<path d="M40.5155 268.096H0.790547C0.353638 268.096 0 267.659 0 267.12V250.553C0 250.014 0.353638 249.577 0.790547 249.577H40.5155C40.9524 249.577 41.3061 250.014 41.3061 250.553V267.12C41.3061 267.659 40.9519 268.096 40.5155 268.096ZM1.58109 266.145H39.725V251.529H1.58109V266.145Z" fill="#E6C2A1"/>
<path d="M67.0231 268.096H40.5155C40.0786 268.096 39.725 267.659 39.725 267.12V250.553C39.725 250.014 40.0786 249.577 40.5155 249.577H67.0231C67.46 249.577 67.8136 250.014 67.8136 250.553V267.12C67.8136 267.659 67.4595 268.096 67.0231 268.096ZM41.3061 266.145H66.2325V251.529H41.3061V266.145Z" fill="#E6C2A1"/>
<path d="M199.413 268.096H166.334C165.897 268.096 165.543 267.659 165.543 267.12V250.839C165.543 250.301 165.897 249.864 166.334 249.864H199.413C199.849 249.864 200.203 250.301 200.203 250.839V267.12C200.203 267.659 199.849 268.096 199.413 268.096ZM167.125 266.145H198.623V251.815H167.125V266.145Z" fill="#E6C2A1"/>
<path d="M225.92 268.096H199.413C198.976 268.096 198.622 267.659 198.622 267.12V250.839C198.622 250.301 198.976 249.864 199.413 249.864H225.92C226.357 249.864 226.711 250.301 226.711 250.839V267.12C226.711 267.659 226.357 268.096 225.92 268.096ZM200.203 266.145H225.13V251.815H200.203V266.145Z" fill="#E6C2A1"/>
<path d="M252.428 268.096H225.92C225.484 268.096 225.13 267.659 225.13 267.12V250.839C225.13 250.301 225.484 249.864 225.92 249.864H252.428C252.865 249.864 253.219 250.301 253.219 250.839V267.12C253.219 267.659 252.865 268.096 252.428 268.096ZM226.711 266.145H251.638V251.815H226.711V266.145Z" fill="#E6C2A1"/>
<path d="M106.747 69.9398H80.2394C79.8025 69.9398 79.4489 69.5034 79.4489 68.9642C79.4489 68.425 79.8025 67.9886 80.2394 67.9886H106.747C107.184 67.9886 107.538 68.425 107.538 68.9642C107.538 69.5034 107.184 69.9398 106.747 69.9398Z" fill="#E6C2A1"/>
<path d="M191.01 102.981H159.689C159.252 102.981 158.898 102.544 158.898 102.005C158.898 101.466 159.252 101.03 159.689 101.03H191.01C191.446 101.03 191.8 101.466 191.8 102.005C191.8 102.544 191.446 102.981 191.01 102.981Z" fill="#E6C2A1"/>
<path d="M93.4563 94.6965H57.9318C57.4949 94.6965 57.1412 94.2601 57.1412 93.7209C57.1412 93.1817 57.4949 92.7453 57.9318 92.7453H93.4563C93.8932 92.7453 94.2469 93.1817 94.2469 93.7209C94.2469 94.2601 93.8932 94.6965 93.4563 94.6965Z" fill="#E6C2A1"/>
</svg>
