<svg width="359" height="99" viewBox="0 0 359 99" fill="none" xmlns="http://www.w3.org/2000/svg">
<g clip-path="url(#clip0_322_18)">
<path d="M99 0H0V99H99V0Z" fill="#050714"/>
<path d="M74.448 31.8525V57.3835C74.448 63.9535 70.8524 69.9966 65.0784 73.1312L49.61 81.5283L33.8806 73.1095C28.0544 69.9912 24.4174 63.9197 24.4174 57.3116V31.8525L39.1426 23.6912C39.1426 23.6912 39.1426 41.6389 39.1426 53.9962C39.1426 55.7881 39.2434 57.6442 40.2005 59.1588C42.0165 62.032 45.5512 63.9784 49.4326 63.9784C53.3142 63.9784 56.8488 62.032 58.6647 59.1588C59.622 57.6442 59.7228 55.789 59.7228 53.9971V23.6912L74.448 31.8525Z" fill="white"/>
<path fill-rule="evenodd" clip-rule="evenodd" d="M49.5775 0.0931396C76.9026 0.0931396 99.0542 22.2447 99.0542 49.5698C99.0542 76.8952 76.9026 99.0468 49.5775 99.0468C22.2522 99.0468 0.100616 76.8952 0.100616 49.5698C0.100616 22.2447 22.2522 0.0931396 49.5775 0.0931396ZM49.5775 3.58762C24.1822 3.58762 3.59509 24.1746 3.59509 49.5698C3.59509 74.9654 24.1822 95.5522 49.5775 95.5522C74.9728 95.5522 95.5599 74.9654 95.5599 49.5698C95.5599 24.1746 74.9728 3.58762 49.5775 3.58762Z" fill="white"/>
</g>
<path d="M137.515 30.1013L136.724 17.9767C136.666 17.2006 136.475 16.5929 136.153 16.1536C135.846 15.7143 135.362 15.4068 134.703 15.231L133.847 15.0334C133.408 14.9162 133.1 14.7698 132.924 14.5941C132.749 14.4037 132.661 14.1474 132.661 13.8253C132.661 13.5031 132.771 13.2469 132.99 13.0565C133.21 12.8515 133.525 12.749 133.935 12.749H142.018C142.442 12.749 142.765 12.8515 142.984 13.0565C143.204 13.2469 143.314 13.5031 143.314 13.8253C143.314 14.1474 143.219 14.3964 143.028 14.5721C142.838 14.7478 142.53 14.9016 142.106 15.0334L141.293 15.231C140.502 15.4653 139.953 15.8168 139.646 16.2854C139.338 16.754 139.214 17.3616 139.272 18.1085L140.107 29.9915C140.165 30.7676 140.217 31.5291 140.261 32.2759C140.305 33.0081 140.326 33.7695 140.326 34.5602C140.341 36.4053 139.924 38.06 139.074 39.5243C138.24 40.9887 136.937 42.1455 135.165 42.9948C133.408 43.8441 131.152 44.2688 128.399 44.2688C125.529 44.2688 123.143 43.8734 121.239 43.0827C119.335 42.2919 117.908 41.179 116.956 39.744C116.019 38.2943 115.55 36.603 115.55 34.6701C115.565 34.3626 115.579 33.9672 115.594 33.484C115.623 32.9861 115.652 32.4004 115.682 31.7268C115.726 31.0385 115.777 30.2624 115.836 29.3985L116.626 16.5489C116.656 16.1682 116.575 15.8827 116.385 15.6923C116.209 15.5019 115.879 15.3555 115.396 15.253L114.32 15.0334C113.5 14.8576 113.09 14.4549 113.09 13.8253C113.09 13.5031 113.2 13.2469 113.419 13.0565C113.654 12.8515 113.983 12.749 114.408 12.749H127.191C127.601 12.749 127.916 12.8515 128.136 13.0565C128.37 13.2469 128.487 13.5031 128.487 13.8253C128.487 14.1474 128.392 14.4037 128.202 14.5941C128.011 14.7844 127.704 14.9309 127.279 15.0334L126.159 15.253C125.778 15.3262 125.493 15.4653 125.302 15.6703C125.127 15.8607 125.024 16.1463 124.995 16.527L124.226 29.4204C124.168 30.4015 124.124 31.3021 124.094 32.1221C124.08 32.9422 124.072 33.6524 124.072 34.2527C124.058 36.83 124.614 38.7043 125.742 39.8758C126.869 41.0472 128.407 41.633 130.354 41.633C131.863 41.633 133.166 41.3474 134.264 40.7763C135.377 40.2052 136.226 39.3925 136.812 38.3382C137.412 37.2839 137.705 36.0246 137.691 34.5602C137.691 33.5206 137.669 32.6639 137.625 31.9903C137.595 31.3167 137.559 30.6871 137.515 30.1013ZM146.131 42.4457C146.131 41.8746 146.432 41.4865 147.032 41.2815L148.196 40.974C148.548 40.8715 148.811 40.7251 148.987 40.5347C149.163 40.3297 149.25 40.0661 149.25 39.744V16.505C149.25 16.1829 149.163 15.9266 148.987 15.7362C148.811 15.5312 148.548 15.3775 148.196 15.275L147.032 14.9675C146.432 14.7625 146.131 14.3744 146.131 13.8033C146.131 13.4665 146.241 13.2103 146.461 13.0345C146.695 12.8442 147.039 12.749 147.493 12.749H159.969C162.664 12.749 165.116 13.1444 167.328 13.9351C169.539 14.7258 171.442 15.8607 173.039 17.3397C174.635 18.804 175.865 20.5539 176.729 22.5893C177.593 24.6101 178.025 26.8579 178.025 29.3326C178.025 32.1002 177.373 34.5529 176.07 36.6908C174.766 38.8141 172.921 40.4835 170.535 41.6989C168.148 42.8996 165.307 43.5 162.012 43.5H147.493C147.039 43.5 146.695 43.4048 146.461 43.2145C146.241 43.0241 146.131 42.7678 146.131 42.4457ZM161.199 41.2156C162.796 41.2156 164.209 40.791 165.439 39.9417C166.669 39.0924 167.628 37.7745 168.316 35.988C169.019 34.2015 169.37 31.9025 169.37 29.091C169.37 26.8798 169.136 24.903 168.668 23.1604C168.199 21.4179 167.518 19.9462 166.625 18.7454C165.746 17.53 164.677 16.6075 163.418 15.9779C162.159 15.3482 160.745 15.0334 159.179 15.0334H157.619V39.2388C157.619 39.9124 157.802 40.4103 158.168 40.7324C158.534 41.0546 159.076 41.2156 159.794 41.2156H161.199ZM198.227 33.6377L191.33 34.6481L182.544 16.6148C182.295 16.117 182.075 15.7728 181.885 15.5825C181.695 15.3921 181.438 15.2384 181.116 15.1212L180.479 14.9016C180.186 14.7991 179.974 14.6526 179.842 14.4623C179.71 14.2573 179.645 14.0376 179.645 13.8033C179.645 13.4812 179.754 13.2249 179.974 13.0345C180.208 12.8442 180.56 12.749 181.028 12.749H192.604C193.087 12.749 193.439 12.8442 193.658 13.0345C193.892 13.2103 194.01 13.4665 194.01 13.8033C194.01 14.3891 193.687 14.7771 193.043 14.9675L192.121 15.1651C191.652 15.2969 191.374 15.48 191.286 15.7143C191.213 15.9486 191.286 16.322 191.506 16.8345L198.117 31.6828L195.723 32.8909L202.51 18.1963C202.818 17.5081 202.876 16.8931 202.686 16.3513C202.495 15.7948 202.02 15.3848 201.258 15.1212L200.467 14.9016C200.248 14.8137 200.065 14.6819 199.918 14.5062C199.786 14.3158 199.721 14.0815 199.721 13.8033C199.721 13.4812 199.83 13.2249 200.05 13.0345C200.27 12.8442 200.614 12.749 201.082 12.749H207.694C208.162 12.749 208.507 12.8442 208.726 13.0345C208.96 13.2103 209.078 13.4665 209.078 13.8033C209.078 14.0669 209.012 14.2792 208.88 14.4403C208.763 14.6014 208.565 14.7478 208.287 14.8796L207.935 15.0553C207.613 15.1871 207.313 15.3775 207.035 15.6264C206.757 15.8607 206.478 16.1975 206.2 16.6368C205.922 17.0761 205.607 17.6838 205.256 18.4599L198.227 33.6377ZM190.429 32.232L198.798 32.188V39.7659C198.798 40.0735 198.893 40.3297 199.084 40.5347C199.274 40.7251 199.537 40.8788 199.874 40.996L200.994 41.2815C201.61 41.4865 201.917 41.8746 201.917 42.4457C201.917 42.7678 201.807 43.0241 201.588 43.2145C201.368 43.4048 201.024 43.5 200.555 43.5H188.694C188.226 43.5 187.881 43.4048 187.662 43.2145C187.442 43.0241 187.332 42.7678 187.332 42.4457C187.332 41.8746 187.632 41.4865 188.233 41.2815L189.353 40.996C189.719 40.8788 189.99 40.7251 190.166 40.5347C190.341 40.3297 190.429 40.0735 190.429 39.7659V32.232ZM226.304 11.9802C228.764 11.9802 230.976 12.3756 232.938 13.1663C234.915 13.9571 236.599 15.07 237.99 16.505C239.395 17.9401 240.472 19.6533 241.219 21.6448C241.965 23.6363 242.339 25.8401 242.339 28.2563C242.339 30.5406 241.965 32.6639 241.219 34.6261C240.486 36.5737 239.425 38.2723 238.034 39.722C236.657 41.1571 234.995 42.2773 233.048 43.0827C231.115 43.8734 228.947 44.2688 226.546 44.2688C224.101 44.2688 221.889 43.8807 219.913 43.1046C217.95 42.3139 216.266 41.201 214.861 39.7659C213.469 38.3163 212.401 36.5957 211.654 34.6042C210.922 32.6127 210.555 30.3942 210.555 27.9488C210.555 25.6791 210.922 23.5777 211.654 21.6448C212.401 19.6973 213.462 18.006 214.839 16.5709C216.215 15.1212 217.87 13.9937 219.803 13.1883C221.75 12.3829 223.917 11.9802 226.304 11.9802ZM233.75 33.4181C233.75 31.4266 233.582 29.4937 233.245 27.6193C232.908 25.745 232.44 24.0097 231.84 22.4136C231.254 20.8028 230.573 19.3971 229.797 18.1963C229.021 16.9809 228.186 16.0364 227.293 15.3628C226.4 14.6746 225.492 14.3305 224.569 14.3305C223.442 14.3305 222.475 14.66 221.67 15.3189C220.879 15.9632 220.264 16.915 219.825 18.1744C219.4 19.4337 219.188 20.9712 219.188 22.787C219.188 24.7931 219.356 26.7334 219.693 28.6077C220.03 30.4821 220.491 32.232 221.077 33.8574C221.677 35.4681 222.365 36.8812 223.141 38.0966C223.917 39.312 224.745 40.2638 225.623 40.9521C226.517 41.6257 227.432 41.9624 228.369 41.9624C229.511 41.9624 230.478 41.633 231.268 40.974C232.074 40.3151 232.689 39.3559 233.114 38.0966C233.538 36.8226 233.75 35.2631 233.75 33.4181ZM274.915 23.4679C274.915 24.8444 274.592 26.1037 273.948 27.2459C273.318 28.3881 272.418 29.3472 271.246 30.1233C270.075 30.8848 268.669 31.4192 267.029 31.7268C266.4 31.8293 265.821 31.9464 265.294 32.0782C264.767 32.21 264.232 32.3271 263.69 32.4296C263.149 32.5175 262.548 32.5614 261.889 32.5614C260.923 32.5614 260.037 32.4955 259.232 32.3637C258.441 32.232 257.723 32.0416 257.079 31.7927C256.435 31.5437 255.849 31.2582 255.322 30.936L255.432 28.8933C255.856 29.2008 256.31 29.457 256.793 29.662C257.291 29.8524 257.826 29.9988 258.397 30.1013C258.983 30.2039 259.62 30.2551 260.308 30.2551C262.197 30.2551 263.676 29.7206 264.745 28.6517C265.814 27.5681 266.348 25.906 266.348 23.6656C266.348 21.967 266.019 20.4587 265.36 19.1408C264.716 17.8083 263.808 16.7613 262.636 15.9998C261.479 15.2384 260.154 14.8576 258.661 14.8576H257.277V39.7001C257.277 40.0369 257.35 40.3078 257.496 40.5128C257.643 40.7031 257.877 40.8642 258.199 40.996L259.341 41.2815C259.693 41.428 259.927 41.589 260.044 41.7648C260.176 41.9405 260.242 42.1675 260.242 42.4457C260.242 43.1486 259.788 43.5 258.88 43.5H247.151C246.682 43.5 246.338 43.4048 246.118 43.2145C245.899 43.0241 245.789 42.7678 245.789 42.4457C245.789 41.8746 246.089 41.4865 246.69 41.2815L247.81 40.996C248.176 40.8788 248.447 40.7178 248.623 40.5128C248.798 40.3078 248.886 40.0369 248.886 39.7001V16.483C248.886 16.1755 248.798 15.9266 248.623 15.7362C248.447 15.5312 248.176 15.3702 247.81 15.253L246.69 14.9675C246.089 14.7625 245.789 14.3744 245.789 13.8033C245.789 13.4812 245.899 13.2249 246.118 13.0345C246.338 12.8442 246.682 12.749 247.151 12.749H258.924C262.336 12.749 265.228 13.2029 267.6 14.1108C269.987 15.0041 271.803 16.2561 273.048 17.8668C274.292 19.4776 274.915 21.3446 274.915 23.4679ZM261.055 31.595L269.138 30.6944L274.585 39.7659C274.849 40.1906 275.105 40.5201 275.354 40.7544C275.617 40.974 275.947 41.1497 276.342 41.2815C276.708 41.428 276.965 41.589 277.111 41.7648C277.258 41.9405 277.331 42.1675 277.331 42.4457C277.331 42.7678 277.214 43.0241 276.979 43.2145C276.76 43.4048 276.416 43.5 275.947 43.5H265.579C264.701 43.5 264.262 43.1486 264.262 42.4457C264.262 42.2553 264.306 42.0942 264.393 41.9624C264.496 41.8307 264.65 41.7062 264.855 41.589L265.36 41.4133C265.667 41.2376 265.843 41.0546 265.887 40.8642C265.946 40.6592 265.865 40.3663 265.645 39.9856L261.055 31.595ZM285.32 30.8701H297.862L297.928 33.2643H285.21L285.32 30.8701ZM288.154 42.4457C288.154 42.7678 288.044 43.0241 287.824 43.2145C287.619 43.4048 287.282 43.5 286.814 43.5H279.697C279.243 43.5 278.899 43.4048 278.665 43.2145C278.445 43.0241 278.335 42.7678 278.335 42.4457C278.335 42.2114 278.394 42.0137 278.511 41.8526C278.643 41.6769 278.855 41.5158 279.148 41.3694L279.741 41.0838C280.224 40.8496 280.62 40.5201 280.927 40.0954C281.235 39.6561 281.542 38.924 281.85 37.8989L288.242 17.5154C288.461 16.7832 288.52 16.2414 288.417 15.89C288.329 15.5386 288.029 15.253 287.517 15.0334C287.151 14.8576 286.887 14.6746 286.726 14.4842C286.58 14.2939 286.506 14.0669 286.506 13.8033C286.506 13.4665 286.616 13.2103 286.836 13.0345C287.07 12.8442 287.422 12.749 287.89 12.749H299.927C300.396 12.749 300.74 12.8442 300.959 13.0345C301.179 13.2103 301.289 13.4665 301.289 13.8033C301.289 14.0815 301.208 14.3158 301.047 14.5062C300.901 14.6966 300.659 14.8576 300.322 14.9894C299.971 15.1212 299.759 15.3116 299.685 15.5605C299.612 15.7948 299.663 16.1902 299.839 16.7466L306.934 38.7336C307.168 39.4804 307.41 40.0369 307.659 40.4029C307.908 40.769 308.244 41.0326 308.669 41.1937C309.079 41.3694 309.35 41.5524 309.482 41.7428C309.628 41.9185 309.701 42.1528 309.701 42.4457C309.701 42.7678 309.584 43.0241 309.35 43.2145C309.13 43.4048 308.786 43.5 308.318 43.5H297.577C297.108 43.5 296.757 43.4048 296.522 43.2145C296.303 43.0241 296.193 42.7678 296.193 42.4457C296.193 42.1675 296.266 41.9478 296.413 41.7867C296.574 41.6257 296.808 41.4865 297.115 41.3694L298.082 41.0838C298.463 40.9374 298.646 40.7324 298.631 40.4688C298.616 40.2052 298.521 39.7806 298.345 39.1949L291.031 15.9339L291.822 15.231L284.859 37.5475C284.654 38.2211 284.566 38.7775 284.595 39.2168C284.625 39.6415 284.793 40.0002 285.101 40.2931C285.408 40.586 285.855 40.8642 286.44 41.1278L287.275 41.3914C287.553 41.5085 287.766 41.6476 287.912 41.8087C288.073 41.9551 288.154 42.1675 288.154 42.4457ZM133.056 57.8033C133.056 57.4812 133.166 57.2249 133.386 57.0345C133.605 56.8442 133.949 56.749 134.418 56.749H141.447C141.915 56.749 142.259 56.8442 142.479 57.0345C142.699 57.2103 142.809 57.4665 142.809 57.8033C142.809 58.0523 142.735 58.2573 142.589 58.4183C142.457 58.5648 142.237 58.7112 141.93 58.8576L141.205 59.1432C140.693 59.3775 140.246 59.7362 139.865 60.2195C139.499 60.6881 139.162 61.4202 138.855 62.416L132.265 82.7775C132.09 83.3486 131.965 83.8099 131.892 84.1613C131.819 84.5128 131.782 84.8715 131.782 85.2376V86.4457C131.782 86.7825 131.672 87.0461 131.453 87.2364C131.248 87.4121 130.984 87.5 130.662 87.5H123.897C123.575 87.5 123.311 87.4121 123.106 87.2364C122.916 87.0461 122.82 86.7678 122.82 86.4017V85.2156C122.82 84.9813 122.776 84.7104 122.689 84.4029C122.615 84.0808 122.513 83.7293 122.381 83.3486L114.759 60.7686C114.598 60.3 114.43 59.9632 114.254 59.7582C114.078 59.5386 113.837 59.3555 113.529 59.2091L112.76 58.9235C112.233 58.6746 111.97 58.3012 111.97 57.8033C111.97 57.4812 112.079 57.2249 112.299 57.0345C112.533 56.8442 112.885 56.749 113.353 56.749H124.973C125.442 56.749 125.786 56.8442 126.005 57.0345C126.225 57.2249 126.335 57.4812 126.335 57.8033C126.335 58.0669 126.262 58.2792 126.115 58.4403C125.969 58.6014 125.734 58.7478 125.412 58.8796L124.314 59.1651C123.933 59.3116 123.699 59.5386 123.611 59.8461C123.523 60.1389 123.575 60.5856 123.765 61.1859L130.947 82.9093L128.839 84.8642L136.241 62.1963C136.49 61.4495 136.519 60.8345 136.329 60.3513C136.138 59.8534 135.648 59.4434 134.857 59.1212L133.935 58.8576C133.642 58.7258 133.422 58.5867 133.276 58.4403C133.129 58.2939 133.056 58.0815 133.056 57.8033ZM153.648 70.7407H159.755C160.721 70.7407 161.417 70.543 161.841 70.1476C162.266 69.7523 162.603 68.9908 162.852 67.8633C162.954 67.4972 163.101 67.2336 163.291 67.0725C163.496 66.8968 163.73 66.8016 163.994 66.787C164.58 66.7724 164.946 67.1018 165.092 67.7754L166.937 74.7383C167.04 75.1337 167.04 75.4485 166.937 75.6828C166.835 75.9171 166.63 76.0855 166.322 76.188C166.015 76.2905 165.729 76.3052 165.465 76.232C165.216 76.1441 164.997 75.9611 164.806 75.6828C164.309 74.9507 163.855 74.3942 163.445 74.0135C163.035 73.6181 162.588 73.3472 162.105 73.2008C161.636 73.0544 161.036 72.9811 160.304 72.9811H153.648V70.7407ZM145.016 57.8033C145.016 57.4812 145.126 57.2249 145.345 57.0345C145.58 56.8442 145.931 56.749 146.4 56.749H163.554C164.111 56.749 164.572 56.6831 164.938 56.5513C165.319 56.4195 165.67 56.2877 165.993 56.1559C166.315 56.0242 166.666 55.9583 167.047 55.9583C167.501 55.9583 167.845 56.0974 168.079 56.3756C168.328 56.6392 168.541 57.0785 168.716 57.6935L170.561 64.283C170.678 64.6637 170.678 64.9859 170.561 65.2495C170.444 65.4984 170.225 65.6814 169.902 65.7986C169.522 65.9304 169.178 65.9304 168.87 65.7986C168.577 65.6521 168.336 65.3886 168.145 65.0078C167.442 63.7632 166.798 62.7528 166.212 61.9767C165.627 61.2006 165.048 60.6002 164.477 60.1755C163.921 59.7362 163.335 59.4361 162.72 59.275C162.105 59.1139 161.417 59.0334 160.655 59.0334H156.504V83.0411C156.504 83.7586 156.694 84.3004 157.075 84.6665C157.47 85.0326 158.041 85.2156 158.788 85.2156H161.248C162.273 85.2156 163.188 85.0326 163.994 84.6665C164.814 84.2858 165.619 83.5829 166.41 82.5579C167.215 81.5182 168.101 80.0099 169.068 78.0331C169.229 77.6963 169.441 77.462 169.705 77.3302C169.968 77.1984 170.268 77.1691 170.605 77.2423C170.971 77.3009 171.235 77.4693 171.396 77.7475C171.572 78.0111 171.601 78.3552 171.484 78.7799L169.441 86.5116C169.265 87.112 169.053 87.5513 168.804 87.8295C168.555 88.1077 168.182 88.2468 167.684 88.2468C167.347 88.2468 167.018 88.1809 166.695 88.0491C166.388 87.932 166.044 87.8075 165.663 87.6757C165.282 87.5586 164.814 87.5 164.257 87.5H146.4C145.931 87.5 145.58 87.4048 145.345 87.2145C145.126 87.0241 145.016 86.7678 145.016 86.4457C145.016 85.8746 145.324 85.4865 145.939 85.2815L147.059 84.996C147.41 84.8788 147.674 84.7251 147.849 84.5347C148.04 84.3297 148.135 84.0735 148.135 83.7659V60.483C148.135 60.1755 148.04 59.9266 147.849 59.7362C147.674 59.5312 147.41 59.3702 147.059 59.253L145.939 58.9675C145.324 58.7625 145.016 58.3744 145.016 57.8033ZM183.764 86.4457C183.764 86.7678 183.647 87.0241 183.413 87.2145C183.193 87.3902 182.856 87.4854 182.402 87.5H175.088C174.619 87.4854 174.268 87.3902 174.033 87.2145C173.814 87.0241 173.704 86.7678 173.704 86.4457C173.704 85.9039 174.033 85.5012 174.692 85.2376L175.461 84.974C176.149 84.7104 176.647 84.381 176.955 83.9856C177.277 83.5902 177.438 82.9825 177.438 82.1625V63.7998C177.438 63.3458 177.387 62.9871 177.284 62.7235C177.196 62.4599 176.977 62.1011 176.625 61.6472L174.802 59.1212C174.553 58.7844 174.378 58.5208 174.275 58.3305C174.173 58.1255 174.121 57.9205 174.121 57.7155C174.121 57.4079 174.231 57.1737 174.451 57.0126C174.67 56.8369 174.956 56.749 175.307 56.749H181.919C182.358 56.749 182.717 56.8295 182.995 56.9906C183.288 57.137 183.581 57.4226 183.874 57.8472L199.293 79.944L198.261 82.7556V62.0865C198.261 61.2811 198.114 60.6807 197.822 60.2854C197.543 59.89 197.031 59.5532 196.284 59.275L195.471 59.0114C194.827 58.7185 194.505 58.3158 194.505 57.8033C194.505 57.4812 194.615 57.2249 194.834 57.0345C195.054 56.8442 195.391 56.749 195.845 56.749H203.159C203.628 56.749 203.972 56.8442 204.191 57.0345C204.426 57.2249 204.543 57.4812 204.543 57.8033C204.543 58.3305 204.213 58.7332 203.554 59.0114L202.786 59.275C202.097 59.5239 201.592 59.8461 201.27 60.2414C200.963 60.6368 200.809 61.2518 200.809 62.0865V80.7567C200.809 81.2253 200.853 81.6353 200.941 81.9868C201.028 82.3382 201.175 82.6604 201.38 82.9532L202.786 84.9301C203.093 85.3401 203.276 85.6476 203.335 85.8526C203.408 86.0576 203.445 86.2626 203.445 86.4676C203.445 86.7752 203.335 87.0241 203.115 87.2145C202.896 87.4048 202.595 87.5 202.215 87.5H194.878C194.146 87.5 193.78 87.2071 193.78 86.6214C193.78 86.4017 193.736 86.1821 193.648 85.9624C193.56 85.7428 193.319 85.3621 192.923 84.8203L177.658 62.9651L179.986 61.5593V82.1845C179.986 82.9606 180.132 83.5463 180.425 83.9417C180.718 84.337 181.231 84.6812 181.963 84.974L182.776 85.2376C183.435 85.5158 183.764 85.9185 183.764 86.4457ZM213.058 56.749H229.049C229.605 56.749 230.081 56.6904 230.476 56.5733C230.872 56.4415 231.216 56.3243 231.509 56.2218C231.816 56.1047 232.124 56.0461 232.431 56.0461C232.929 56.0461 233.302 56.1706 233.551 56.4195C233.815 56.6538 234.027 57.0785 234.188 57.6935L235.594 65.2275C235.682 65.6668 235.653 66.0256 235.506 66.3038C235.36 66.5674 235.104 66.7284 234.738 66.787C234.401 66.8602 234.101 66.8383 233.837 66.7211C233.573 66.604 233.346 66.355 233.156 65.9743C232.292 64.1146 231.538 62.6942 230.894 61.7131C230.264 60.732 229.656 60.0584 229.071 59.6923C228.485 59.3262 227.833 59.1432 227.116 59.1432H225.249V83.7659C225.249 84.0735 225.337 84.3297 225.512 84.5347C225.703 84.7251 225.974 84.8788 226.325 84.996L227.445 85.2815C228.046 85.4865 228.346 85.8746 228.346 86.4457C228.346 87.1486 227.892 87.5 226.984 87.5H215.123C214.669 87.5 214.325 87.4048 214.09 87.2145C213.871 87.0241 213.761 86.7678 213.761 86.4457C213.761 85.8746 214.061 85.4865 214.662 85.2815L215.804 84.996C216.155 84.8788 216.419 84.7251 216.594 84.5347C216.785 84.3297 216.88 84.0735 216.88 83.7659V59.1432H214.991C214.303 59.1432 213.666 59.3335 213.08 59.7143C212.494 60.095 211.879 60.7759 211.235 61.757C210.591 62.7381 209.829 64.1439 208.951 65.9743C208.775 66.355 208.555 66.604 208.292 66.7211C208.028 66.8383 207.728 66.8602 207.391 66.787C207.025 66.7284 206.769 66.5674 206.622 66.3038C206.476 66.0256 206.439 65.6668 206.513 65.2275L207.94 57.6935C208.101 57.0785 208.306 56.6538 208.555 56.4195C208.804 56.1706 209.185 56.0461 209.697 56.0461C209.99 56.0461 210.283 56.1047 210.576 56.2218C210.884 56.3243 211.235 56.4415 211.63 56.5733C212.026 56.6904 212.502 56.749 213.058 56.749ZM262.698 74.1013L261.908 61.9767C261.849 61.2006 261.659 60.5929 261.336 60.1536C261.029 59.7143 260.546 59.4068 259.887 59.231L259.03 59.0334C258.591 58.9162 258.283 58.7698 258.108 58.5941C257.932 58.4037 257.844 58.1474 257.844 57.8253C257.844 57.5031 257.954 57.2469 258.174 57.0565C258.393 56.8515 258.708 56.749 259.118 56.749H267.201C267.626 56.749 267.948 56.8515 268.168 57.0565C268.387 57.2469 268.497 57.5031 268.497 57.8253C268.497 58.1474 268.402 58.3964 268.212 58.5721C268.021 58.7478 267.714 58.9016 267.289 59.0334L266.476 59.231C265.686 59.4653 265.136 59.8168 264.829 60.2854C264.521 60.754 264.397 61.3616 264.456 62.1085L265.29 73.9915C265.349 74.7676 265.4 75.5291 265.444 76.2759C265.488 77.0081 265.51 77.7695 265.51 78.5602C265.524 80.4053 265.107 82.06 264.258 83.5243C263.423 84.9887 262.12 86.1455 260.348 86.9948C258.591 87.8441 256.336 88.2688 253.583 88.2688C250.713 88.2688 248.326 87.8734 246.422 87.0827C244.519 86.2919 243.091 85.179 242.139 83.744C241.202 82.2943 240.733 80.603 240.733 78.6701C240.748 78.3626 240.763 77.9672 240.777 77.484C240.807 76.9861 240.836 76.4004 240.865 75.7268C240.909 75.0385 240.96 74.2624 241.019 73.3985L241.81 60.5489C241.839 60.1682 241.758 59.8827 241.568 59.6923C241.392 59.5019 241.063 59.3555 240.58 59.253L239.503 59.0334C238.683 58.8576 238.273 58.4549 238.273 57.8253C238.273 57.5031 238.383 57.2469 238.603 57.0565C238.837 56.8515 239.166 56.749 239.591 56.749H252.375C252.785 56.749 253.1 56.8515 253.319 57.0565C253.554 57.2469 253.671 57.5031 253.671 57.8253C253.671 58.1474 253.576 58.4037 253.385 58.5941C253.195 58.7844 252.887 58.9309 252.463 59.0334L251.342 59.253C250.962 59.3262 250.676 59.4653 250.486 59.6703C250.31 59.8607 250.208 60.1463 250.178 60.527L249.409 73.4204C249.351 74.4015 249.307 75.3021 249.278 76.1221C249.263 76.9422 249.256 77.6524 249.256 78.2527C249.241 80.83 249.798 82.7043 250.925 83.8758C252.053 85.0472 253.59 85.633 255.538 85.633C257.046 85.633 258.349 85.3474 259.447 84.7763C260.56 84.2052 261.41 83.3925 261.995 82.3382C262.596 81.2839 262.889 80.0246 262.874 78.5602C262.874 77.5206 262.852 76.6639 262.808 75.9903C262.779 75.3167 262.742 74.6871 262.698 74.1013ZM300.44 67.4679C300.44 68.8444 300.118 70.1037 299.474 71.2459C298.844 72.3881 297.944 73.3472 296.772 74.1233C295.601 74.8848 294.195 75.4192 292.555 75.7268C291.925 75.8293 291.347 75.9464 290.82 76.0782C290.293 76.21 289.758 76.3271 289.216 76.4296C288.674 76.5175 288.074 76.5614 287.415 76.5614C286.449 76.5614 285.563 76.4955 284.757 76.3637C283.967 76.232 283.249 76.0416 282.605 75.7927C281.96 75.5437 281.375 75.2582 280.848 74.936L280.957 72.8933C281.382 73.2008 281.836 73.457 282.319 73.662C282.817 73.8524 283.352 73.9988 283.923 74.1013C284.508 74.2039 285.145 74.2551 285.834 74.2551C287.723 74.2551 289.202 73.7206 290.271 72.6517C291.34 71.5681 291.874 69.906 291.874 67.6656C291.874 65.967 291.545 64.4587 290.886 63.1408C290.241 61.8083 289.333 60.7613 288.162 59.9998C287.005 59.2384 285.68 58.8576 284.186 58.8576H282.802V83.7001C282.802 84.0369 282.876 84.3078 283.022 84.5128C283.169 84.7031 283.403 84.8642 283.725 84.996L284.867 85.2815C285.219 85.428 285.453 85.589 285.57 85.7648C285.702 85.9405 285.768 86.1675 285.768 86.4457C285.768 87.1486 285.314 87.5 284.406 87.5H272.677C272.208 87.5 271.864 87.4048 271.644 87.2145C271.425 87.0241 271.315 86.7678 271.315 86.4457C271.315 85.8746 271.615 85.4865 272.215 85.2815L273.336 84.996C273.702 84.8788 273.973 84.7178 274.148 84.5128C274.324 84.3078 274.412 84.0369 274.412 83.7001V60.483C274.412 60.1755 274.324 59.9266 274.148 59.7362C273.973 59.5312 273.702 59.3702 273.336 59.253L272.215 58.9675C271.615 58.7625 271.315 58.3744 271.315 57.8033C271.315 57.4812 271.425 57.2249 271.644 57.0345C271.864 56.8442 272.208 56.749 272.677 56.749H284.45C287.862 56.749 290.754 57.2029 293.126 58.1108C295.513 59.0041 297.329 60.2561 298.573 61.8668C299.818 63.4776 300.44 65.3446 300.44 67.4679ZM286.58 75.595L294.664 74.6944L300.111 83.7659C300.374 84.1906 300.631 84.5201 300.88 84.7544C301.143 84.974 301.473 85.1497 301.868 85.2815C302.234 85.428 302.49 85.589 302.637 85.7648C302.783 85.9405 302.857 86.1675 302.857 86.4457C302.857 86.7678 302.739 87.0241 302.505 87.2145C302.285 87.4048 301.941 87.5 301.473 87.5H291.105C290.227 87.5 289.787 87.1486 289.787 86.4457C289.787 86.2553 289.831 86.0942 289.919 85.9624C290.022 85.8307 290.175 85.7062 290.38 85.589L290.886 85.4133C291.193 85.2376 291.369 85.0546 291.413 84.8642C291.471 84.6592 291.391 84.3663 291.171 83.9856L286.58 75.595ZM314.01 70.7407H320.116C321.083 70.7407 321.778 70.543 322.203 70.1476C322.628 69.7523 322.964 68.9908 323.213 67.8633C323.316 67.4972 323.462 67.2336 323.653 67.0725C323.858 66.8968 324.092 66.8016 324.355 66.787C324.941 66.7724 325.307 67.1018 325.454 67.7754L327.299 74.7383C327.401 75.1337 327.401 75.4485 327.299 75.6828C327.196 75.9171 326.991 76.0855 326.684 76.188C326.376 76.2905 326.091 76.3052 325.827 76.232C325.578 76.1441 325.359 75.9611 325.168 75.6828C324.67 74.9507 324.216 74.3942 323.806 74.0135C323.396 73.6181 322.95 73.3472 322.466 73.2008C321.998 73.0544 321.397 72.9811 320.665 72.9811H314.01V70.7407ZM305.378 57.8033C305.378 57.4812 305.488 57.2249 305.707 57.0345C305.941 56.8442 306.293 56.749 306.761 56.749H323.916C324.473 56.749 324.934 56.6831 325.3 56.5513C325.681 56.4195 326.032 56.2877 326.354 56.1559C326.676 56.0242 327.028 55.9583 327.409 55.9583C327.863 55.9583 328.207 56.0974 328.441 56.3756C328.69 56.6392 328.902 57.0785 329.078 57.6935L330.923 64.283C331.04 64.6637 331.04 64.9859 330.923 65.2495C330.806 65.4984 330.586 65.6814 330.264 65.7986C329.883 65.9304 329.539 65.9304 329.232 65.7986C328.939 65.6521 328.697 65.3886 328.507 65.0078C327.804 63.7632 327.16 62.7528 326.574 61.9767C325.988 61.2006 325.41 60.6002 324.839 60.1755C324.282 59.7362 323.696 59.4361 323.081 59.275C322.466 59.1139 321.778 59.0334 321.017 59.0334H316.865V83.0411C316.865 83.7586 317.056 84.3004 317.436 84.6665C317.832 85.0326 318.403 85.2156 319.15 85.2156H321.61C322.635 85.2156 323.55 85.0326 324.355 84.6665C325.175 84.2858 325.981 83.5829 326.772 82.5579C327.577 81.5182 328.463 80.0099 329.429 78.0331C329.59 77.6963 329.803 77.462 330.066 77.3302C330.33 77.1984 330.63 77.1691 330.967 77.2423C331.333 77.3009 331.597 77.4693 331.758 77.7475C331.933 78.0111 331.963 78.3552 331.846 78.7799L329.803 86.5116C329.627 87.112 329.415 87.5513 329.166 87.8295C328.917 88.1077 328.543 88.2468 328.046 88.2468C327.709 88.2468 327.379 88.1809 327.057 88.0491C326.75 87.932 326.406 87.8075 326.025 87.6757C325.644 87.5586 325.175 87.5 324.619 87.5H306.761C306.293 87.5 305.941 87.4048 305.707 87.2145C305.488 87.0241 305.378 86.7678 305.378 86.4457C305.378 85.8746 305.685 85.4865 306.3 85.2815L307.42 84.996C307.772 84.8788 308.035 84.7251 308.211 84.5347C308.402 84.3297 308.497 84.0735 308.497 83.7659V60.483C308.497 60.1755 308.402 59.9266 308.211 59.7362C308.035 59.5312 307.772 59.3702 307.42 59.253L306.3 58.9675C305.685 58.7625 305.378 58.3744 305.378 57.8033ZM347.135 88.137C345.993 88.137 345.019 87.9979 344.214 87.7197C343.408 87.4561 342.749 87.1925 342.237 86.9289C341.724 86.6653 341.329 86.5335 341.051 86.5335C340.772 86.5335 340.509 86.6214 340.26 86.7971C340.011 86.9582 339.769 87.1559 339.535 87.3902C339.301 87.6098 339.059 87.8002 338.81 87.9613C338.561 88.137 338.298 88.2248 338.019 88.2248C337.697 88.2248 337.419 88.1223 337.185 87.9173C336.965 87.727 336.819 87.4048 336.745 86.9509L335.34 79.1313C335.281 78.7945 335.325 78.5163 335.471 78.2967C335.618 78.0624 335.852 77.8867 336.174 77.7695C336.526 77.6377 336.833 77.645 337.097 77.7915C337.375 77.9233 337.617 78.1868 337.822 78.5822C338.803 80.4566 339.769 81.9209 340.721 82.9752C341.673 84.0149 342.632 84.7471 343.598 85.1717C344.565 85.5817 345.546 85.7867 346.542 85.7867C347.918 85.7867 349.009 85.4426 349.815 84.7544C350.635 84.0661 351.045 83.0997 351.045 81.855C351.045 81.035 350.854 80.3028 350.474 79.6585C350.107 79.0142 349.397 78.3992 348.343 77.8134C347.289 77.2131 345.751 76.598 343.73 75.9684C341.446 75.2509 339.616 74.4162 338.239 73.4644C336.877 72.5125 335.889 71.385 335.274 70.0818C334.659 68.7785 334.351 67.2556 334.351 65.513C334.351 63.6826 334.798 62.0719 335.691 60.6807C336.584 59.275 337.844 58.1767 339.469 57.386C341.094 56.5952 342.991 56.1999 345.158 56.1999C346.403 56.1999 347.442 56.3243 348.277 56.5733C349.112 56.8076 349.807 57.0492 350.364 57.2981C350.92 57.5471 351.381 57.6715 351.748 57.6715C352.084 57.6715 352.384 57.5397 352.648 57.2762C352.926 57.0126 353.212 56.749 353.505 56.4854C353.812 56.2218 354.171 56.09 354.581 56.09C354.918 56.09 355.203 56.1999 355.438 56.4195C355.672 56.6392 355.87 57.0492 356.031 57.6496L358.117 65.3154C358.235 65.7107 358.22 66.0622 358.073 66.3697C357.942 66.6772 357.7 66.8895 357.349 67.0067C356.997 67.1238 356.682 67.1165 356.404 66.9847C356.141 66.8383 355.914 66.5893 355.723 66.2379C354.698 64.2757 353.644 62.7381 352.56 61.6252C351.477 60.4977 350.386 59.6996 349.287 59.231C348.204 58.7625 347.128 58.5282 346.059 58.5282C344.711 58.5282 343.65 58.9162 342.874 59.6923C342.098 60.4684 341.71 61.4861 341.71 62.7454C341.71 63.5508 341.885 64.283 342.237 64.9419C342.603 65.6009 343.298 66.2525 344.323 66.8968C345.348 67.5265 346.842 68.1928 348.804 68.8956C351.103 69.701 352.926 70.5796 354.273 71.5314C355.635 72.4833 356.616 73.5669 357.217 74.7823C357.817 75.983 358.117 77.3741 358.117 78.9556C358.117 80.6542 357.678 82.1991 356.799 83.5902C355.921 84.9667 354.669 86.0723 353.043 86.9069C351.418 87.727 349.449 88.137 347.135 88.137Z" fill="white"/>
<defs>
<clipPath id="clip0_322_18">
<rect width="99" height="99" rx="49.5" fill="white"/>
</clipPath>
</defs>
</svg>
