<svg width="157" height="212" viewBox="0 0 157 212" fill="none" xmlns="http://www.w3.org/2000/svg">
<path d="M66.4363 137.576C66.1192 137.576 65.813 137.452 65.5855 137.227L47.7573 119.605C47.282 119.135 47.2772 118.369 47.7474 117.893C48.2175 117.418 48.9839 117.414 49.459 117.883L66.2562 134.486L107.405 74.3686C107.782 73.8168 108.536 73.6761 109.087 74.0534C109.639 74.4308 109.78 75.1843 109.402 75.7358L67.4352 137.05C67.2326 137.346 66.909 137.537 66.5518 137.571C66.513 137.574 66.4745 137.576 66.4363 137.576Z" fill="black"/>
<path d="M78.5194 211.419C78.3086 211.419 78.0956 211.364 77.9014 211.249C70.5637 206.882 63.4683 201.786 56.8005 196.092C48.4223 200.837 39.8701 205.019 31.3684 208.529C30.7503 208.784 30.0429 208.49 29.7878 207.872C29.5327 207.254 29.8268 206.546 30.4448 206.291C38.6016 202.924 46.8075 198.929 54.8603 194.407C42.4436 183.434 21.205 160.964 9.00574 127.253C3.12728 111.009 0.0979976 94.059 0.00233581 76.8759C-0.106253 57.382 3.57177 37.3624 10.9343 17.373C11.0883 16.955 11.4594 16.6553 11.9002 16.5928C12.3412 16.5299 12.7807 16.715 13.0449 17.0737C16.0912 21.2124 20.8784 24.4039 26.8889 26.3031C32.818 28.1767 39.5376 28.6843 46.3205 27.7708C53.9914 26.7379 61.2166 23.9437 67.2153 19.6904C73.9636 14.9058 78.8979 8.54212 81.8813 0.776272C82.0563 0.321448 82.4867 0.0157184 82.9737 0.000421078C83.4552 -0.0122907 83.9094 0.263706 84.1119 0.707112C87.484 8.08384 91.8258 14.0104 97.0163 18.322C101.512 22.0561 106.665 24.6047 112.333 25.897C126.083 29.0312 139.963 24.0411 145.428 19.496C145.727 19.2472 146.129 19.1576 146.505 19.2547C146.882 19.3521 147.189 19.6249 147.33 19.9875C155.853 41.8809 158.766 63.7136 155.988 84.8792C153.616 102.952 147.124 120.53 136.692 137.125C128.172 150.677 116.855 163.671 103.965 174.7C93.4284 183.715 82.136 191.207 72.1677 195.794C71.7752 195.975 71.3169 195.932 70.9642 195.683C68.9435 194.259 66.9393 192.764 64.997 191.234C63.0273 192.456 61.0294 193.655 59.033 194.813C65.4036 200.191 72.1607 205.016 79.1388 209.168C79.7132 209.51 79.9017 210.253 79.56 210.827C79.3342 211.208 78.932 211.419 78.5194 211.419ZM67.1768 189.866C68.6871 191.041 70.2317 192.191 71.7888 193.301C81.4041 188.781 92.2436 181.544 102.391 172.861C115.099 161.988 126.251 149.185 134.642 135.837C144.888 119.539 151.262 102.289 153.588 84.564C156.249 64.2893 153.578 43.3714 145.649 22.3657C142.388 24.6463 137.691 26.6657 132.712 27.8942C127.782 29.1111 120.151 30.1619 111.795 28.2571C105.753 26.8795 100.26 24.1634 95.4698 20.184C90.5885 16.1291 86.4317 10.7473 83.0891 4.15999C79.8763 11.2463 75.0167 17.1263 68.6156 21.6648C62.2984 26.1437 54.7006 29.0846 46.6437 30.1697C44.3159 30.4831 42.0086 30.6359 39.7515 30.6361C28.4895 30.6365 18.4052 26.8353 12.4806 20.2124C5.70262 39.2614 2.31955 58.31 2.42296 76.8623C2.51712 93.7684 5.49773 110.445 11.282 126.429C23.5074 160.213 44.952 182.54 57.0872 193.142C59.0608 192.006 61.0393 190.829 62.9935 189.627C52.7764 181.279 43.7135 171.524 36.0391 160.611C28.0123 149.198 21.7126 136.813 17.3154 123.801C7.57857 94.979 7.24398 63.1267 16.3734 34.1114C16.4902 33.7402 16.7785 33.4478 17.148 33.3256C17.5173 33.2035 17.923 33.2664 18.2384 33.4948C29.1049 41.3705 40.8995 40.9622 48.8806 39.2328C64.2498 35.9023 77.4819 25.4163 82.1289 17.2409C82.3628 16.8291 82.814 16.5913 83.2876 16.6333C83.7592 16.6749 84.1634 16.9879 84.3217 17.4344C88.3249 28.7199 96.5624 37.0287 107.517 40.8303C118.487 44.6379 131.081 43.365 140.384 37.5085C140.722 37.296 141.142 37.2637 141.508 37.4212C141.874 37.5789 142.139 37.9068 142.217 38.2981C148.931 72.2617 143.453 103.963 125.936 132.521C118.698 144.322 109.369 155.589 98.2102 166.011C89.015 174.597 78.5808 182.618 67.1768 189.866ZM18.1977 36.4107C9.7215 64.5148 10.2106 95.2074 19.6087 123.026C23.9316 135.818 30.1257 147.995 38.0191 159.219C45.727 170.179 54.8575 179.951 65.1668 188.274C76.7233 180.987 87.2808 172.905 96.5576 164.241C107.558 153.968 116.747 142.87 123.872 131.255C140.77 103.706 146.248 73.164 140.165 40.4546C135.603 43.0196 130.348 44.6588 124.856 45.2187C118.748 45.8414 112.478 45.1147 106.722 43.1172C95.8083 39.3295 87.4314 31.351 82.9149 20.5145C80.1417 24.4853 75.8383 28.6195 70.7774 32.1312C64.1503 36.7294 56.7557 40.0032 49.3925 41.5987C37.8581 44.0977 27.1111 42.3023 18.1977 36.4107Z" fill="black"/>
</svg>
