<svg width="459" height="512" viewBox="0 0 459 512" fill="none" xmlns="http://www.w3.org/2000/svg">
<g clip-path="url(#clip0_337_1391)">
<path fill-rule="evenodd" clip-rule="evenodd" d="M153.34 236.22H153.19V280.04H153.34C154.76 280.04 156.05 279.46 156.98 278.52C157.92 277.6 158.5 276.31 158.5 274.88V241.38C158.5 240.04 157.98 238.81 157.14 237.89L156.98 237.74C156.503 237.26 155.936 236.878 155.311 236.618C154.687 236.357 154.017 236.222 153.34 236.22ZM428.56 361.11H420.57L420.52 129.12H428.56V361.11ZM420.57 405.99H428.56V476.89C428.56 478.43 429.77 479.79 431.14 479.79H431.72V484.19H27.28V479.79H27.86C29.23 479.79 30.43 478.43 30.43 476.89V405.99H38.43L38.42 473.88L153.19 438.74V288.02H153.34C156.96 288.02 160.25 286.54 162.62 284.15C165 281.77 166.48 278.48 166.48 274.88V241.38C166.48 237.9 165.1 234.72 162.86 232.36L162.62 232.1C161.404 230.876 159.958 229.905 158.366 229.243C156.773 228.58 155.065 228.239 153.34 228.24L153.19 228.25V77.66L46.16 38.58L38.5 35.78L38.49 84.24H30.43V34.59C30.43 33.04 29.28 31.68 27.86 31.68H27.28V27.28H431.72V31.68H431.14C429.72 31.68 428.56 33.04 428.56 34.59V84.24H420.51L420.5 35.78L309.6 76.28L305.81 77.66V228.25L305.66 228.24C302.04 228.24 298.75 229.72 296.37 232.1L296.14 232.36C293.9 234.72 292.52 237.9 292.52 241.38V274.88C292.52 278.48 294 281.77 296.37 284.16C298.75 286.54 302.04 288.02 305.66 288.02H305.81V438.74L420.58 473.88L420.57 405.99ZM409.08 52.12L367.69 67.24V190.89L409.1 186.85L409.08 52.12ZM305.81 236.22H305.66C304.24 236.22 302.95 236.81 302.01 237.74L301.85 237.89C301.01 238.81 300.5 240.04 300.5 241.38V274.88C300.5 276.31 301.07 277.6 302 278.52C302.971 279.491 304.287 280.037 305.66 280.04H305.81V236.22ZM356.22 71.42L317.28 85.65V195.8L356.22 192V71.42ZM367.69 199.95V311.47L409.13 318.44L409.11 195.91L367.69 199.95ZM367.69 320.63V445.75L409.15 458.44L409.13 327.59L367.69 320.63ZM356.22 442.24V318.7L317.28 312.15V430.31L356.22 442.24ZM356.22 309.55V201.07L317.28 204.86V303L356.22 309.55ZM459 0V511.48H0V0H459ZM30.43 129.12V361.11H38.43L38.48 129.12H30.43ZM141.72 85.65L102.78 71.42V190.79L141.72 194.6V85.65ZM91.31 67.24L49.92 52.12L49.9 185.63L91.31 189.67V67.24ZM49.9 197.12L49.87 317.21L91.31 310.25V201.16L49.9 197.12ZM49.87 328.82L49.85 458.44L91.31 445.75V321.85L49.87 328.82ZM102.78 442.24L141.72 430.31V313.37L102.78 319.92V442.24ZM141.72 301.77V206.08L102.78 202.28V308.32L141.72 301.77Z" fill="black"/>
</g>
<defs>
<clipPath id="clip0_337_1391">
<rect width="459" height="511.48" fill="white"/>
</clipPath>
</defs>
</svg>
